<svg width="548" height="486" viewBox="0 0 548 486" fill="none" xmlns="http://www.w3.org/2000/svg">
<path d="M528.557 407.529C493.024 487.817 318.144 479.195 273.121 476.978C248.848 475.779 38.844 467.026 10.9321 373.634C-7.50656 311.97 60.8884 238.366 22.3394 183.533C15.1934 173.351 0.0983488 157.767 9.452e-06 134.464C9.452e-06 134.464 -0.0983291 111.489 19.7662 87.858C78.6059 17.8837 515.659 6.84814 524.23 80.2546C526.197 97.0708 503.219 98.2532 486.058 131.163C436.938 225.458 563.451 328.72 528.557 407.529Z" fill="#F5FAFF"/>
<path d="M347.826 397.873C340.795 395.673 335.468 389.81 333.878 382.535L322.864 332.251L235.883 336.8L226.049 389.531C224.673 396.921 230.802 404.196 237.752 406.79L274.399 420.453C281.218 422.999 288.511 423.935 295.739 423.196L372.575 415.313C374.82 415.083 376.59 413.277 376.82 411.011C377.049 408.728 378.574 406.15 376.426 405.476L347.826 397.873Z" fill="#275475"/>
<path d="M348.629 394.786C341.614 392.602 336.288 386.821 334.698 379.628L323.7 329.984L238.85 334.468L229.016 386.542C227.639 393.833 231.72 401.059 238.67 403.621L275.285 417.103C282.086 419.616 289.38 420.536 296.608 419.797L373.378 411.996C375.623 411.766 377.394 409.993 377.623 407.743C377.852 405.493 376.459 403.391 374.312 402.734L348.629 394.786Z" fill="#316594"/>
<path d="M485.976 294.431L482.223 68.2008C482.141 63.5698 478.273 59.6778 473.586 59.5628L85.4404 50.4158C79.5401 50.2844 74.7542 54.4391 74.8526 59.6778L78.9992 309.687L485.976 294.431Z" fill="#316594"/>
<path d="M87.4072 94.2791L90.6524 289.57C90.7344 294.447 95.2908 298.224 100.781 297.978L468.751 281.359C473.143 281.162 476.667 277.434 476.601 273.099L473.717 98.9101L87.4072 94.2791Z" fill="url(#paint0_linear_1682_2044)"/>
<path d="M473.7 98.9101L473.373 78.9245C473.307 74.6712 469.734 71.1076 465.423 71.0255L96.6838 63.3892C91.3079 63.2743 86.9646 67.1006 87.0466 71.863L87.4235 94.2791L473.7 98.9101Z" fill="white"/>
<path d="M114.09 78.6125C114.123 80.2876 112.615 81.6342 110.73 81.6014C108.845 81.5685 107.288 80.1891 107.255 78.4976C107.223 76.8225 108.73 75.4759 110.632 75.5088C112.517 75.558 114.074 76.9375 114.09 78.6125Z" fill="#EE6E23"/>
<path d="M128.808 78.8588C128.841 80.5339 127.35 81.864 125.481 81.8312C123.613 81.7983 122.072 80.4189 122.056 78.7439C122.023 77.0688 123.514 75.7386 125.383 75.7715C127.251 75.8043 128.792 77.1838 128.808 78.8588Z" fill="#EE6E23"/>
<path d="M143.362 79.0888C143.395 80.7474 141.92 82.0776 140.084 82.0447C138.232 82.0119 136.724 80.6489 136.691 78.9903C136.659 77.3316 138.134 76.0014 139.986 76.0343C141.821 76.0671 143.329 77.4302 143.362 79.0888Z" fill="#EE6E23"/>
<path d="M78.9829 309.687L79.8188 359.61C79.9007 364.848 84.8177 368.839 90.7181 368.494L478.339 345.602C483.01 345.323 486.763 341.299 486.681 336.668L485.96 292.986L78.9829 309.687Z" fill="#DBEDFC"/>
<path d="M146.394 34.3386C161.588 58.8567 175.175 85.3126 161.735 158.752C148.558 230.697 149.213 265.331 161.702 295.219L438.609 282.705C430.431 267.416 429.021 257.448 427.923 240.878C423.842 179.789 460.293 119.963 438.478 56.0978C429.005 28.3446 412.32 11.6598 400.241 2.11857C304.803 1.49453 209.381 0.870497 113.942 0.24646C123.317 6.73316 135.872 17.3746 146.394 34.3386Z" fill="url(#paint1_linear_1682_2044)"/>
<path d="M407.698 233.998C407.715 234.605 407.715 235.229 407.748 235.837C407.764 236.412 407.207 236.888 406.502 236.921L175.519 244.081C174.733 244.097 174.093 243.572 174.159 242.948C174.224 242.34 174.274 241.716 174.339 241.092C174.388 240.55 174.929 240.123 175.585 240.107L406.354 232.963C407.076 232.93 407.698 233.407 407.698 233.998Z" fill="#D8DEE8"/>
<path d="M408.42 214.456C408.37 215.08 408.321 215.687 408.272 216.311C408.223 216.853 407.698 217.28 407.026 217.297L176.617 223.833C175.847 223.849 175.208 223.34 175.257 222.699C175.306 222.092 175.355 221.468 175.405 220.844C175.454 220.302 175.995 219.875 176.65 219.842L407.076 213.306C407.846 213.306 408.469 213.832 408.42 214.456Z" fill="#D8DEE8"/>
<path d="M409.305 253.474C409.403 254.082 409.485 254.689 409.583 255.297C409.682 255.921 409.124 256.463 408.354 256.496L178.06 264.296C177.273 264.329 176.634 263.787 176.699 263.147C176.765 262.539 176.814 261.915 176.88 261.291C176.929 260.766 177.47 260.339 178.125 260.322L407.961 252.538C408.633 252.505 409.223 252.916 409.305 253.474Z" fill="#D8DEE8"/>
<path d="M410.862 194.88C410.764 195.504 410.665 196.112 410.567 196.736C410.485 197.245 409.961 197.639 409.321 197.656L177.978 203.601C177.208 203.617 176.585 203.108 176.634 202.484C176.667 201.876 176.7 201.252 176.749 200.628C176.782 200.07 177.322 199.643 178.011 199.61L409.551 193.665C410.338 193.665 410.977 194.24 410.862 194.88Z" fill="#D8DEE8"/>
<path d="M413.632 272.852C413.812 273.46 414.009 274.068 414.189 274.675C414.402 275.332 413.812 275.973 412.993 275.989L182.174 284.496C181.404 284.528 180.764 284.003 180.797 283.379C180.83 282.771 180.863 282.147 180.912 281.507C180.945 280.965 181.485 280.521 182.157 280.505L412.304 272.015C412.927 272.015 413.484 272.36 413.632 272.852Z" fill="#D8DEE8"/>
<path d="M414.435 175.305C414.303 175.929 414.189 176.537 414.074 177.161C413.976 177.67 413.451 178.031 412.828 178.048L181.584 183.369C180.83 183.385 180.207 182.876 180.24 182.268C180.272 181.661 180.289 181.037 180.321 180.413C180.338 179.854 180.895 179.411 181.584 179.394L413.123 174.074C413.926 174.057 414.566 174.648 414.435 175.305Z" fill="#D8DEE8"/>
<path d="M417.352 57.7401C417.942 57.7401 418.45 58.0521 418.614 58.4955C418.843 59.1196 419.056 59.7272 419.269 60.3676V60.384C419.499 61.0573 418.876 61.7142 418.024 61.7142L180.043 62.7324C179.42 62.7324 178.879 62.3711 178.748 61.8784C178.584 61.2544 178.437 60.6468 178.273 60.0392C178.092 59.3823 178.699 58.7583 179.535 58.7583L417.352 57.7401Z" fill="#D8DEE8"/>
<path d="M423.744 77.8899C423.859 78.514 423.957 79.138 424.056 79.7456C424.154 80.3697 423.548 80.928 422.777 80.928L183.944 82.7509C183.272 82.7509 182.698 82.3403 182.633 81.7984C182.551 81.1743 182.452 80.5667 182.37 79.9591C182.272 79.3351 182.878 78.7767 183.649 78.7767L422.449 76.9539C423.072 76.9703 423.646 77.3644 423.744 77.8899Z" fill="#D8DEE8"/>
<path d="M408.534 41.4494L173.094 42.4183C172.536 42.4183 172.045 42.1391 171.864 41.7121C169.603 36.6049 167.046 31.7768 164.161 27.1129C162.702 24.7646 161.178 22.4655 159.588 20.2321C159.08 19.5259 159.703 18.6392 160.719 18.6392L392.259 19.296C392.636 19.296 393.013 19.4274 393.259 19.6737C399.667 25.7171 405.158 32.4829 409.698 39.9221C410.14 40.6283 409.501 41.4494 408.534 41.4494Z" fill="#D8DEE8"/>
<path d="M418.418 155.747C418.286 156.371 418.172 156.978 418.041 157.602C417.942 158.095 417.418 158.473 416.795 158.489L184.813 163.169C184.059 163.186 183.452 162.693 183.469 162.086C183.485 161.461 183.501 160.854 183.518 160.23C183.534 159.671 184.091 159.212 184.78 159.195L417.106 154.515C417.91 154.482 418.549 155.09 418.418 155.747Z" fill="#D8DEE8"/>
<path d="M422.122 136.221C422.023 136.845 421.908 137.453 421.81 138.077C421.728 138.586 421.187 138.98 420.548 138.996L187.058 143.02C186.32 143.036 185.714 142.543 185.714 141.952C185.714 141.328 185.714 140.721 185.714 140.097C185.714 139.522 186.288 139.062 186.992 139.046L420.794 135.022C421.597 134.989 422.22 135.564 422.122 136.221Z" fill="#D8DEE8"/>
<path d="M424.744 116.728C424.678 117.352 424.629 117.976 424.564 118.584C424.514 119.126 423.957 119.536 423.285 119.553L186.861 122.886C186.14 122.903 185.55 122.426 185.533 121.835C185.517 121.211 185.501 120.604 185.484 119.996C185.468 119.405 186.041 118.929 186.763 118.912L423.416 115.578C424.187 115.578 424.809 116.104 424.744 116.728Z" fill="#D8DEE8"/>
<path d="M425.547 97.3007C425.564 97.9247 425.564 98.5488 425.564 99.1564C425.564 99.7312 424.99 100.207 424.269 100.224L185.944 102.835C185.239 102.835 184.665 102.392 184.616 101.833C184.567 101.209 184.534 100.602 184.485 99.9939C184.436 99.3863 185.026 98.8772 185.763 98.8772L424.187 96.2661C424.941 96.2333 425.531 96.7095 425.547 97.3007Z" fill="#D8DEE8"/>
<path d="M292.592 100.585C292.592 129.57 269.286 154.614 240.44 156.551C211.495 158.489 187.976 136.434 187.976 107.269C187.976 78.1033 211.511 53.0433 240.44 51.2862C269.286 49.529 292.592 71.6002 292.592 100.585Z" fill="#3E3E3E"/>
<path d="M298.788 102.441C298.788 131.426 275.481 156.469 246.635 158.407C217.69 160.345 194.171 138.29 194.171 109.125C194.171 79.9591 217.707 54.899 246.635 53.1419C275.481 51.3847 298.788 73.4559 298.788 102.441Z" fill="#47A7E3"/>
<path d="M244.799 134.25C242.537 134.398 240.423 133.347 239.243 131.459L219.526 99.7311C217.674 96.7588 218.674 92.6861 221.755 90.6333C224.82 88.5806 228.819 89.336 230.655 92.3084L244.324 114.33L262.369 77.5121C263.992 74.2113 267.876 72.6841 271.056 74.1292C274.235 75.5579 275.497 79.4007 273.875 82.7015L250.552 130.325C249.487 132.51 247.356 134.004 245.012 134.25C244.947 134.25 244.865 134.25 244.799 134.25Z" fill="white"/>
<path d="M271.761 160.542C271.761 160.542 269.81 156.634 271.761 151.756C273.711 146.879 273.711 139.062 274.678 136.122C274.908 135.416 274.859 134.989 274.645 134.825C274.187 134.48 272.089 137.288 270.777 140.031C268.466 144.892 269.106 148.587 267.86 148.817C266.451 149.079 264.877 144.613 263.959 144.908C263.254 145.138 263.959 148.012 263.959 150.771C263.959 152.725 268.827 162.496 268.827 162.496L271.761 160.542Z" fill="url(#paint2_linear_1682_2044)"/>
<path d="M378.016 202.78C378.246 198.001 378.754 187.54 372.985 183.894C365.363 179.083 354.136 190.791 341.582 193.961C328.371 197.295 307.048 192.861 272.482 154.942C270.384 157.044 268.286 159.146 266.205 161.232C269.778 173.811 278.94 198.559 302.639 216.623C308.179 220.844 341.795 246.446 362.938 232.98C373.313 226.394 377.541 212.403 378.016 202.78Z" fill="#89C3E8"/>
<path d="M384.572 473.267C386.031 474.449 386.293 477.405 386.474 479.343C386.556 480.213 386.588 480.64 386.49 480.936C385.785 483.153 381.491 483.399 374.739 484.089C364.069 485.173 360.905 486.027 360.07 484.434C359.283 482.939 361.184 480.509 361.397 480.23C362.544 478.785 363.954 478.259 366.675 477.356C371.706 475.697 375.099 474.794 376.132 474.515C382.54 472.791 383.605 472.495 384.572 473.267Z" fill="#303030"/>
<path d="M378.229 463.512L377.164 475.681C377.459 476.272 381.081 478.029 383.95 476.518L386.687 464.547L378.229 463.512Z" fill="url(#paint3_linear_1682_2044)"/>
<path d="M322.635 469.391C324.389 471.329 324.782 474.909 323.258 476.666C321.766 478.39 319.505 477.093 313.113 477.29C306.262 477.487 304.475 479.113 299.82 477.832C297.936 477.307 294.625 476.042 294.69 474.712C294.74 473.759 296.428 473.283 302.066 471.378C310.08 468.685 310.048 468.537 311.736 468.258C316.03 467.536 320.324 466.829 322.635 469.391Z" fill="#303030"/>
<path d="M318.242 458.208L314.817 469.654C315.079 470.262 318.57 472.315 321.569 471.017L326.667 459.916L318.242 458.208Z" fill="url(#paint4_linear_1682_2044)"/>
<path d="M339.123 292.624C338.795 318.21 337.058 346.981 332.879 378.249C328.748 409.139 322.946 437.056 316.636 461.607C319.554 462.395 322.471 463.184 325.388 463.972C332.78 457.058 342.106 446.187 346.613 430.816C349.4 421.275 348.482 416.381 350.252 404.639C353.071 385.951 358.791 376.163 364.691 361.104C370.002 347.573 376.279 327.702 379.639 301.147C366.117 298.306 352.612 295.465 339.123 292.624Z" fill="#303030"/>
<path opacity="0.3" d="M339.123 292.624C347.089 298.701 356.972 308.291 356.66 319.852C356.431 328.424 350.793 330.001 346.613 342.515C341.483 357.853 347.728 362.106 344.106 381.533C341.401 395.985 338.074 392.865 334.059 410.485C330.469 426.168 332.059 433.197 326.519 445.727C323.323 452.936 319.423 458.257 316.636 461.607C319.554 462.395 322.471 463.184 325.388 463.972C332.78 457.058 342.106 446.187 346.613 430.816C349.4 421.275 348.482 416.381 350.252 404.639C353.071 385.951 358.791 376.163 364.691 361.104C370.002 347.573 376.279 327.702 379.639 301.147C366.117 298.306 352.612 295.465 339.123 292.624Z" fill="url(#paint5_linear_1682_2044)"/>
<path d="M371.231 292.74C373.017 325.288 374.476 358.444 375.591 392.175C376.427 417.498 377.033 442.492 377.443 467.158C380.426 467.519 383.392 467.897 386.375 468.258C389.26 462.888 393.079 454.694 395.685 444.167C398.864 431.391 398.127 423.804 399.52 410.568C401.093 395.722 403.355 392.487 407.387 373.749C415.566 335.732 419.647 316.732 410.534 304.908C407.584 301.082 398.307 291.459 371.231 292.74Z" fill="#303030"/>
<path d="M355.365 210.153C350.989 207.312 354.972 199.052 355.218 181.316C355.513 159.573 349.744 155.533 354.366 147.01C360.02 136.582 374.263 132.263 383.704 132.066C385.785 132.017 386.277 130.884 403.716 135.4C435.135 143.545 443.002 134.809 457.065 143.545C470.652 151.986 464.702 161.215 477.896 171.101C499.285 187.129 521.788 169.804 537.08 183.204C551.536 195.882 551.88 228.201 536.67 245.838C519.428 265.84 488.32 259.83 467.489 255.855C463.096 255.018 440.954 250.354 417.893 233.308C405.142 223.865 396.373 213.799 390.8 206.376C389.489 204.898 387.457 203.108 384.753 202.829C381.524 202.484 378.918 204.471 377.672 205.341C371.083 209.907 359.66 212.928 355.365 210.153Z" fill="#515356"/>
<path d="M370.952 185.504C370.952 185.504 398.864 177.342 411.157 191.284C413.074 193.452 415.008 196.654 416.5 203.699C421.712 228.447 407.829 237.266 409.731 259.731C409.944 262.309 412.369 287.008 430.267 302.182C438.774 309.408 448.476 312.512 448.247 318.9C448.083 323.514 442.838 327.702 437.97 329.196C428.677 332.037 423.252 324.188 411.009 321.478C398.209 318.637 395.242 325.239 375.066 327.915C368.346 328.802 337.697 332.858 330.125 320.197C326.913 314.811 330.879 311.428 336.55 289.324C337.124 287.09 346.941 248.252 343.975 231.321C343.712 229.859 342.844 223.915 343.106 216.016C343.171 214.061 343.417 211.877 343.975 209.283C343.975 209.283 346.351 198.263 354.907 188.788C356.103 187.458 357.578 186.045 370.952 185.504Z" fill="#89C3E8"/>
<g opacity="0.3">
<g opacity="0.3">
<path opacity="0.3" d="M411.157 191.284C413.976 191.251 416.172 202.139 416.5 203.699C421.712 228.447 407.83 237.266 409.731 259.731C409.944 262.309 412.37 287.008 430.267 302.182C438.774 309.408 448.476 312.511 448.247 318.9C448.083 323.514 442.838 327.702 437.971 329.196C428.677 332.037 423.252 324.188 411.009 321.478C398.209 318.637 395.242 325.239 375.066 327.915C368.346 328.802 337.697 332.858 330.125 320.197C329.339 318.883 329.044 318.325 329.126 317.75C329.978 311.592 358.349 317.192 365.462 305.975C372.411 295.022 354.399 275.348 360.43 269.469C365.134 264.888 377.148 275.874 386.818 270.734C392.882 267.515 393.882 260.125 396.865 244.294C402.126 216.525 406.879 191.333 411.157 191.284Z" fill="url(#paint6_linear_1682_2044)"/>
</g>
</g>
<path d="M382.95 162.94C382.458 165.255 382.015 174.107 383.572 179.904C383.917 181.168 384.392 182.991 388.686 183.122C391.554 183.204 393.751 183.122 395.537 183.615C395.308 185.7 394.472 189.625 392.079 192.696C385.359 201.334 375.656 198.723 373.739 198.362C366.953 197.13 360.282 195.028 358.676 193.747C356.218 191.793 354.3 190.331 353.153 188.837C355.775 187.573 361.069 184.222 364.626 183.122C367.281 182.301 369.772 181.726 372.05 181.299C372.427 178.902 372.788 176.504 373.165 174.107C376.41 170.395 379.672 166.667 382.95 162.94Z" fill="url(#paint7_linear_1682_2044)"/>
<path opacity="0.21" d="M371.87 173.762C371.723 173.844 373.378 173.926 373.231 174.008L372.083 180.807C373.034 181.25 374.05 181.414 375.083 181.234C379.475 180.429 381.425 178.343 382.769 175.88L382.425 170.97H376.295C374.837 171.922 373.362 172.859 371.87 173.762Z" fill="#494949"/>
<path d="M383.195 169.131C383.195 169.131 382.277 178.228 373.46 179.838C365.56 181.267 359.61 162.135 363.659 157.192C365.003 155.533 368.346 153.973 371.231 154.055C373.263 154.121 380.114 156.732 381.081 163.613C382.441 162.168 384.146 161.757 384.982 162.365C386.047 163.137 385.473 165.354 385.342 165.863C384.883 167.587 383.736 168.671 383.195 169.131Z" fill="url(#paint8_linear_1682_2044)"/>
<path d="M369.346 285.037L350.531 238.333C349.252 235.18 350.94 231.6 354.169 230.566L391.423 218.643C393.587 218.151 395.767 219.316 396.57 221.369L415.812 270.602C416.762 273.049 415.418 275.808 412.894 276.531L374.722 287.632C372.526 288.273 370.215 287.156 369.346 285.037Z" fill="#EE6E23"/>
<path d="M371.739 258.171C371.739 258.171 367.97 255.658 367.97 253.129C367.97 250.617 365.462 246.84 364.2 246.84C362.938 246.84 362.938 248.104 364.2 250.617C365.462 253.129 359.168 251.881 356.661 249.352C354.153 246.823 351.629 246.84 352.891 248.088C354.874 250.075 355.399 251.865 355.399 251.865C355.399 251.865 357.906 261.932 368.904 261.308L371.739 258.171Z" fill="url(#paint9_linear_1682_2044)"/>
<path d="M398.11 186.423C406.142 182.827 419.598 197.639 421.974 200.267C434.644 214.209 452.607 245.838 438.298 264.461C426.367 279.996 394.341 283.428 367.953 263.196C369.215 260.684 370.461 258.155 371.723 255.642C374.46 256.644 392.489 262.884 405.65 253.129C408.436 251.06 412.73 247.874 413.189 243.063C414.041 234.096 400.421 231.321 394.341 217.888C388.965 205.982 391.194 189.511 398.11 186.423Z" fill="#89C3E8"/>
<path d="M192.368 259.435C192.368 259.435 206.283 264.116 207.742 287.189C205.48 286.992 200.17 287.107 200.17 287.107C200.17 287.107 201.153 270.323 191.253 266.924C192.057 264.986 192.368 259.435 192.368 259.435Z" fill="#3E3E3E"/>
<path d="M140.773 257.235C141.134 261.488 141.478 265.742 141.838 269.995C148.837 268.188 156.474 266.086 164.653 265.791C175.257 265.413 184.96 266.727 193.565 268.878C193.942 268.353 194.761 267.088 195.122 265.019C195.728 261.669 194.712 258.877 194.532 258.384C190.156 256.775 185.403 255.396 180.289 254.427C165.604 251.635 152.279 253.934 140.773 257.235Z" fill="#EE6E23"/>
<path d="M140.117 260.897C140.133 259.353 140.248 257.449 140.773 257.235C141.264 257.038 141.92 258.434 142.215 259.206C142.33 259.534 142.592 260.306 142.756 262.786C142.969 265.988 142.723 267.548 142.494 268.5C142.362 269.075 142.149 269.962 141.838 269.978C141.592 269.995 141.363 269.437 141.035 268.353C140.592 266.908 140.068 264.477 140.117 260.897Z" fill="#1A1A1A"/>
<path d="M127.169 287.599C130.119 288.174 137.281 289.898 137.281 289.898C137.281 289.898 132.61 274.922 141.412 268.139C141.641 267.023 141.871 265.233 141.592 263.081C141.379 261.423 140.936 260.076 140.543 259.156C136.806 261.193 128.66 268.156 127.169 287.599Z" fill="#3E3E3E"/>
<path d="M65.4941 290.917C65.4941 290.917 65.8547 282.985 78.393 283.133C80.3598 284.594 80.4581 291.064 80.4581 291.064L65.4941 290.917Z" fill="#3E3E3E"/>
<path d="M54.3161 447.008L88.6365 467.289L109.239 390.68L75.2132 288.141L65.494 290.9L50.6939 438.928C50.3497 442.295 51.7921 445.53 54.3161 447.008Z" fill="#47A7E3"/>
<path opacity="0.3" d="M109.239 390.68L75.2133 288.141L65.4941 290.9C67.8871 299.998 69.0344 314.794 69.5752 323.022C71.8698 358.033 79.4911 367.755 75.8034 392.175C72.7385 412.505 66.0186 415.33 66.6087 428.993C67.2479 443.871 75.8853 456.188 86.1126 465.795L88.6367 467.289L109.239 390.68Z" fill="url(#paint10_linear_1682_2044)"/>
<path d="M75.2134 288.158L257.731 290.063L285.479 447.583L88.6203 467.306L75.2134 288.158Z" fill="#47A7E3"/>
<g opacity="0.15">
<path opacity="0.15" d="M257.731 290.063L197.482 289.439C196.367 292.69 194.646 297.206 192.139 302.313C164.751 358.083 93.7338 368.429 94.8974 377.723C96.6348 391.616 243.816 368.363 247.307 386.985C248.995 395.968 220.051 416.742 189.5 424.904C152.508 434.79 125.038 423.229 106.616 444.791C100.355 452.115 97.5854 460.638 96.2414 466.402L285.479 447.583L257.731 290.063Z" fill="url(#paint11_linear_1682_2044)"/>
</g>
<path d="M78.3929 283.132C76.2786 283.116 73.312 282.804 70.0832 284.676C69.3949 285.07 68.7884 285.514 68.2476 285.957L69.739 285.448C72.132 284.775 75.4263 285.744 76.6556 288.158C78.1634 291.13 78.7043 297.994 79.0321 301.377C79.9663 311.034 85.7356 371.04 85.7356 371.04C86.1617 376.098 89.9805 379.908 94.4714 379.793L263.549 370.136C264.795 370.104 266.024 369.693 267.057 368.872C269.204 367.164 270.171 364.192 269.679 361.384L261.353 292.05C260.648 288.059 257.633 285.169 254.109 285.12L78.3929 283.132Z" fill="#3E3E3E"/>
<path d="M80.2612 283.149C78.1469 283.132 75.6228 282.804 72.8201 283.526C72.0662 283.724 70.8534 284.085 70.3125 284.528C70.3125 284.528 76.262 283.165 78.5074 288.174C79.8842 291.228 80.5562 297.994 80.884 301.394C81.8182 311.05 87.5874 371.04 87.5874 371.04C88.0136 376.098 91.816 379.908 96.3068 379.776L267.139 375.276C268.384 375.244 269.613 374.833 270.646 374.012C272.793 372.304 273.76 369.332 273.252 366.524L263.09 292.066C262.385 288.075 259.37 285.185 255.862 285.136L80.2612 283.149Z" fill="#47A7E3"/>
<path opacity="0.1" d="M273.268 366.523L263.107 292.066C262.402 288.075 259.386 285.185 255.879 285.136L80.2612 283.149C78.1469 283.132 75.6228 282.804 72.8201 283.526C72.0662 283.724 70.8534 284.085 70.3125 284.528C70.3125 284.528 76.262 283.165 78.5074 288.174C78.7205 288.65 78.9172 289.241 79.0975 289.882C96.2249 290.736 113.27 290.424 130.217 291.705C163.423 294.152 196.646 294.48 227.311 308.192C237.047 312.544 243.717 327.981 241.079 335.075C239.177 340.199 232.687 339.772 230.409 346.505C228.016 353.599 233.752 358.411 231.343 363.387C228.819 368.609 221.165 366.146 208.725 369.906C201.841 371.992 196.564 375.047 193.253 377.231L267.139 375.276C268.384 375.244 269.613 374.833 270.646 374.012C272.809 372.304 273.776 369.348 273.268 366.523Z" fill="url(#paint12_linear_1682_2044)"/>
<path d="M192.909 389.612L171.52 395.015L169.258 395.229C166.964 395.442 164.997 393.439 164.899 390.795L163.948 365.735C163.85 363.091 165.653 360.874 167.947 360.841L170.225 360.808L191.745 363.567C193.794 363.534 195.515 362.417 195.613 364.881L196.482 388.266C196.58 390.713 194.958 389.432 192.909 389.612Z" fill="#3E3E3E"/>
<path d="M194.531 393.062L170.832 395.213C168.554 395.426 166.57 393.423 166.472 390.779L165.521 365.719C165.423 363.075 167.226 360.874 169.521 360.825L193.286 360.431C195.335 360.398 197.072 362.385 197.154 364.865L198.023 388.234C198.154 390.697 196.564 392.881 194.531 393.062Z" fill="white"/>
<path opacity="0.21" d="M495.794 116.038C495.86 116.531 495.729 115.89 495.974 117.697C496.302 117.615 496.597 117.516 496.86 117.418C497.646 117.106 498.318 116.547 498.794 115.841C498.957 115.595 499.105 115.381 499.105 115.381C498.99 115.365 495.761 115.841 495.794 116.038Z" fill="#494949"/>
<path d="M176.994 379.366L177.224 385.278L174.06 385.409L173.716 376.607C174.028 377.099 174.388 377.543 174.831 377.97C175.323 378.446 175.88 378.84 176.453 379.136C176.617 379.201 176.798 379.283 176.994 379.366Z" fill="#303030"/>
<path d="M192.745 381.533C192.81 383.29 192.302 384.785 191.188 386.016C190.09 387.248 188.68 387.889 186.976 387.954L181.944 388.151L181.616 379.743L184.861 379.612L185.074 384.949L186.861 384.883C187.713 384.851 188.418 384.538 188.926 383.947C189.451 383.356 189.68 382.584 189.647 381.648C189.614 380.712 189.319 379.957 188.746 379.398C188.189 378.84 187.467 378.594 186.615 378.627L179.797 378.889C178.781 378.922 177.863 378.758 177.027 378.364C176.978 378.331 176.912 378.315 176.863 378.282C176.355 378.019 175.896 377.69 175.454 377.28C175.159 376.984 174.896 376.689 174.667 376.36C174.028 375.457 173.667 374.39 173.585 373.174L173.569 372.698C173.552 371.04 174.077 369.627 175.126 368.445C176.224 367.213 177.633 366.573 179.338 366.507L184.37 366.31L184.697 374.718L181.452 374.85L181.239 369.512L179.453 369.578C178.6 369.611 177.896 369.923 177.388 370.514C176.863 371.105 176.634 371.877 176.666 372.813C176.699 373.766 177.011 374.505 177.568 375.063C178.125 375.621 178.846 375.868 179.699 375.835L186.517 375.572C188.221 375.506 189.68 376.048 190.86 377.181C192.04 378.331 192.679 379.776 192.745 381.533Z" fill="#303030"/>
<defs>
<linearGradient id="paint0_linear_1682_2044" x1="276.211" y1="73.1626" x2="297.509" y2="503.99" gradientUnits="userSpaceOnUse">
<stop stop-color="#DBEDFC"/>
<stop offset="1" stop-color="#CEDFED"/>
</linearGradient>
<linearGradient id="paint1_linear_1682_2044" x1="241.273" y1="-133.547" x2="283.257" y2="88.8526" gradientUnits="userSpaceOnUse">
<stop stop-color="#EBEFF2"/>
<stop offset="1" stop-color="white"/>
</linearGradient>
<linearGradient id="paint2_linear_1682_2044" x1="270.957" y1="173.306" x2="269.425" y2="144.261" gradientUnits="userSpaceOnUse">
<stop stop-color="#FF928E"/>
<stop offset="1" stop-color="#FEB3B1"/>
</linearGradient>
<linearGradient id="paint3_linear_1682_2044" x1="380.838" y1="478.495" x2="382.56" y2="463.152" gradientUnits="userSpaceOnUse">
<stop stop-color="#FF928E"/>
<stop offset="1" stop-color="#FEB3B1"/>
</linearGradient>
<linearGradient id="paint4_linear_1682_2044" x1="319.968" y1="471.664" x2="321.69" y2="456.321" gradientUnits="userSpaceOnUse">
<stop stop-color="#FF928E"/>
<stop offset="1" stop-color="#FEB3B1"/>
</linearGradient>
<linearGradient id="paint5_linear_1682_2044" x1="310.376" y1="435.775" x2="360.979" y2="321.928" gradientUnits="userSpaceOnUse">
<stop stop-color="#444B8C"/>
<stop offset="0.9964" stop-color="#26264F"/>
</linearGradient>
<linearGradient id="paint6_linear_1682_2044" x1="410.328" y1="358.557" x2="350.491" y2="201.703" gradientUnits="userSpaceOnUse">
<stop stop-color="#AA80F9"/>
<stop offset="0.9964" stop-color="#6165D7"/>
</linearGradient>
<linearGradient id="paint7_linear_1682_2044" x1="374.113" y1="176.68" x2="374.621" y2="199.685" gradientUnits="userSpaceOnUse">
<stop stop-color="#FF928E"/>
<stop offset="1" stop-color="#FEB3B1"/>
</linearGradient>
<linearGradient id="paint8_linear_1682_2044" x1="379.354" y1="183.641" x2="372.393" y2="158.801" gradientUnits="userSpaceOnUse">
<stop stop-color="#FF928E"/>
<stop offset="1" stop-color="#FEB3B1"/>
</linearGradient>
<linearGradient id="paint9_linear_1682_2044" x1="370.578" y1="257.255" x2="355.817" y2="249.635" gradientUnits="userSpaceOnUse">
<stop stop-color="#FF928E"/>
<stop offset="1" stop-color="#FEB3B1"/>
</linearGradient>
<linearGradient id="paint10_linear_1682_2044" x1="36.3604" y1="305.569" x2="88.1757" y2="392.289" gradientUnits="userSpaceOnUse">
<stop stop-color="#311944"/>
<stop offset="1" stop-color="#893976"/>
</linearGradient>
<linearGradient id="paint11_linear_1682_2044" x1="131.614" y1="343.208" x2="273.386" y2="452.228" gradientUnits="userSpaceOnUse">
<stop stop-color="#311944"/>
<stop offset="1" stop-color="#893976"/>
</linearGradient>
<linearGradient id="paint12_linear_1682_2044" x1="199.624" y1="580.291" x2="165.08" y2="265.143" gradientUnits="userSpaceOnUse">
<stop stop-color="#311944"/>
<stop offset="1" stop-color="#893976"/>
</linearGradient>
</defs>
</svg>
