<svg width="93" height="36" viewBox="0 0 93 36" fill="none" xmlns="http://www.w3.org/2000/svg">
<path d="M89.9728 30C91.5929 30 92.997 31.2857 92.997 33C92.997 34.6071 91.7009 36 89.9728 36C88.3526 36 86.9485 34.7143 86.9485 33C87.0565 31.2857 88.3526 30 89.9728 30Z" fill="#E97522"/>
<path d="M68.2628 30C69.883 30 71.2871 31.2857 71.2871 33C71.2871 34.6071 69.991 36 68.2628 36C66.6427 36 65.2385 34.7143 65.2385 33C65.3465 31.2857 66.6427 30 68.2628 30Z" fill="#E97522"/>
<path d="M46.5526 30C48.1728 30 49.5769 31.2857 49.5769 33C49.5769 34.6071 48.2808 36 46.5526 36C44.8244 36 43.5283 34.7143 43.5283 33C43.5283 31.2857 44.9325 30 46.5526 30Z" fill="#E97522"/>
<path d="M89.9757 15C91.5959 15 93 16.2857 93 18C93 19.6071 91.7039 21 89.9757 21C88.2475 21 86.9514 19.7143 86.9514 18C86.9514 16.2857 88.3555 15 89.9757 15Z" fill="#E97522"/>
<path d="M24.8422 30C26.4623 30 27.8665 31.2857 27.8665 33C27.8665 34.6071 26.5703 36 24.8422 36C23.222 36 21.8179 34.7143 21.8179 33C21.8179 31.2857 23.114 30 24.8422 30Z" fill="#E97522"/>
<path d="M46.0004 15C47.6205 15 49.0247 16.2857 49.0247 18C49.0247 19.6071 47.7285 21 46.0004 21C44.3802 21 42.9761 19.7143 42.9761 18C42.9761 16.2857 44.2722 15 46.0004 15Z" fill="#E97522"/>
<path d="M46.0004 0C47.6205 0 49.0247 1.28571 49.0247 3C49.0247 4.60714 47.7285 6 46.0004 6C44.3802 6 42.9761 4.71429 42.9761 3C42.9761 1.28571 44.2722 0 46.0004 0Z" fill="#E97522"/>
<path d="M3.0243 30C4.64446 30 6.0486 31.2857 6.0486 33C6.0486 34.6071 4.75248 36 3.0243 36C1.40414 36 0 34.7143 0 33C0.108011 31.2857 1.40414 30 3.0243 30Z" fill="#E97522"/>
<path d="M25.0121 15C26.6323 15 28.0364 16.2857 28.0364 18C28.0364 19.6071 26.7403 21 25.0121 21C23.3919 21 21.9878 19.7143 21.9878 18C22.0958 16.2857 23.3919 15 25.0121 15Z" fill="#E97522"/>
</svg>
