<svg width="122" height="35" viewBox="0 0 122 35" fill="none" xmlns="http://www.w3.org/2000/svg">
<path d="M119.663 30.0845C120.915 30.0845 122 31.0763 122 32.3987C122 33.6384 120.998 34.7128 119.663 34.7128C118.411 34.7128 117.327 33.721 117.327 32.3987C117.41 31.1589 118.411 30.0845 119.663 30.0845Z" fill="#E97522" fill-opacity="0.5"/>
<path d="M102.89 30.0845C104.142 30.0845 105.227 31.0763 105.227 32.3987C105.227 33.6384 104.225 34.7128 102.89 34.7128C101.639 34.7128 100.554 33.721 100.554 32.3987C100.637 31.1589 101.639 30.0845 102.89 30.0845Z" fill="#E97522" fill-opacity="0.5"/>
<path d="M86.1178 30.0845C87.3695 30.0845 88.4543 31.0763 88.4543 32.3987C88.4543 33.6384 87.4529 34.7128 86.1178 34.7128C84.7826 34.7128 83.7812 33.721 83.7812 32.3987C83.7812 31.1589 84.8661 30.0845 86.1178 30.0845Z" fill="#E97522" fill-opacity="0.5"/>
<path d="M69.3448 30.0845C70.5965 30.0845 71.6814 31.0763 71.6814 32.3987C71.6814 33.6384 70.68 34.7128 69.3448 34.7128C68.0931 34.7128 67.0083 33.721 67.0083 32.3987C67.0083 31.1589 68.0097 30.0845 69.3448 30.0845Z" fill="#E97522" fill-opacity="0.5"/>
<path d="M52.4884 30.0845C53.7401 30.0845 54.8249 31.0763 54.8249 32.3987C54.8249 33.6384 53.8235 34.7128 52.4884 34.7128C51.2367 34.7128 50.1519 33.721 50.1519 32.3987C50.2353 31.1589 51.2367 30.0845 52.4884 30.0845Z" fill="#E97522" fill-opacity="0.5"/>
<path d="M119.663 15.0421C120.915 15.0421 122 16.0339 122 17.3563C122 18.596 120.998 19.6705 119.663 19.6705C118.411 19.6705 117.327 18.6787 117.327 17.3563C117.41 16.1166 118.411 15.0421 119.663 15.0421Z" fill="#E97522" fill-opacity="0.5"/>
<path d="M102.89 15.0421C104.142 15.0421 105.227 16.0339 105.227 17.3563C105.227 18.596 104.225 19.6705 102.89 19.6705C101.639 19.6705 100.554 18.6787 100.554 17.3563C100.637 16.1166 101.639 15.0421 102.89 15.0421Z" fill="#E97522" fill-opacity="0.5"/>
<path d="M86.1178 15.0421C87.3695 15.0421 88.4543 16.0339 88.4543 17.3563C88.4543 18.596 87.4529 19.6705 86.1178 19.6705C84.7826 19.6705 83.7812 18.6787 83.7812 17.3563C83.7812 16.1166 84.8661 15.0421 86.1178 15.0421Z" fill="#E97522" fill-opacity="0.5"/>
<path d="M69.3448 15.0421C70.5965 15.0421 71.6814 16.0339 71.6814 17.3563C71.6814 18.596 70.68 19.6705 69.3448 19.6705C68.0931 19.6705 67.0083 18.6787 67.0083 17.3563C67.0083 16.1166 68.0097 15.0421 69.3448 15.0421Z" fill="#E97522" fill-opacity="0.5"/>
<path d="M52.4884 15.0421C53.7401 15.0421 54.8249 16.0339 54.8249 17.3563C54.8249 18.596 53.8235 19.6705 52.4884 19.6705C51.2367 19.6705 50.1519 18.6787 50.1519 17.3563C50.2353 16.1166 51.2367 15.0421 52.4884 15.0421Z" fill="#E97522" fill-opacity="0.5"/>
<path d="M119.663 0C120.915 0 122 0.991793 122 2.31418C122 3.55393 120.998 4.62837 119.663 4.62837C118.411 4.62837 117.327 3.63658 117.327 2.31418C117.41 0.991793 118.411 0 119.663 0Z" fill="#E97522" fill-opacity="0.5"/>
<path d="M102.89 0C104.142 0 105.227 0.991793 105.227 2.31418C105.227 3.55393 104.225 4.62837 102.89 4.62837C101.639 4.62837 100.554 3.63658 100.554 2.31418C100.637 0.991793 101.639 0 102.89 0Z" fill="#E97522" fill-opacity="0.5"/>
<path d="M86.1178 0C87.3695 0 88.4543 0.991793 88.4543 2.31418C88.4543 3.55393 87.4529 4.62837 86.1178 4.62837C84.7826 4.62837 83.7812 3.63658 83.7812 2.31418C83.7812 0.991793 84.8661 0 86.1178 0Z" fill="#E97522" fill-opacity="0.5"/>
<path d="M69.3448 0C70.5965 0 71.6814 0.991793 71.6814 2.31418C71.6814 3.55393 70.68 4.62837 69.3448 4.62837C68.0931 4.62837 67.0083 3.63658 67.0083 2.31418C67.0083 0.991793 68.0097 0 69.3448 0Z" fill="#E97522" fill-opacity="0.5"/>
<path d="M52.4884 0C53.7401 0 54.8249 0.991793 54.8249 2.31418C54.8249 3.55393 53.8235 4.62837 52.4884 4.62837C51.2367 4.62837 50.1519 3.63658 50.1519 2.31418C50.2353 0.991793 51.2367 0 52.4884 0Z" fill="#E97522" fill-opacity="0.5"/>
<path d="M35.8819 30.0845C37.1336 30.0845 38.2185 31.0763 38.2185 32.3987C38.2185 33.6384 37.2171 34.7128 35.8819 34.7128C34.6302 34.7128 33.5454 33.721 33.5454 32.3987C33.6289 31.1589 34.6302 30.0845 35.8819 30.0845Z" fill="#E97522" fill-opacity="0.5"/>
<path d="M19.1095 30.0845C20.3612 30.0845 21.446 31.0763 21.446 32.3987C21.446 33.6384 20.4446 34.7128 19.1095 34.7128C17.8578 34.7128 16.7729 33.721 16.7729 32.3987C16.7729 31.1589 17.8578 30.0845 19.1095 30.0845Z" fill="#E97522" fill-opacity="0.5"/>
<path d="M2.33653 30.0845C3.58824 30.0845 4.67305 31.0763 4.67305 32.3987C4.67305 33.6384 3.67168 34.7128 2.33653 34.7128C1.00137 34.7128 0 33.6384 0 32.3987C0 31.1589 1.00137 30.0845 2.33653 30.0845Z" fill="#E97522" fill-opacity="0.5"/>
<path d="M35.8819 15.0421C37.1336 15.0421 38.2185 16.0339 38.2185 17.3563C38.2185 18.596 37.2171 19.6705 35.8819 19.6705C34.6302 19.6705 33.5454 18.6787 33.5454 17.3563C33.6289 16.1166 34.6302 15.0421 35.8819 15.0421Z" fill="#E97522" fill-opacity="0.5"/>
<path d="M19.1095 15.0421C20.3612 15.0421 21.446 16.0339 21.446 17.3563C21.446 18.596 20.4446 19.6705 19.1095 19.6705C17.8578 19.6705 16.7729 18.6787 16.7729 17.3563C16.7729 16.1166 17.8578 15.0421 19.1095 15.0421Z" fill="#E97522" fill-opacity="0.5"/>
<path d="M2.33653 15.0421C3.58824 15.0421 4.67305 16.0339 4.67305 17.3563C4.67305 18.596 3.67168 19.6705 2.33653 19.6705C1.00137 19.5878 0 18.596 0 17.3563C0 16.1166 1.00137 15.0421 2.33653 15.0421Z" fill="#E97522" fill-opacity="0.5"/>
<path d="M35.8819 0C37.1336 0 38.2185 0.991793 38.2185 2.31418C38.2185 3.55393 37.2171 4.62837 35.8819 4.62837C34.6302 4.62837 33.5454 3.63658 33.5454 2.31418C33.6289 0.991793 34.6302 0 35.8819 0Z" fill="#E97522" fill-opacity="0.5"/>
<path d="M19.1095 0C20.3612 0 21.446 0.991793 21.446 2.31418C21.446 3.55393 20.4446 4.62837 19.1095 4.62837C17.8578 4.62837 16.7729 3.63658 16.7729 2.31418C16.7729 0.991793 17.8578 0 19.1095 0Z" fill="#E97522" fill-opacity="0.5"/>
<path d="M2.33653 0C3.58824 0 4.67305 0.991793 4.67305 2.31418C4.67305 3.55393 3.67168 4.62837 2.33653 4.62837C1.00137 4.54572 0 3.55393 0 2.31418C0 0.991793 1.00137 0 2.33653 0Z" fill="#E97522" fill-opacity="0.5"/>
</svg>
