<svg width="132" height="35" viewBox="0 0 132 35" fill="none" xmlns="http://www.w3.org/2000/svg">
<path d="M5.06663 20.3921V29.8219H0V15.7892C0.449459 16.5835 1.0215 17.3371 1.69569 18.0295C2.47202 18.8238 3.30965 19.4756 4.229 19.9847C4.49459 20.1273 4.78061 20.2699 5.06663 20.3921Z" fill="#303030"/>
<path d="M30.1546 24.8328C30.1546 27.6231 29.2353 29.9856 27.3966 31.8594C25.5579 33.7535 23.2697 34.6903 20.5321 34.6903H12.4623V21.289H17.6719V29.8023H20.5321C21.9009 29.8023 23.0246 29.3542 23.903 28.4377C24.7815 27.5212 25.2106 26.3196 25.2106 24.8124C25.2106 23.3053 24.7815 22.1037 23.903 21.1872C23.045 20.2707 21.9213 19.8226 20.5321 19.8226H9.60208C7.96768 19.8226 6.49672 19.4967 5.18921 18.8246C5.10749 18.7839 5.00534 18.7431 4.92362 18.682C4.12685 18.2543 3.4118 17.6841 2.73761 16.9916C2.26772 16.5232 1.87956 16.014 1.53225 15.4845C0.572039 13.9977 0.0612899 12.2869 0 10.352V9.57808C0.0817198 6.95077 1.00107 4.73079 2.75804 2.93851C4.59674 1.0444 6.88489 0.0871582 9.60208 0.0871582H17.6719V13.4885H12.4623V4.97519H9.60208C8.23327 4.97519 7.10962 5.42326 6.23114 6.33976C5.35265 7.25627 4.92362 8.45791 4.92362 9.96505C4.92362 11.4722 5.35265 12.6738 6.23114 13.5903C7.08919 14.5069 8.21284 14.9549 9.60208 14.9549H20.5117C23.2493 14.9549 25.5374 15.8918 27.3761 17.7859C29.2353 19.68 30.1546 22.0222 30.1546 24.8328Z" fill="#303030"/>
<path d="M50.6869 19.7404H54.4869V34.6285H50.6869V26.604L47.0708 32.5918H46.6827L43.087 26.6243V34.6285H39.2666V19.7404H43.087L46.8665 26.0948L50.6869 19.7404Z" fill="#303030"/>
<path d="M49.2369 0.0456543H44.5789L39.6553 14.9338H43.8026L44.4359 12.7953H49.4004L50.0337 14.9338H54.1401L49.2369 0.0456543ZM45.4165 9.51621L46.9079 4.46525L48.4197 9.51621H45.4165Z" fill="#47A7E3"/>
<path d="M61.3307 0.0456543H55.2426V9.92355H59.1652V3.73205H61.3103C62.3522 3.73205 63.1899 4.07828 63.8436 4.77075C64.4974 5.46322 64.8243 6.35936 64.8243 7.4999C64.8243 8.64044 64.4974 9.53658 63.8436 10.2291C63.1899 10.9215 62.3522 11.2678 61.3103 11.2678H60.9221H59.1447H55.2222V14.9542H61.3103C63.3737 14.9542 65.0898 14.2413 66.4791 12.8156C67.8683 11.39 68.5629 9.61805 68.5629 7.52027C68.5629 5.40212 67.8683 3.63021 66.4791 2.2249C65.1103 0.758492 63.3942 0.0456543 61.3307 0.0456543Z" fill="#47A7E3"/>
<path d="M76.4285 0.0456543H70.3403V3.73204H74.2629H75.7951H76.4285C77.4704 3.73204 78.308 4.07828 78.9618 4.77075C79.6155 5.46322 79.9424 6.35936 79.9424 7.4999C79.9424 8.64044 79.6155 9.53658 78.9618 10.2291C78.308 10.9215 77.4704 11.2678 76.4285 11.2678H74.2833V5.05589H70.3608V14.9338H76.4489C78.5123 14.9338 80.2284 14.2209 81.6177 12.7953C83.0069 11.3696 83.7015 9.59768 83.7015 7.4999C83.7015 5.38175 83.0069 3.60984 81.6177 2.20453C80.208 0.758492 78.4919 0.0456543 76.4285 0.0456543Z" fill="#47A7E3"/>
<path d="M108.299 23.4267H111.997V34.6285H115.818V23.4267H119.495V19.7404H108.299V23.4267Z" fill="#303030"/>
<path d="M131.058 28.3758C130.792 27.8259 130.404 27.3778 129.894 27.0316C129.362 26.6854 128.892 26.4206 128.443 26.2373C127.994 26.054 127.422 25.8503 126.686 25.6467C125.685 25.3412 124.99 25.0968 124.643 24.8524C124.296 24.6283 124.112 24.3432 124.112 24.0173C124.112 23.7322 124.234 23.5082 124.459 23.3249C124.684 23.1416 125.031 23.0397 125.501 23.0397C126.584 23.0397 127.36 23.5896 127.83 24.6894L131.038 22.8157C130.527 21.7159 129.791 20.8605 128.811 20.2902C127.851 19.6996 126.727 19.4144 125.481 19.4144C124.01 19.4144 122.763 19.8421 121.783 20.6975C120.802 21.5529 120.291 22.6528 120.291 24.0377C120.291 25.3208 120.68 26.3188 121.476 27.0316C122.273 27.7445 123.356 28.2944 124.725 28.7017C125.685 28.9665 126.318 29.1701 126.604 29.272C127.279 29.5367 127.605 29.9033 127.605 30.331C127.605 31.0031 127.013 31.329 125.848 31.329C124.439 31.329 123.458 30.6773 122.906 29.3534L119.638 31.2475C120.046 32.3881 120.782 33.2842 121.803 33.9563C122.845 34.6284 124.153 34.9543 125.726 34.9543C127.442 34.9543 128.811 34.547 129.853 33.7119C130.895 32.8973 131.405 31.7567 131.405 30.2903C131.446 29.5571 131.324 28.9054 131.058 28.3758Z" fill="#303030"/>
<path d="M65.1515 19.7404H60.4934L55.5698 34.6285H59.7171L60.3504 32.49H65.3149L65.9482 34.6285H70.0751L65.1515 19.7404ZM61.3311 29.2109L62.8225 24.16L64.3343 29.2109H61.3311Z" fill="#303030"/>
<path d="M101.659 28.8647H106.808V25.3616H101.659V23.3045H107.339V19.7404H97.8594V34.6285H107.441V31.0643H101.659V28.8647Z" fill="#303030"/>
<path d="M96.5523 19.7404H92.2825L88.2169 25.993V19.7404H84.3965V34.6285H88.2169V27.9685L92.5072 34.6285H96.7566L91.8126 26.9706L96.5523 19.7404Z" fill="#303030"/>
<path d="M79.9835 29.1295C80.7598 28.6814 81.3931 28.0907 81.8426 27.3575C82.2921 26.604 82.5168 25.7893 82.5168 24.8932C82.5168 23.4064 82.006 22.1844 80.9641 21.2068C79.9426 20.2292 78.6555 19.7404 77.1437 19.7404H76.8985H76.3061H74.9781H72.4039H71.1577V34.6285H74.9781V29.8219H76.3469L78.9415 34.6285H83.0275L79.9835 29.1295ZM78.2469 26.1355C77.9405 26.441 77.5727 26.604 77.1028 26.5836H74.9781V25.606V23.2434H76.3061H76.8985H77.0824C77.5523 23.2434 77.9405 23.4064 78.2265 23.7119C78.5329 24.0174 78.6759 24.4247 78.6759 24.9339C78.6964 25.4227 78.5534 25.83 78.2469 26.1355Z" fill="#303030"/>
</svg>
