<svg width="9" height="11" viewBox="0 0 9 11" fill="none" xmlns="http://www.w3.org/2000/svg">
<path d="M5.2258 6.68669H2.75252V7.92793H6.58211V8.96897H2.75252V10.8108H1.31642V8.96897H0V7.92793H1.31642V6.68669H0V5.36537H1.31642V0H5.2258C6.1433 0 6.94113 0.32032 7.61929 1.001C8.29745 1.68168 8.61658 2.44244 8.61658 3.36336C8.61658 4.28428 8.29745 5.08508 7.61929 5.72573C6.94113 6.36637 6.18319 6.68669 5.2258 6.68669ZM2.75252 1.36136V5.40541H5.2258C5.74439 5.40541 6.22308 5.2052 6.622 4.8048C7.02092 4.4044 7.22037 3.92392 7.22037 3.36336C7.22037 2.8028 7.02092 2.32232 6.66189 1.92192C6.26298 1.52152 5.82417 1.32132 5.26569 1.32132H2.75252V1.36136Z" fill="#585858"/>
</svg>
