<svg width="121" height="121" viewBox="0 0 121 121" fill="none" xmlns="http://www.w3.org/2000/svg">
<g clip-path="url(#clip0_3166_51526)">
<path fill-rule="evenodd" clip-rule="evenodd" d="M29.4358 64.3071C15.4285 67.1528 6.2627 71.8836 6.2627 77.2426C6.2627 80.0021 7.38762 86.0502 12.9521 84.8437C19.734 81.2588 31.1668 78.5238 44.8783 77.3412C44.1257 73.524 41.7429 70.7926 38.8522 68.13C36.741 66.1853 35.0556 64.7251 29.4358 64.3071Z" fill="#306694"/>
<path fill-rule="evenodd" clip-rule="evenodd" d="M91.0833 64.3071C87.2582 69.9495 76.4108 66.8874 75.6406 77.3414C89.3524 78.524 100.785 81.259 107.567 84.8439C113.366 85.2235 114.263 80.0023 114.263 77.2426C114.263 71.8836 105.091 67.1528 91.0833 64.3071V64.3071Z" fill="#306694"/>
<path fill-rule="evenodd" clip-rule="evenodd" d="M107.567 84.8443C104.031 86.717 99.2385 88.3492 93.516 89.6551C92.4503 89.9014 92.3271 90.5052 92.3271 91.5277V104.242C92.3271 104.722 92.4195 105.03 92.9739 104.907C105.91 102.03 114.262 97.4842 114.262 92.3715V77.2429C114.262 80.0027 111.835 82.5897 107.567 84.8443V84.8443Z" fill="#83BCDC"/>
<path fill-rule="evenodd" clip-rule="evenodd" d="M60.2594 92.9998C39.889 92.9998 22.1488 89.7043 12.9521 84.8441C8.68974 82.5897 6.2627 80.0027 6.2627 77.2429V92.3715C6.2627 101.075 30.4399 108.128 60.2594 108.128V113.974C60.2594 114.066 60.2655 114.146 60.278 114.22H61.1957L79.0345 101.334C79.7797 100.958 79.7797 100.164 79.0345 99.7879L60.9802 86.7537C60.4566 86.4888 60.2594 86.5443 60.2594 87.1541V92.9998Z" fill="#83BCDC"/>
<g filter="url(#filter0_d_3166_51526)">
<path fill-rule="evenodd" clip-rule="evenodd" d="M60.2595 6.22021C39.7043 6.22021 23.042 22.8825 23.042 43.4379C23.042 51.1684 25.4011 58.3507 29.4359 64.3074C33.2674 69.9497 38.6079 74.4897 44.8786 77.3416C49.5663 79.4729 54.7775 80.6557 60.2597 80.6557C65.7481 80.6557 70.9532 79.4731 75.6408 77.3416C81.9116 74.4897 87.2582 69.9499 91.0835 64.3074C95.1244 58.3509 97.4774 51.1684 97.4774 43.4379C97.477 22.8825 80.8149 6.22021 60.2595 6.22021V6.22021Z" fill="white"/>
</g>
<path fill-rule="evenodd" clip-rule="evenodd" d="M109.051 84.0064V96.2214C109.051 97.5334 108.497 98.8084 107.462 100.028C111.792 97.7614 114.262 95.1496 114.262 92.3715V77.2429C114.262 79.6638 112.39 81.9551 109.051 84.0064Z" fill="#69B1DA"/>
<path fill-rule="evenodd" clip-rule="evenodd" d="M60.2592 6.22021C58.596 6.22021 56.9513 6.33104 55.3438 6.54046C73.7185 8.81951 87.9352 24.4841 87.9352 43.4748C87.9352 62.3669 73.8661 77.9699 55.6332 80.372C57.1485 80.563 58.6945 80.6553 60.2592 80.6553C65.7476 80.6553 70.9527 79.4727 75.6403 77.3412C81.9111 74.4892 87.2577 69.9495 91.083 64.3069C95.1239 58.3505 97.4769 51.168 97.4769 43.4374C97.4767 22.8825 80.8146 6.22021 60.2592 6.22021V6.22021Z" fill="#F5FAFF"/>
<path d="M43.9474 41.933C45.5258 42.1905 46.7353 42.7829 47.576 43.71C48.4166 44.62 48.8369 45.7532 48.8369 47.1096C48.8369 48.157 48.5624 49.1271 48.0134 50.0199C47.4644 50.8955 46.6238 51.5995 45.4915 52.1317C44.3763 52.664 43.0038 52.9301 41.374 52.9301C40.1044 52.9301 38.852 52.767 37.6168 52.4408C36.3987 52.0974 35.3607 51.6167 34.5029 50.9985L36.1242 47.805C36.8104 48.3201 37.5996 48.7236 38.4917 49.0155C39.401 49.2902 40.3275 49.4275 41.2711 49.4275C42.3176 49.4275 43.1411 49.2301 43.7415 48.8352C44.342 48.4231 44.6422 47.8479 44.6422 47.1096C44.6422 45.633 43.5185 44.8948 41.2711 44.8948H39.3667V42.139L43.0725 37.9411H35.4036V34.593H48.0134V37.2972L43.9474 41.933Z" fill="#474748"/>
<path d="M59.4342 41.3149C60.5837 41.3149 61.6302 41.5467 62.5738 42.0103C63.5174 42.4738 64.2637 43.1349 64.8127 43.9933C65.3617 44.8347 65.6362 45.8133 65.6362 46.9293C65.6362 48.1312 65.336 49.1872 64.7355 50.0971C64.135 51.0071 63.3116 51.7111 62.265 52.209C61.2357 52.6898 60.0862 52.9301 58.8166 52.9301C56.2947 52.9301 54.3217 52.1575 52.8977 50.6122C51.4738 49.067 50.7618 46.8607 50.7618 43.9933C50.7618 41.9502 51.1478 40.1989 51.9198 38.7394C52.6919 37.28 53.7641 36.1726 55.1366 35.4171C56.5263 34.6617 58.1304 34.2839 59.9489 34.2839C60.9097 34.2839 61.8275 34.3955 62.7025 34.6187C63.5946 34.8248 64.3495 35.1252 64.9671 35.5201L63.4231 38.5849C62.5309 37.984 61.4072 37.6835 60.0519 37.6835C58.525 37.6835 57.3155 38.1299 56.4233 39.0227C55.5312 39.9156 55.0508 41.2119 54.9822 42.9117C56.0459 41.8471 57.5299 41.3149 59.4342 41.3149ZM58.585 49.8138C59.4771 49.8138 60.1977 49.5735 60.7467 49.0927C61.3129 48.612 61.5959 47.9595 61.5959 47.1354C61.5959 46.3112 61.3129 45.6588 60.7467 45.178C60.1977 44.6801 59.46 44.4312 58.5335 44.4312C57.6243 44.4312 56.878 44.6887 56.2947 45.2038C55.7114 45.7017 55.4197 46.3456 55.4197 47.1354C55.4197 47.9252 55.7028 48.569 56.2689 49.067C56.8351 49.5649 57.6071 49.8138 58.585 49.8138Z" fill="#474748"/>
<path d="M74.8676 52.9301C73.375 52.9301 72.0454 52.561 70.8788 51.8227C69.7122 51.0844 68.7943 50.0199 68.1252 48.6291C67.4733 47.2212 67.1473 45.5472 67.1473 43.607C67.1473 41.6669 67.4733 40.0014 68.1252 38.6107C68.7943 37.2028 69.7122 36.1297 70.8788 35.3914C72.0454 34.6531 73.375 34.2839 74.8676 34.2839C76.3602 34.2839 77.6898 34.6531 78.8564 35.3914C80.023 36.1297 80.9323 37.2028 81.5842 38.6107C82.2533 40.0014 82.5879 41.6669 82.5879 43.607C82.5879 45.5472 82.2533 47.2212 81.5842 48.6291C80.9323 50.0199 80.023 51.0844 78.8564 51.8227C77.6898 52.561 76.3602 52.9301 74.8676 52.9301ZM74.8676 49.4018C75.9656 49.4018 76.8234 48.9296 77.441 47.9853C78.0758 47.041 78.3932 45.5815 78.3932 43.607C78.3932 41.6325 78.0758 40.1731 77.441 39.2288C76.8234 38.2845 75.9656 37.8123 74.8676 37.8123C73.7868 37.8123 72.9289 38.2845 72.2942 39.2288C71.6765 40.1731 71.3677 41.6325 71.3677 43.607C71.3677 45.5815 71.6765 47.041 72.2942 47.9853C72.9289 48.9296 73.7868 49.4018 74.8676 49.4018Z" fill="#474748"/>
<path d="M83.2507 31.7C82.613 32.3381 82.613 33.373 83.2507 34.0113C83.5696 34.3305 83.9877 34.4901 84.4056 34.4901C84.8235 34.4901 85.2415 34.3305 85.5605 34.0113L85.5666 34.0052C86.2042 33.3671 86.2011 32.3352 85.5634 31.697C84.9256 31.0584 83.8888 31.0618 83.2507 31.7V31.7Z" fill="#474748"/>
</g>
<defs>
<filter id="filter0_d_3166_51526" x="-0.958008" y="-17.7798" width="122.436" height="122.436" filterUnits="userSpaceOnUse" color-interpolation-filters="sRGB">
<feFlood flood-opacity="0" result="BackgroundImageFix"/>
<feColorMatrix in="SourceAlpha" type="matrix" values="0 0 0 0 0 0 0 0 0 0 0 0 0 0 0 0 0 0 127 0" result="hardAlpha"/>
<feOffset/>
<feGaussianBlur stdDeviation="12"/>
<feColorMatrix type="matrix" values="0 0 0 0 0.702778 0 0 0 0 0.839667 0 0 0 0 0.916667 0 0 0 0.25 0"/>
<feBlend mode="normal" in2="BackgroundImageFix" result="effect1_dropShadow_3166_51526"/>
<feBlend mode="normal" in="SourceGraphic" in2="effect1_dropShadow_3166_51526" result="shape"/>
</filter>
<clipPath id="clip0_3166_51526">
<rect width="120" height="120" fill="white" transform="translate(0.262695 0.220215)"/>
</clipPath>
</defs>
</svg>
