<svg width="121" height="121" viewBox="0 0 121 121" fill="none" xmlns="http://www.w3.org/2000/svg">
<path d="M63.7709 53.3511H94.095L102.262 89.4435V91.776H85.9353L78.9329 75.4701L61.4416 116.22L49.7734 112.732L63.7709 53.3511Z" fill="#434343"/>
<path d="M91.7591 61.4967H95.9341L94.0956 53.3511H87.1006V56.8389C87.1006 58.073 87.5912 59.2566 88.4646 60.1299C89.338 61.0032 90.5229 61.4948 91.7591 61.4967V61.4967Z" fill="#30302F"/>
<path d="M70.774 56.8389V53.3511H63.7716L61.8525 61.4967H66.1228C67.3577 61.4929 68.5407 61.0004 69.4126 60.1273C70.2844 59.2542 70.774 58.0717 70.774 56.8389V56.8389Z" fill="#585858"/>
<path d="M78.9336 53.3511V75.4701L81.2702 71.9822V53.3511H78.9336Z" fill="#30302F"/>
<path d="M102.263 91.7759H78.9336V102.254L90.6018 104.579L102.263 94.1011V91.7759Z" fill="#30302F"/>
<path d="M94.0966 48.6934H63.7725V53.3511H94.0966V48.6934Z" fill="#E97522"/>
<path d="M73.1037 48.6934H70.7744V53.3511H73.1037V48.6934Z" fill="#EE7E3B"/>
<path d="M89.4298 48.6934H87.1006V53.3511H89.4298V48.6934Z" fill="#EE7E3B"/>
<path d="M82.6023 48.6934H77.9365V53.3511H82.6023V48.6934Z" fill="#D7E5ED"/>
<path d="M83.7023 33.9742L74.0703 24.3296L64.0209 22.5089C63.4402 22.3964 62.8383 22.5052 62.3339 22.8138C61.8295 23.1224 61.4593 23.6084 61.2961 24.1761C60.2194 28.1319 56.1689 31.0202 51.3492 31.0202C46.5296 31.0202 42.501 28.0515 41.417 24.1687C41.2494 23.6039 40.8783 23.1209 40.3752 22.813C39.872 22.5052 39.2725 22.3942 38.6922 22.5016L28.6281 24.3296L18.9669 33.9742C18.7436 34.197 18.5665 34.4614 18.4457 34.7525C18.3249 35.0436 18.2627 35.3556 18.2627 35.6706C18.2627 35.9857 18.3249 36.2977 18.4457 36.5888C18.5665 36.8799 18.7436 37.1443 18.9669 37.367L24.6581 43.0485C24.8812 43.2714 25.1462 43.4482 25.4377 43.5688C25.7293 43.6894 26.0418 43.7515 26.3575 43.7515C26.6731 43.7515 26.9856 43.6894 27.2772 43.5688C27.5688 43.4482 27.8337 43.2714 28.0568 43.0485L30.8988 40.2041V78.768H62.7098L71.7997 69.7303V40.2041L74.6417 43.0485C74.8648 43.2714 75.1297 43.4482 75.4213 43.5688C75.7128 43.6894 76.0254 43.7515 76.341 43.7515C76.6566 43.7515 76.9691 43.6894 77.2607 43.5688C77.5523 43.4482 77.8172 43.2714 78.0403 43.0485L83.7023 37.367C83.9255 37.1443 84.1026 36.8799 84.2234 36.5888C84.3443 36.2977 84.4064 35.9857 84.4064 35.6706C84.4064 35.3556 84.3443 35.0436 84.2234 34.7525C84.1026 34.4614 83.9255 34.197 83.7023 33.9742Z" fill="#83BCDC"/>
<path d="M62.71 78.7677L71.7999 69.73H64.6583C64.1377 69.73 63.6384 69.9364 63.2703 70.3039C62.9021 70.6714 62.6953 71.1699 62.6953 71.6896L62.71 78.7677Z" fill="#6DB8E8"/>
<path d="M39.0216 24.5709C40.3693 29.3676 45.3354 33.0164 51.327 33.0164C57.3186 33.0164 62.314 29.4481 63.6398 24.5782C63.7554 24.1703 63.9607 23.7932 64.2408 23.4744C64.5208 23.1557 64.8685 22.9033 65.2585 22.7356L63.9987 22.5089C63.418 22.3964 62.8161 22.5052 62.3117 22.8138C61.8073 23.1224 61.4371 23.6084 61.2739 24.1761C60.1972 28.1319 56.1467 31.0202 51.327 31.0202C46.5074 31.0202 42.5008 28.0515 41.4167 24.1687C41.2492 23.6039 40.8781 23.1209 40.3749 22.813C39.8718 22.5052 39.2722 22.3942 38.692 22.5016L37.4248 22.7356C37.8111 22.9034 38.155 23.1553 38.4313 23.4728C38.7075 23.7904 38.9092 24.1656 39.0216 24.5709V24.5709Z" fill="#474748"/>
<path d="M51.3502 60.1366C56.6172 60.1366 60.8869 55.8742 60.8869 50.6163C60.8869 45.3583 56.6172 41.0959 51.3502 41.0959C46.0832 41.0959 41.8135 45.3583 41.8135 50.6163C41.8135 55.8742 46.0832 60.1366 51.3502 60.1366Z" fill="white"/>
<path d="M51.349 57.4315C55.1193 57.4315 58.1756 54.3804 58.1756 50.6166C58.1756 46.8529 55.1193 43.8018 51.349 43.8018C47.5788 43.8018 44.5225 46.8529 44.5225 50.6166C44.5225 54.3804 47.5788 57.4315 51.349 57.4315Z" fill="#ED6E24"/>
<path d="M48.8158 13.9538H42.2822C42.0917 13.9525 41.9033 13.9938 41.7309 14.0748C41.5585 14.1558 41.4065 14.2744 41.286 14.4217C41.164 14.5697 41.0763 14.7428 41.0294 14.9287C40.9826 15.1146 40.9777 15.3086 41.015 15.4966L41.579 18.3264C41.6999 18.9158 42.0226 19.4448 42.4918 19.8225C42.961 20.2001 43.5473 20.4028 44.15 20.3957H47.0139C47.6107 20.3957 48.1891 20.1897 48.651 19.8125C49.1129 19.4353 49.4299 18.9103 49.5483 18.3264L50.1196 15.4966C50.1569 15.3065 50.151 15.1104 50.1024 14.9229C50.0537 14.7354 49.9634 14.5611 49.8383 14.4131C49.7132 14.265 49.5563 14.1469 49.3794 14.0674C49.2024 13.9879 49.0098 13.949 48.8158 13.9538V13.9538Z" fill="#30302F"/>
<path d="M43.3203 13.9099L48.931 19.511L50.1029 14.6484L47.5759 13.983L43.3203 13.9099Z" fill="#4F4F4F"/>
<path d="M60.433 13.9534H53.8994C53.708 13.9528 53.5189 13.9948 53.3458 14.0763C53.1728 14.1577 53.02 14.2766 52.8987 14.4243C52.7774 14.5721 52.6905 14.7449 52.6444 14.9303C52.5983 15.1157 52.5941 15.309 52.6322 15.4962L53.2035 18.326C53.3203 18.9093 53.6359 19.4342 54.0966 19.8115C54.5573 20.1887 55.1347 20.395 55.7305 20.3953H58.6018C59.1973 20.3936 59.774 20.1868 60.2344 19.8098C60.6948 19.4328 61.0107 18.9087 61.1288 18.326L61.7001 15.4962C61.7368 15.3092 61.7316 15.1163 61.685 14.9315C61.6384 14.7467 61.5514 14.5744 61.4304 14.427C61.3093 14.2796 61.1571 14.1607 60.9847 14.0789C60.8123 13.997 60.6239 13.9541 60.433 13.9534V13.9534Z" fill="#30302F"/>
<path d="M55.2441 13.9099L60.8548 19.511L62.0268 14.6484L59.4998 13.983L55.2441 13.9099Z" fill="#4F4F4F"/>
<path d="M52.3222 16.1472C52.0292 15.9749 51.6954 15.884 51.3553 15.884C51.0153 15.884 50.6814 15.9749 50.3885 16.1472C50.3152 16.1961 50.2326 16.2295 50.1459 16.2453C50.0592 16.261 49.9702 16.2589 49.8843 16.239C49.7985 16.2191 49.7177 16.1818 49.6468 16.1294C49.576 16.0771 49.5166 16.0108 49.4725 15.9346C49.4283 15.8585 49.4003 15.7741 49.3901 15.6867C49.3799 15.5993 49.3877 15.5108 49.4132 15.4265C49.4386 15.3423 49.4811 15.2642 49.538 15.1969C49.5948 15.1297 49.6649 15.0749 49.7439 15.0358C50.2321 14.7483 50.7885 14.5967 51.3553 14.5967C51.9221 14.5967 52.4786 14.7483 52.9667 15.0358C53.0457 15.0749 53.1158 15.1297 53.1727 15.1969C53.2295 15.2642 53.272 15.3423 53.2975 15.4265C53.3229 15.5108 53.3308 15.5993 53.3205 15.6867C53.3103 15.7741 53.2823 15.8585 53.2381 15.9346C53.194 16.0108 53.1346 16.0771 53.0638 16.1294C52.993 16.1818 52.9121 16.2191 52.8263 16.239C52.7404 16.2589 52.6514 16.261 52.5647 16.2453C52.478 16.2295 52.3954 16.1961 52.3222 16.1472V16.1472Z" fill="#6E6E6E"/>
<path d="M48.8159 13.3101H42.2823H42.1431L43.8498 5.99805C43.8726 5.90389 43.9163 5.81608 43.9778 5.74117C44.0394 5.66626 44.117 5.60618 44.205 5.56541C44.2931 5.52464 44.3892 5.50423 44.4862 5.50571C44.5832 5.50719 44.6786 5.53051 44.7654 5.57395L45.908 6.14429C46.058 6.2028 46.2246 6.20311 46.3748 6.14517C46.5251 6.08722 46.6481 5.97523 46.7198 5.83123C46.7915 5.68723 46.8065 5.52167 46.762 5.36714C46.7175 5.2126 46.6167 5.08031 46.4793 4.99629L45.3367 4.42595C45.077 4.2956 44.7912 4.22537 44.5006 4.22049C44.2099 4.21561 43.9219 4.2762 43.658 4.39775C43.394 4.51931 43.1609 4.6987 42.976 4.92259C42.7911 5.14648 42.6592 5.40911 42.5899 5.69094L40.583 14.3192C40.3633 14.7155 40.2931 15.1772 40.3852 15.6207L40.9492 18.4505C41.0988 19.1858 41.5 19.8462 42.0841 20.3185C42.6681 20.7908 43.3985 21.0455 44.1501 21.039H47.014C47.7606 21.0387 48.4841 20.7809 49.0621 20.3092C49.6401 19.8375 50.037 19.1809 50.1856 18.4505L50.7423 15.6207C50.7978 15.3382 50.7896 15.0469 50.7182 14.7679C50.6468 14.489 50.514 14.2294 50.3295 14.0081C50.145 13.7868 49.9134 13.6094 49.6516 13.4886C49.3898 13.3679 49.1043 13.3069 48.8159 13.3101V13.3101ZM49.4458 15.3648L48.8818 18.1946C48.794 18.6328 48.5572 19.0271 48.2114 19.311C47.8657 19.5948 47.4324 19.7506 46.9847 19.7521H44.1501C43.7021 19.752 43.268 19.5967 42.922 19.3126C42.576 19.0286 42.3395 18.6334 42.253 18.1946L41.689 15.4014L41.8208 14.8383C41.8816 14.7677 41.9569 14.7109 42.0416 14.6718C42.1262 14.6327 42.2183 14.6122 42.3116 14.6117H48.8452C48.9362 14.6165 49.0251 14.6406 49.1061 14.6823C49.1871 14.7239 49.2584 14.7823 49.3151 14.8534C49.3719 14.9246 49.4129 15.007 49.4354 15.0951C49.4579 15.1833 49.4615 15.2752 49.4458 15.3648V15.3648Z" fill="#6E6E6E"/>
<path d="M62.1305 14.3266L60.1163 5.69103C60.0462 5.40984 59.9136 5.14802 59.7283 4.92497C59.543 4.70192 59.3098 4.52337 59.046 4.40257C58.7821 4.28176 58.4944 4.2218 58.2042 4.22713C57.914 4.23246 57.6287 4.30294 57.3695 4.43335L56.2269 5.00369C56.0835 5.08542 55.977 5.21893 55.9294 5.3767C55.8817 5.53447 55.8965 5.70448 55.9707 5.85168C56.0449 5.99888 56.1729 6.11206 56.3282 6.16788C56.4835 6.22369 56.6543 6.2179 56.8055 6.15169L57.9482 5.58135C58.0341 5.53917 58.1283 5.51641 58.2241 5.51471C58.3199 5.513 58.4148 5.53239 58.5023 5.57148C58.5897 5.61057 58.6674 5.66842 58.7299 5.7409C58.7923 5.81337 58.838 5.89871 58.8637 5.99082L60.5704 13.3029H60.4312H53.8976C53.4827 13.303 53.0789 13.4369 52.7463 13.6846C52.4137 13.9323 52.1701 14.2805 52.0518 14.6776C51.8118 14.6205 51.566 14.5911 51.3193 14.5898V15.8767C51.5703 15.8744 51.8192 15.9216 52.0518 16.0157L52.5352 18.4433C52.6836 19.1724 53.0794 19.8281 53.6559 20.2997C54.2324 20.7712 54.9542 21.0298 55.6995 21.0318H58.5708C59.3161 21.0298 60.0379 20.7712 60.6143 20.2997C61.1908 19.8281 61.5866 19.1724 61.735 18.4433L62.299 15.6135C62.3952 15.1781 62.3356 14.7227 62.1305 14.3266V14.3266ZM60.4971 18.1947C60.4093 18.6328 60.1725 19.0272 59.8268 19.3111C59.481 19.5949 59.0477 19.7507 58.6001 19.7521H55.7288C55.2812 19.7507 54.8478 19.5949 54.5021 19.3111C54.1564 19.0272 53.9195 18.6328 53.8317 18.1947L53.2823 15.4746C53.2858 15.4602 53.2858 15.4451 53.2823 15.4307V15.3649C53.2686 15.2744 53.2747 15.1819 53.3 15.094C53.3254 15.006 53.3695 14.9245 53.4293 14.855C53.4891 14.7856 53.5632 14.7299 53.6466 14.6917C53.7299 14.6535 53.8205 14.6337 53.9123 14.6337H60.4459C60.5393 14.6332 60.6317 14.6533 60.7165 14.6925C60.8013 14.7317 60.8765 14.789 60.9366 14.8604L61.0685 15.4234L60.4971 18.1947Z" fill="#6E6E6E"/>
<path d="M38.0332 99.6441C38.3155 100.114 38.6977 100.516 39.1526 100.822C39.6076 101.128 40.1243 101.331 40.6664 101.416C41.2084 101.501 41.7625 101.466 42.2896 101.314C42.8168 101.162 43.3041 100.897 43.7171 100.536C45.7707 98.6775 47.9223 96.9299 50.1628 95.3007C50.827 94.8398 51.3697 94.2253 51.7447 93.5098C52.1197 92.7943 52.3158 91.9988 52.3163 91.1913C52.3163 90.2261 52.3603 90.9719 48.0533 75.8359C48.039 75.776 48.0125 75.7196 47.9756 75.6702C47.9387 75.6209 47.8921 75.5795 47.8386 75.5487C47.7851 75.5179 47.7259 75.4983 47.6646 75.4911C47.6033 75.4839 47.5412 75.4893 47.482 75.5069L41.7248 77.2106L42.4573 95.213L38.0332 99.6441Z" fill="#C8E2F1"/>
<path d="M43.2696 82.5114L49.4809 80.7492L48.9608 78.9431L42.7422 80.698L43.2696 82.5114Z" fill="#E97522"/>
<path d="M40.7507 75.4922L33.8289 77.5323C33.7145 77.5654 33.6174 77.6414 33.5578 77.7443C33.5343 77.7985 33.5221 77.857 33.5221 77.9161C33.5221 77.9753 33.5343 78.0337 33.5578 78.088L36.6928 89.7873C36.7174 89.8657 36.7201 89.9493 36.7007 90.0292C36.6814 90.109 36.6407 90.1821 36.5829 90.2406L31.8365 95.1617C31.2016 95.8155 30.8339 96.6823 30.8055 97.5925C30.777 98.5026 31.0899 99.3906 31.6827 100.083C32.0042 100.464 32.3987 100.778 32.8433 101.005C33.2878 101.233 33.7734 101.369 34.2715 101.407C34.7696 101.444 35.2701 101.382 35.7438 101.224C36.2174 101.065 36.6546 100.814 37.0297 100.485L40.2892 97.7063C41.2805 96.8678 42.323 96.0732 43.4168 95.3225C44.2746 94.7292 44.925 93.8829 45.277 92.9021C45.629 91.9214 45.665 90.8553 45.3799 89.8531L41.3073 75.8505C41.293 75.7905 41.2665 75.7342 41.2296 75.6848C41.1927 75.6354 41.1461 75.594 41.0926 75.5632C41.0391 75.5324 40.9799 75.5129 40.9186 75.5057C40.8573 75.4985 40.7952 75.5038 40.736 75.5214L40.7507 75.4922Z" fill="#DAF4FF"/>
<path d="M42.75 80.7492L34.8394 82.994L34.3486 81.1806L42.23 78.9431L42.75 80.7492Z" fill="#E97522"/>
</svg>
