<svg width="121" height="121" viewBox="0 0 121 121" fill="none" xmlns="http://www.w3.org/2000/svg">
<path d="M19.9533 46.7585H105.233V102.479C105.233 102.975 105.134 103.466 104.942 103.923C104.75 104.38 104.469 104.795 104.114 105.143C103.76 105.491 103.339 105.766 102.877 105.951C102.415 106.135 101.921 106.227 101.423 106.22H23.6949C22.6965 106.218 21.7387 105.825 21.0278 105.127C20.6778 104.78 20.4 104.367 20.2104 103.913C20.0208 103.458 19.9231 102.971 19.9229 102.479L19.9533 46.7585Z" fill="#E8F0F9"/>
<path d="M99.5797 46.7585V102.479C99.5798 102.975 99.4809 103.466 99.2887 103.923C99.0966 104.38 98.8151 104.795 98.4606 105.143C98.1061 105.491 97.6856 105.766 97.2236 105.951C96.7616 106.135 96.2674 106.227 95.7695 106.22H101.431C101.929 106.227 102.424 106.135 102.886 105.951C103.348 105.766 103.768 105.491 104.123 105.143C104.477 104.795 104.759 104.38 104.951 103.923C105.143 103.466 105.242 102.975 105.242 102.479V46.7585H99.5797Z" fill="#D4DEED"/>
<path d="M105.232 46.7589H19.9522V35.1792C19.9517 34.6882 20.0491 34.2019 20.2388 33.7486C20.4285 33.2953 20.7066 32.884 21.0571 32.5385C21.7668 31.8376 22.7247 31.4424 23.7242 31.4382H101.452C102.454 31.4381 103.415 31.8306 104.128 32.5307C104.841 33.2307 105.248 34.1822 105.263 35.1792L105.232 46.7589Z" fill="#306694"/>
<path d="M101.46 31.4233H95.7979C96.7992 31.4232 97.7603 31.8157 98.4734 32.5158C99.1864 33.2159 99.594 34.1673 99.6081 35.1643V46.7592H105.262V35.1795C105.248 34.1825 104.841 33.231 104.128 32.5309C103.415 31.8309 102.454 31.4384 101.452 31.4385L101.46 31.4233Z" fill="white" fill-opacity="0.24"/>
<path d="M30.5234 97.6149V16.8382C30.5234 16.4937 30.5917 16.1527 30.7243 15.8346C30.8569 15.5164 31.0512 15.2275 31.2962 14.9843C31.5411 14.7411 31.8318 14.5484 32.1517 14.4173C32.4715 14.2862 32.8142 14.2192 33.1601 14.2202H92.0277C92.7263 14.2202 93.3966 14.4955 93.8921 14.9861C94.3875 15.4766 94.6679 16.1425 94.6719 16.8382V97.6149C94.6718 97.9584 94.6045 98.2986 94.4738 98.6165C94.1996 99.257 93.6858 99.7659 93.0412 100.036C92.7192 100.166 92.3751 100.233 92.0277 100.233H33.1601C32.8152 100.232 32.4737 100.165 32.1542 100.036C31.832 99.9048 31.5392 99.7113 31.2931 99.4664C31.0498 99.2221 30.8558 98.9336 30.7216 98.6165C30.5909 98.2986 30.5236 97.9584 30.5234 97.6149V97.6149Z" fill="white"/>
<path d="M92.028 14.2203H88.2559C88.602 14.2174 88.9453 14.283 89.2658 14.4132C89.5863 14.5435 89.8776 14.7358 90.1229 14.9791C90.3686 15.2215 90.5629 15.5105 90.6944 15.829C90.8304 16.1456 90.9004 16.4863 90.9001 16.8307V97.615C90.901 97.9593 90.831 98.3002 90.6944 98.6166C90.4261 99.2584 89.9139 99.7685 89.2694 100.036C88.9474 100.166 88.6033 100.233 88.2559 100.233H92.028C92.3754 100.233 92.7195 100.166 93.0415 100.036C93.6861 99.766 94.1999 99.257 94.4741 98.6166C94.6048 98.2987 94.6721 97.9585 94.6722 97.615V16.8382C94.6682 16.1425 94.3878 15.4767 93.8924 14.9862C93.3969 14.4956 92.7266 14.2203 92.028 14.2203V14.2203Z" fill="#F2F2F2"/>
<path d="M61.2573 88.7516C72.0524 88.7516 80.8036 80.0374 80.8036 69.2878C80.8036 58.5382 72.0524 49.824 61.2573 49.824C50.4621 49.824 41.7109 58.5382 41.7109 69.2878C41.7109 80.0374 50.4621 88.7516 61.2573 88.7516Z" fill="#E97522"/>
<path d="M61.7045 49.7449C60.6324 49.746 59.5622 49.8323 58.5039 50.0029C63.0669 50.7613 67.2119 53.1067 70.2017 56.6219C73.1914 60.1372 74.8322 64.5945 74.8322 69.2011C74.8322 73.8077 73.1914 78.265 70.2017 81.7803C67.2119 85.2956 63.0669 87.6409 58.5039 88.3993C59.5615 88.5763 60.6321 88.6651 61.7045 88.6649C66.8206 88.5643 71.6932 86.4699 75.2757 82.8314C78.8581 79.1928 80.8649 74.3005 80.8649 69.2049C80.8649 64.1093 78.8581 59.217 75.2757 55.5785C71.6932 51.9399 66.8206 49.8455 61.7045 49.7449V49.7449Z" fill="white" fill-opacity="0.26"/>
<path d="M77.7854 33.7146H44.7205C44.3688 33.7146 44.0316 33.5755 43.7829 33.3279C43.5342 33.0803 43.3945 32.7444 43.3945 32.3943V29.9129C43.3945 29.562 43.534 29.2254 43.7824 28.9766C44.0309 28.7278 44.3681 28.587 44.7205 28.585H77.7854C78.1391 28.585 78.4783 28.7249 78.7284 28.9739C78.9785 29.2229 79.119 29.5607 79.119 29.9129V32.3943C79.119 32.5683 79.0844 32.7406 79.0173 32.9013C78.9502 33.062 78.8518 33.2079 78.7279 33.3306C78.604 33.4533 78.4569 33.5504 78.2951 33.6163C78.1334 33.6822 77.9601 33.7156 77.7854 33.7146V33.7146Z" fill="#6E6E6E"/>
<path d="M77.5478 28.585H74.3701C75.2388 28.585 75.9399 29.0934 75.9399 29.7156V32.5915C75.9399 33.2138 75.2388 33.7146 74.3701 33.7146H77.5478C78.4165 33.7146 79.1176 33.2138 79.1176 32.5915V29.7156C79.1176 29.1085 78.4165 28.585 77.5478 28.585Z" fill="#30302F"/>
<path d="M74.1185 49.8622C73.9085 49.8635 73.7024 49.8056 73.5241 49.6952C73.3953 49.6181 73.2832 49.5164 73.1942 49.3958C73.1052 49.2752 73.0411 49.1383 73.0057 48.9929C72.9702 48.8475 72.9641 48.6965 72.9877 48.5488C73.0113 48.401 73.0641 48.2593 73.143 48.132L74.5681 45.8025C74.6694 45.6353 74.8125 45.4971 74.9835 45.4013C75.1544 45.3056 75.3473 45.2555 75.5435 45.2561H86.0139C86.3171 45.2561 86.6078 45.376 86.8222 45.5895C87.0366 45.8029 87.157 46.0925 87.157 46.3943C87.157 46.6962 87.0366 46.9857 86.8222 47.1992C86.6078 47.4127 86.3171 47.5326 86.0139 47.5326H76.1912L75.0939 49.3234C74.992 49.4901 74.8487 49.6279 74.6779 49.7236C74.5071 49.8193 74.3144 49.8696 74.1185 49.8698V49.8622Z" fill="#83BCDC"/>
<path d="M46.9605 93.3355H36.4977C36.3365 93.3541 36.1732 93.3385 36.0185 93.2898C35.8638 93.2411 35.7212 93.1603 35.6 93.0528C35.4789 92.9453 35.3819 92.8135 35.3155 92.6661C35.2492 92.5186 35.2148 92.3589 35.2148 92.1973C35.2148 92.0357 35.2492 91.876 35.3155 91.7285C35.3819 91.5811 35.4789 91.4493 35.6 91.3418C35.7212 91.2343 35.8638 91.1536 36.0185 91.1048C36.1732 91.0561 36.3365 91.0405 36.4977 91.0591H46.3204L47.4101 89.2758C47.5678 89.0172 47.8221 88.8316 48.1172 88.7597C48.4123 88.6878 48.724 88.7357 48.9837 88.8926C49.2434 89.0496 49.4299 89.3029 49.5021 89.5968C49.5742 89.8906 49.5262 90.201 49.3686 90.4596L47.9359 92.7968C47.8351 92.9645 47.6922 93.1031 47.5211 93.1989C47.35 93.2947 47.1568 93.3444 46.9605 93.3431V93.3355Z" fill="#E97522"/>
<path d="M48.394 49.8617C48.1968 49.8621 48.0029 49.8121 47.8308 49.7164C47.6586 49.6208 47.5141 49.4826 47.4109 49.3154L46.3212 47.5245H36.4985C36.1954 47.5245 35.9046 47.4046 35.6903 47.1912C35.4759 46.9777 35.3555 46.6882 35.3555 46.3863C35.3555 46.0844 35.4759 45.7949 35.6903 45.5815C35.9046 45.368 36.1954 45.2481 36.4985 45.2481H46.9613C47.1576 45.2467 47.3508 45.2965 47.5219 45.3923C47.693 45.4881 47.836 45.6267 47.9367 45.7944L49.3694 48.1316C49.4748 48.3041 49.5323 48.5015 49.5359 48.7034C49.5395 48.9053 49.489 49.1046 49.3898 49.2807C49.2905 49.4568 49.1459 49.6034 48.9709 49.7055C48.7959 49.8076 48.5968 49.8615 48.394 49.8617V49.8617Z" fill="#208DBE"/>
<path d="M86.0141 93.3354H75.5436C75.3475 93.3359 75.1546 93.2859 74.9836 93.1902C74.8127 93.0944 74.6696 92.9562 74.5682 92.789L73.1432 90.4518C73.0583 90.3242 73.0001 90.1808 72.9722 90.0303C72.9442 89.8798 72.9471 89.7252 72.9805 89.5757C73.0139 89.4263 73.0773 89.2851 73.1668 89.1607C73.2563 89.0362 73.3701 88.931 73.5014 88.8513C73.6327 88.7717 73.7787 88.7192 73.9308 88.697C74.083 88.6749 74.238 88.6835 74.3867 88.7224C74.5354 88.7613 74.6747 88.8297 74.7962 88.9235C74.9177 89.0172 75.019 89.1344 75.094 89.2681L76.1914 91.0513H86.0141C86.2945 91.0836 86.5532 91.2174 86.741 91.4273C86.9288 91.6372 87.0325 91.9085 87.0325 92.1895C87.0325 92.4706 86.9288 92.7419 86.741 92.9518C86.5532 93.1617 86.2945 93.2955 86.0141 93.3278V93.3354Z" fill="#208DBE"/>
<path d="M86.0133 52.1844H81.0448C80.7644 52.1521 80.5057 52.0183 80.3179 51.8084C80.1301 51.5986 80.0264 51.3273 80.0264 51.0462C80.0264 50.7651 80.1301 50.4938 80.3179 50.2839C80.5057 50.0741 80.7644 49.9403 81.0448 49.908H86.0133C86.2938 49.9403 86.5525 50.0741 86.7403 50.2839C86.928 50.4938 87.0318 50.7651 87.0318 51.0462C87.0318 51.3273 86.928 51.5986 86.7403 51.8084C86.5525 52.0183 86.2938 52.1521 86.0133 52.1844V52.1844Z" fill="#83BCDC"/>
<path d="M41.4891 52.1844H36.4977C36.3365 52.203 36.1732 52.1874 36.0185 52.1387C35.8638 52.09 35.7212 52.0092 35.6 51.9017C35.4789 51.7942 35.3819 51.6624 35.3155 51.515C35.2492 51.3675 35.2148 51.2078 35.2148 51.0462C35.2148 50.8846 35.2492 50.7249 35.3155 50.5774C35.3819 50.43 35.4789 50.2982 35.6 50.1907C35.7212 50.0832 35.8638 50.0025 36.0185 49.9537C36.1732 49.905 36.3365 49.8894 36.4977 49.908H41.4891C41.7695 49.9403 42.0282 50.0741 42.216 50.284C42.4038 50.4938 42.5075 50.7651 42.5075 51.0462C42.5075 51.3273 42.4038 51.5986 42.216 51.8085C42.0282 52.0183 41.7695 52.1521 41.4891 52.1844V52.1844Z" fill="#208DBE"/>
<path d="M86.0158 88.6759H81.0474C80.7442 88.6759 80.4534 88.556 80.2391 88.3425C80.0247 88.129 79.9043 87.8395 79.9043 87.5377C79.9043 87.2358 80.0247 86.9463 80.2391 86.7328C80.4534 86.5193 80.7442 86.3994 81.0474 86.3994H86.0158C86.319 86.3994 86.6097 86.5193 86.8241 86.7328C87.0385 86.9463 87.1589 87.2358 87.1589 87.5377C87.1589 87.8395 87.0385 88.129 86.8241 88.3425C86.6097 88.556 86.319 88.6759 86.0158 88.6759Z" fill="#208DBE"/>
<path d="M41.4899 88.6759H36.4985C36.1954 88.6759 35.9046 88.556 35.6903 88.3425C35.4759 88.129 35.3555 87.8395 35.3555 87.5377C35.3555 87.2358 35.4759 86.9463 35.6903 86.7328C35.9046 86.5193 36.1954 86.3994 36.4985 86.3994H41.4899C41.793 86.3994 42.0838 86.5193 42.2982 86.7328C42.5125 86.9463 42.633 87.2358 42.633 87.5377C42.633 87.8395 42.5125 88.129 42.2982 88.3425C42.0838 88.556 41.793 88.6759 41.4899 88.6759Z" fill="#E97522"/>
<path d="M73.1208 39.504H49.3833C49.0801 39.504 48.7894 39.3841 48.575 39.1706C48.3607 38.9572 48.2402 38.6677 48.2402 38.3658C48.2402 38.0639 48.3607 37.7744 48.575 37.5609C48.7894 37.3475 49.0801 37.2275 49.3833 37.2275H73.1208C73.424 37.2275 73.7147 37.3475 73.9291 37.5609C74.1435 37.7744 74.2639 38.0639 74.2639 38.3658C74.2639 38.6677 74.1435 38.9572 73.9291 39.1706C73.7147 39.3841 73.424 39.504 73.1208 39.504V39.504Z" fill="#585858"/>
<path d="M67.0157 44.3377H55.4936C55.1905 44.3377 54.8997 44.2178 54.6854 44.0044C54.471 43.7909 54.3506 43.5014 54.3506 43.1995C54.3506 42.8976 54.471 42.6081 54.6854 42.3947C54.8997 42.1812 55.1905 42.0613 55.4936 42.0613H67.0157C67.3188 42.0613 67.6096 42.1812 67.8239 42.3947C68.0383 42.6081 68.1587 42.8976 68.1587 43.1995C68.1587 43.5014 68.0383 43.7909 67.8239 44.0044C67.6096 44.2178 67.3188 44.3377 67.0157 44.3377Z" fill="#585858"/>
<path d="M51.0738 22.5299L50.8909 21.5207L51.6529 20.7618C51.6999 20.7157 51.7341 20.6582 51.752 20.5949C51.7711 20.5305 51.7711 20.462 51.752 20.3976C51.7283 20.3356 51.6889 20.2807 51.6377 20.2383C51.5899 20.1934 51.5279 20.1666 51.4624 20.1624L50.4032 20.003L49.9231 19.0545C49.8948 18.995 49.8498 18.9449 49.7936 18.9103C49.7368 18.8732 49.6709 18.8522 49.6031 18.8496C49.5348 18.8501 49.4684 18.8713 49.4126 18.9103C49.3522 18.9422 49.3041 18.9928 49.2754 19.0545L48.8106 20.003L47.7589 20.1624C47.6916 20.1683 47.6277 20.1948 47.5761 20.2383C47.5295 20.2832 47.4932 20.3376 47.4694 20.3976C47.4503 20.462 47.4503 20.5305 47.4694 20.5949C47.4883 20.6614 47.5284 20.72 47.5837 20.7618L48.3457 21.5207L48.1628 22.5603C48.1473 22.6226 48.1473 22.6877 48.1628 22.75C48.1873 22.8136 48.2296 22.8689 48.2847 22.9093C48.3378 22.9482 48.4018 22.9695 48.4676 22.97C48.5297 22.9888 48.596 22.9888 48.6581 22.97L49.6031 22.4844L50.5404 22.97C50.5992 23.0073 50.6692 23.0234 50.7385 23.0156C50.8066 23.0142 50.8728 22.9931 50.929 22.9548C50.9858 22.9162 51.0286 22.8603 51.0509 22.7955C51.07 22.7311 51.07 22.6626 51.0509 22.5982L51.0738 22.5299Z" fill="#E97522"/>
<path d="M57.1865 20.1548L56.1349 20.003L55.6548 19.0545C55.6313 18.9919 55.5851 18.9404 55.5252 18.9103C55.4694 18.8713 55.4029 18.8501 55.3347 18.8496C55.2666 18.851 55.2004 18.8721 55.1442 18.9103C55.088 18.9449 55.043 18.995 55.0147 19.0545L54.5422 20.003L53.4906 20.1624C53.4259 20.1698 53.3649 20.1962 53.3153 20.2383C53.2638 20.2789 53.2265 20.3346 53.2086 20.3976C53.1896 20.462 53.1896 20.5305 53.2086 20.5949C53.2234 20.6594 53.2581 20.7178 53.3077 20.7618L54.0697 21.5207L53.8945 22.5603C53.8751 22.622 53.8751 22.6882 53.8945 22.75C53.9218 22.812 53.9636 22.8666 54.0164 22.9093C54.0722 22.9484 54.1387 22.9696 54.2069 22.97C54.2691 22.9879 54.3352 22.9879 54.3974 22.97L55.3347 22.4844L56.2796 22.97C56.3417 22.9893 56.4081 22.9893 56.4702 22.97C56.5359 22.9685 56.5996 22.9474 56.653 22.9093C56.7059 22.8666 56.7477 22.812 56.775 22.75C56.7905 22.6877 56.7905 22.6225 56.775 22.5603L56.6149 21.5207L57.377 20.7618C57.424 20.7157 57.4581 20.6582 57.476 20.5949C57.4951 20.5305 57.4951 20.462 57.476 20.3976C57.4523 20.3356 57.4129 20.2807 57.3617 20.2383C57.313 20.1949 57.2515 20.1683 57.1865 20.1624V20.1548Z" fill="#E97522"/>
<path d="M62.9244 20.154L61.8727 20.0022L61.3927 19.0537C61.3637 18.9939 61.3182 18.9436 61.2615 18.9086C61.2048 18.8737 61.1393 18.8556 61.0726 18.8564C61.0051 18.8541 60.9386 18.8727 60.8821 18.9095C60.8259 18.9441 60.7809 18.9942 60.7526 19.0537L60.2725 20.0022L59.2209 20.1616C59.1535 20.1675 59.0896 20.194 59.038 20.2374C58.9915 20.2824 58.9551 20.3367 58.9313 20.3968C58.9122 20.4612 58.9122 20.5297 58.9313 20.5941C58.9448 20.6558 58.9736 20.7132 59.0151 20.761L59.7771 21.5199L59.5943 22.5594C59.5715 22.6206 59.5715 22.6879 59.5943 22.7491C59.6161 22.8142 59.659 22.8702 59.7162 22.9085C59.7692 22.9474 59.8332 22.9687 59.8991 22.9692C59.9612 22.988 60.0275 22.988 60.0896 22.9692L61.0269 22.4836L61.9718 22.9692C62.0338 22.9885 62.1003 22.9885 62.1623 22.9692C62.2282 22.9687 62.2922 22.9474 62.3452 22.9085C62.4003 22.8681 62.4426 22.8128 62.4671 22.7491C62.4826 22.6869 62.4826 22.6217 62.4671 22.5594L62.3452 21.5199L63.1073 20.761C63.1569 20.717 63.1915 20.6586 63.2063 20.5941C63.2254 20.5297 63.2254 20.4612 63.2063 20.3968C63.1825 20.3367 63.1461 20.2824 63.0996 20.2374C63.048 20.194 62.9841 20.1675 62.9167 20.1616L62.9244 20.154Z" fill="#E97522"/>
<path d="M68.6562 20.1545L67.6046 20.0028L67.1398 19.0542C67.1099 18.9951 67.0642 18.9455 67.0077 18.9108C66.9512 18.876 66.8861 18.8577 66.8197 18.8577C66.7533 18.8577 66.6882 18.876 66.6317 18.9108C66.5752 18.9455 66.5294 18.9951 66.4996 19.0542L66.0195 20.0028L64.9679 20.1621C64.9006 20.168 64.8367 20.1945 64.785 20.238C64.7385 20.283 64.7022 20.3373 64.6784 20.3974C64.6593 20.4618 64.6593 20.5303 64.6784 20.5946C64.6963 20.6579 64.7304 20.7154 64.7774 20.7616L65.5395 21.5204L65.3566 22.56C65.3411 22.6223 65.3411 22.6874 65.3566 22.7497C65.3833 22.8121 65.4252 22.8668 65.4785 22.9091C65.5315 22.948 65.5955 22.9692 65.6614 22.9698C65.7234 22.989 65.7899 22.989 65.8519 22.9698L66.7892 22.4841L67.7341 22.9698C67.7962 22.9886 67.8626 22.9886 67.9247 22.9698C67.9905 22.9692 68.0545 22.948 68.1075 22.9091C68.1626 22.8686 68.2049 22.8133 68.2295 22.7497C68.245 22.6874 68.245 22.6223 68.2295 22.56L68.0923 21.5204L68.8543 20.7616C68.904 20.7175 68.9386 20.6592 68.9534 20.5946C68.9725 20.5303 68.9725 20.4618 68.9534 20.3974C68.9296 20.3373 68.8932 20.283 68.8467 20.238C68.7951 20.1945 68.7312 20.168 68.6638 20.1621L68.6562 20.1545Z" fill="#E97522"/>
<path d="M74.3935 20.154L73.3419 20.0022L72.877 19.0537C72.8484 18.992 72.8002 18.9413 72.7399 18.9095C72.6834 18.8727 72.6168 18.8541 72.5494 18.8564C72.4844 18.8552 72.4206 18.8737 72.3665 18.9095C72.3062 18.9413 72.258 18.992 72.2293 19.0537L71.7492 20.0022L70.7052 20.1616C70.6379 20.1675 70.574 20.194 70.5223 20.2374C70.4708 20.2781 70.4335 20.3338 70.4157 20.3968C70.3966 20.4612 70.3966 20.5297 70.4157 20.5941C70.4308 20.6568 70.4623 20.7144 70.5071 20.761L71.2691 21.5199L71.0862 22.5594C71.0708 22.6217 71.0708 22.6869 71.0862 22.7491C71.1155 22.81 71.157 22.8642 71.2082 22.9085C71.2644 22.9467 71.3306 22.9678 71.3987 22.9692C71.4609 22.9871 71.527 22.9871 71.5892 22.9692L72.5265 22.4836L73.4638 22.9692C73.5285 22.9878 73.5972 22.9878 73.6619 22.9692C73.7276 22.9677 73.7913 22.9465 73.8448 22.9085C73.8976 22.8658 73.9394 22.8112 73.9667 22.7491C73.9822 22.6869 73.9822 22.6217 73.9667 22.5594L73.822 21.5199L74.584 20.761C74.631 20.7149 74.6651 20.6573 74.6831 20.5941C74.6983 20.5292 74.6983 20.4617 74.6831 20.3968C74.6593 20.3348 74.6199 20.2799 74.5688 20.2374C74.5192 20.1954 74.4582 20.1689 74.3935 20.1616V20.154Z" fill="#E97522"/>
<path d="M11.478 44.4823C14.1604 50.5529 22.558 69.6297 24.2498 76.1252C24.3447 76.8596 24.6428 77.5532 25.1109 78.1285C27.4521 80.776 30.4197 82.7999 33.7448 84.017C33.9393 84.0786 34.1444 84.1006 34.3476 84.0818C34.5509 84.063 34.7483 84.0037 34.9282 83.9074C35.108 83.8111 35.2666 83.6799 35.3945 83.5214C35.5224 83.363 35.617 83.1805 35.6727 82.985C36.5424 79.5635 36.5424 75.9802 35.6727 72.5587C35.5416 72.0477 35.2789 71.5796 34.9107 71.2004C30.7576 66.8448 18.6793 47.51 15.4558 42.3652C15.1271 41.9394 14.6578 41.6432 14.131 41.5287C13.6041 41.4142 13.0535 41.4888 12.5766 41.7395C12.0996 41.9901 11.727 42.4006 11.5246 42.8983C11.3222 43.3961 11.303 43.949 11.4704 44.4595L11.478 44.4823Z" fill="#30302F"/>
<path d="M15.9886 47.8592C18.3433 53.2393 24.9578 68.5675 26.36 73.8793C26.3965 74.0186 26.3898 74.1656 26.3409 74.301C26.2919 74.4365 26.2029 74.554 26.0857 74.6381C25.4445 75.1082 24.8313 75.6149 24.2491 76.1558C22.786 70.5101 16.4459 55.7586 13.291 48.5574C13.8321 48.1855 14.4036 47.8365 14.9827 47.5178C15.0703 47.4693 15.167 47.4397 15.2668 47.4308C15.3665 47.4219 15.467 47.434 15.5618 47.4661C15.6566 47.4983 15.7436 47.5499 15.8171 47.6176C15.8906 47.6853 15.949 47.7677 15.9886 47.8592V47.8592Z" fill="#6E6E6E"/>
<path d="M35.2949 81.9602C35.457 82.0316 35.5891 82.157 35.6684 82.3149C35.7477 82.4728 35.7692 82.6533 35.7292 82.8253C35.7079 82.8849 35.6901 82.9457 35.6759 83.0074C35.6177 83.2009 35.5213 83.3809 35.3924 83.5369C35.2634 83.6928 35.1045 83.8216 34.925 83.9156C34.7454 84.0096 34.5488 84.0669 34.3467 84.0843C34.1446 84.1016 33.941 84.0786 33.7479 84.0166C32.5553 83.6133 31.4106 83.0816 30.334 82.4307C30.6077 81.7465 31.0352 81.1338 31.5837 80.6399C31.6987 80.5296 31.8474 80.4608 32.0062 80.4443C32.1649 80.4278 32.3247 80.4646 32.4601 80.5488C33.3624 81.0996 34.3109 81.5718 35.2949 81.9602Z" fill="#6E6E6E"/>
<path d="M26.7669 67.7477C26.6932 67.847 26.5964 67.9269 26.4847 67.9805C26.3731 68.0341 26.25 68.0598 26.1261 68.0553C26.0022 68.0508 25.8813 68.0163 25.7739 67.9548C25.6664 67.8932 25.5757 67.8065 25.5095 67.7022L23.4749 63.8625C23.3883 63.7793 23.3227 63.6768 23.2836 63.5634C23.2445 63.4501 23.2328 63.3292 23.2497 63.2105C23.2665 63.0918 23.3114 62.9788 23.3805 62.8807C23.4496 62.7826 23.5411 62.7022 23.6475 62.6461C23.7538 62.59 23.872 62.5598 23.9924 62.558C24.1127 62.5561 24.2318 62.5826 24.3398 62.6354C24.4479 62.6882 24.5419 62.7657 24.614 62.8616C24.6862 62.9575 24.7345 63.0691 24.7551 63.1872L26.7973 67.0496C26.8642 67.1649 26.8994 67.2958 26.8994 67.429C26.8994 67.5622 26.8642 67.693 26.7973 67.8084L26.7669 67.7477Z" fill="white"/>
<path d="M23.2009 60.9791C23.1273 61.0784 23.0305 61.1584 22.9188 61.212C22.8071 61.2656 22.684 61.2912 22.5602 61.2867C22.4363 61.2823 22.3154 61.2478 22.2079 61.1862C22.1005 61.1247 22.0097 61.038 21.9436 60.9336L21.5016 60.0913C21.4891 59.9403 21.5224 59.7891 21.597 59.6571C21.6716 59.5251 21.7842 59.4184 21.9203 59.3506C22.0563 59.2829 22.2096 59.2572 22.3605 59.277C22.5113 59.2968 22.6527 59.361 22.7666 59.4615L23.2085 60.3038C23.282 60.4168 23.3211 60.5486 23.3211 60.6832C23.3211 60.8178 23.282 60.9496 23.2085 61.0626L23.2009 60.9791Z" fill="white"/>
<path d="M34.4852 70.7524C35.0432 71.2384 35.4503 71.8728 35.6587 72.5812C36.1971 74.7796 36.4077 77.0449 36.2836 79.3044C35.0819 79.0655 33.8342 79.2459 32.7503 79.8152C31.6665 80.3846 30.8125 81.3082 30.3321 82.4307C28.3883 81.2611 26.6292 79.8112 25.1121 78.1282C24.7614 77.7356 24.5175 77.2601 24.4034 76.7471C24.4034 76.5574 24.3119 76.3526 24.251 76.1249C27.1504 73.4999 30.6719 71.6513 34.4852 70.7524V70.7524Z" fill="#208DBE"/>
<path d="M25.5998 74.9869C25.6923 74.9225 25.798 74.8793 25.9093 74.8605C26.0206 74.8417 26.1347 74.8478 26.2433 74.8783C26.352 74.9088 26.4525 74.963 26.5376 75.0369C26.6226 75.1108 26.6901 75.2025 26.7352 75.3056C26.8607 75.6772 27.0632 76.0185 27.3296 76.3072C28.5011 77.5979 29.8121 78.7558 31.2389 79.7599C31.3194 79.8226 31.3864 79.9009 31.4359 79.9899C31.4854 80.079 31.5164 80.1771 31.5271 80.2783C31.5378 80.3796 31.5279 80.4819 31.498 80.5793C31.4681 80.6766 31.4189 80.767 31.3532 80.845C30.9119 81.3021 30.565 81.8409 30.332 82.431C28.3883 81.2613 26.6292 79.8114 25.1121 78.1284C24.7614 77.7358 24.5175 77.2604 24.4034 76.7474C24.4034 76.5577 24.3119 76.3528 24.251 76.1251C24.6777 75.7381 25.1273 75.3663 25.5998 74.9869Z" fill="#83BCDC"/>
<path d="M11.4782 44.4825C11.3108 43.972 11.33 43.419 11.5324 42.9213C11.7348 42.4235 12.1074 42.0131 12.5844 41.7624C13.0613 41.5118 13.6119 41.4371 14.1388 41.5516C14.6657 41.6661 15.1349 41.9624 15.4637 42.3881C15.4637 42.3881 16.3705 43.9057 17.8184 46.1822C16.2261 46.8052 14.7081 47.6017 13.2918 48.5573L11.4782 44.4825Z" fill="#418CBA"/>
<path d="M11.5932 42.4565C11.7111 42.2737 11.8771 42.1267 12.0733 42.0316C12.2694 41.9365 12.488 41.897 12.7052 41.9173C12.9224 41.9377 13.1297 42.0172 13.3046 42.1471C13.4794 42.277 13.615 42.4523 13.6965 42.6538C13.6965 42.6538 14.8167 45.1351 15.4111 46.5617C15.4761 46.7288 15.4796 46.9134 15.421 47.0829C15.3624 47.2523 15.2455 47.3957 15.091 47.4875C14.4661 47.829 13.8641 48.2008 13.285 48.5954L11.4789 44.5205C11.3192 44.1954 11.2459 43.835 11.2659 43.4737C11.2859 43.1123 11.3986 42.7621 11.5932 42.4565Z" fill="#83BCDC"/>
<path d="M73.589 64.4808C73.5274 64.3283 73.4335 64.191 73.3137 64.0783L67.7598 58.5427C67.6437 58.4275 67.506 58.3364 67.3546 58.2746C67.2033 58.2129 67.0412 58.1816 66.8777 58.1826C66.8262 58.1755 66.774 58.1755 66.7224 58.1826C66.6709 58.1755 66.6187 58.1755 66.5672 58.1826H65.0217C64.8149 58.1821 64.6112 58.2331 64.4289 58.3309C64.246 58.4326 64.0891 58.5752 63.9702 58.7474C63.6124 59.1406 63.1765 59.4546 62.6904 59.6695C62.2043 59.8844 61.6788 59.9954 61.1474 59.9954C60.616 59.9954 60.0904 59.8844 59.6043 59.6695C59.1182 59.4546 58.6823 59.1406 58.3245 58.7474C58.2101 58.5739 58.0551 58.4309 57.8729 58.3309C57.6906 58.2331 57.4869 58.1821 57.2801 58.1826H55.5864C55.3964 58.1554 55.2027 58.1748 55.0218 58.2391C54.843 58.3033 54.6795 58.4044 54.542 58.5356L48.9881 64.0642C48.8762 64.1819 48.7855 64.3181 48.7199 64.4666C48.6561 64.6188 48.6226 64.7818 48.6211 64.9468C48.6218 65.1095 48.6554 65.2704 48.7199 65.4198C48.7831 65.5718 48.8741 65.7107 48.9881 65.8294L52.0226 68.8443C52.2606 69.076 52.5797 69.2053 52.9118 69.2044C53.0753 69.2054 53.2374 69.1741 53.3887 69.1123C53.5401 69.0505 53.6778 68.9595 53.7939 68.8443L54.4996 68.1382V79.2448C54.4994 79.5727 54.6288 79.8874 54.8595 80.1203C55.0968 80.3539 55.4158 80.4857 55.7487 80.4875H66.5672C66.7313 80.485 66.8937 80.4539 67.0471 80.3957C67.2007 80.3325 67.34 80.2388 67.4564 80.1203C67.6871 79.8868 67.8186 79.5731 67.8233 79.2448V68.1594L68.529 68.8655C68.7657 69.0948 69.0817 69.2239 69.4112 69.2256C69.7422 69.225 70.0595 69.0929 70.2933 68.8584L73.3208 65.8435C73.4391 65.7296 73.5328 65.5926 73.596 65.441C73.6575 65.2885 73.6887 65.1254 73.6877 64.9609C73.6882 64.7958 73.6545 64.6323 73.589 64.4808Z" fill="white"/>
</svg>
