<svg width="121" height="121" viewBox="0 0 121 121" fill="none" xmlns="http://www.w3.org/2000/svg">
<g clip-path="url(#clip0_3166_51561)">
<g filter="url(#filter0_d_3166_51561)">
<path d="M64.0912 28.2286C64.2685 27.8761 64.3728 27.4921 64.3981 27.0992C64.4234 26.7063 64.3692 26.3123 64.2385 25.9404C64.1078 25.5685 63.9034 25.2262 63.6372 24.9335C63.371 24.6407 63.0484 24.4036 62.6883 24.2358L52.6262 19.5425C52.1125 19.3032 51.6784 18.924 51.3748 18.4494C51.0712 17.9748 50.9105 17.4245 50.9117 16.8629V13.1917C50.9117 12.6695 50.7023 12.1686 50.3293 11.799C49.9564 11.4294 49.4504 11.2212 48.9225 11.2202H36.7435C36.2149 11.2202 35.7079 11.4279 35.3342 11.7976C34.9604 12.1674 34.7504 12.6688 34.7504 13.1917V16.8686C34.7516 17.4302 34.591 17.9806 34.2873 18.4552C33.9837 18.9298 33.5496 19.3089 33.036 19.5483L22.9777 24.2358C22.6176 24.4035 22.295 24.6407 22.0288 24.9335C21.7627 25.2262 21.5584 25.5686 21.4279 25.9406C21.2974 26.3125 21.2433 26.7065 21.2689 27.0994C21.2944 27.4923 21.3991 27.8762 21.5767 28.2286L23.3376 31.7275C25.1016 35.236 26.1435 39.0561 26.4029 42.9662C26.6623 46.8762 26.1341 50.7983 24.8489 54.5048C24.6644 55.0369 24.4645 55.5639 24.249 56.0858L22.9061 59.3397C22.7208 59.789 22.65 60.2764 22.7 60.7591C22.75 61.2418 22.9193 61.7049 23.1928 62.1077C23.4664 62.5105 23.8359 62.8405 24.2687 63.0688C24.7016 63.297 25.1846 63.4165 25.6751 63.4166H59.9967C60.487 63.4163 60.9698 63.2967 61.4024 63.0683C61.8351 62.8399 62.2042 62.5098 62.4775 62.107C62.7507 61.7041 62.9195 61.241 62.9691 60.7585C63.0187 60.2759 62.9475 59.7886 62.7618 59.3397L61.4189 56.0858C61.2035 55.5639 61.0035 55.0369 60.8191 54.5048C59.533 50.7984 59.0046 46.8761 59.2643 42.9659C59.5241 39.0557 60.567 35.2355 62.3322 31.7275L64.0912 28.2286Z" fill="white"/>
</g>
<path d="M46.8535 41.0452H43.084V44.7738H46.8535V41.0452Z" fill="#D2E2EB"/>
<path d="M46.8535 33.5896H43.084V37.3182H46.8535V33.5896Z" fill="#D2E2EB"/>
<path d="M50.623 44.7739H46.8535V48.5025H50.623V44.7739Z" fill="#D2E2EB"/>
<path d="M50.623 37.3167H46.8535V41.0452H50.623V37.3167Z" fill="#E3E3E3"/>
<path d="M43.0839 37.3167H39.3145V41.0452H43.0839V37.3167Z" fill="#D2E2EB"/>
<path d="M43.0839 44.7739H39.3145V48.5025H43.0839V44.7739Z" fill="#D2E2EB"/>
<path d="M46.8535 26.1326H43.084V29.8612H46.8535V26.1326Z" fill="#D2E2EB"/>
<path d="M46.8535 11.2202H43.738H43.084V14.9488H46.8535V11.2202Z" fill="#D2E2EB"/>
<path d="M25.4658 37.3167C25.7939 38.5425 26.0421 39.7879 26.2089 41.0452H28.0085V37.3167H25.4658Z" fill="#D2E2EB"/>
<path d="M24.2388 33.7027V33.5896H24.1904C24.2059 33.6279 24.2233 33.6643 24.2388 33.7027Z" fill="#E3E3E3"/>
<path d="M26.4647 44.7739C26.4708 46.0202 26.3965 47.2656 26.2422 48.5025H28.0089V44.7739H26.4647Z" fill="#D2E2EB"/>
<path d="M31.7783 20.1304L28.0088 21.8894V22.4043H31.7783V20.1304Z" fill="#D2E2EB"/>
<path d="M25.5334 52.231C25.336 52.9966 25.1077 53.7539 24.8484 54.5029C24.6781 54.991 24.4943 55.4772 24.2988 55.9576H28.0083V52.231H25.5334Z" fill="#D2E2EB"/>
<path d="M21.3737 26.1326C21.1748 26.835 21.2473 27.5855 21.5769 28.238L22.3973 29.8707H24.2395V26.1326H21.3737Z" fill="#D2E2EB"/>
<path d="M22.9042 59.3375C22.857 59.4509 22.8176 59.5673 22.7861 59.6859H24.2394V56.1028L22.9042 59.3375Z" fill="#D2E2EB"/>
<path d="M34.752 14.949V16.863C34.7545 17.5223 34.5346 18.1636 34.127 18.6852H35.5473V14.949H34.752Z" fill="#D2E2EB"/>
<path d="M50.623 59.6863H46.8535V63.4149H50.623V59.6863Z" fill="#D2E2EB"/>
<path d="M43.0839 59.6863H39.3145V63.4149H43.0839V59.6863Z" fill="#D2E2EB"/>
<path d="M35.5468 59.6863H31.7773V63.4149H35.5468V59.6863Z" fill="#D2E2EB"/>
<path d="M24.2393 63.0569C24.6793 63.2933 25.1724 63.4164 25.6731 63.4149H28.0088V59.6863H24.2393V63.0569Z" fill="#D2E2EB"/>
<path d="M58.1602 22.1245V22.404H58.7639L58.1602 22.1245Z" fill="#E3E3E3"/>
<path d="M59.2032 44.7738C59.2089 43.5268 59.2942 42.2815 59.4586 41.0452H58.1602V44.7738H59.2032Z" fill="#E3E3E3"/>
<path d="M60.2016 37.3163C60.5422 36.0473 60.9682 34.8023 61.4769 33.5896H58.1602V37.3163H60.2016Z" fill="#D2E2EB"/>
<path d="M61.9297 26.1326H58.1602V29.8612H61.9297V26.1326Z" fill="#D2E2EB"/>
<path d="M60.1339 52.231C59.8177 51.0044 59.5811 49.759 59.4257 48.5024H58.1602V52.231H60.1339Z" fill="#D2E2EB"/>
<path d="M62.8817 59.6863H61.9297V62.7086C62.3614 62.3457 62.6801 61.869 62.8486 61.3339C63.0172 60.7989 63.0287 60.2275 62.8817 59.6863V59.6863Z" fill="#E3E3E3"/>
<path d="M61.9297 59.6861V57.3203L61.4188 56.0838C61.4014 56.0417 61.3859 55.9996 61.3704 55.9575H58.1602V59.6861H61.9297Z" fill="#D2E2EB"/>
<path d="M39.3144 11.2202H36.7427C36.3098 11.2196 35.8888 11.3602 35.5449 11.6203V14.9488H39.3144V11.2202Z" fill="#D2E2EB"/>
<path d="M50.9152 13.1917C50.9132 12.8335 50.8122 12.4827 50.623 12.1772V14.9488H50.9152V13.1917Z" fill="#E3E3E3"/>
<path d="M50.623 29.8616H46.8535V33.5902H50.623V29.8616Z" fill="#D2E2EB"/>
<path d="M62.3322 31.7297L63.2707 29.8616H61.9297V32.5661C62.0593 32.2848 62.1929 32.0072 62.3322 31.7297Z" fill="#D2E2EB"/>
<path d="M31.7783 26.1326H28.0088V29.8612H31.7783V26.1326Z" fill="#D2E2EB"/>
<path d="M62.6882 24.2362L61.9297 23.8821V26.133H64.2963C64.1831 25.7205 63.9806 25.3373 63.703 25.0098C63.4254 24.6823 63.0791 24.4183 62.6882 24.2362V24.2362Z" fill="#D2E2EB"/>
<path d="M28.0088 22.4041H26.9058L24.2393 23.6482V26.1326H28.0088V22.4041Z" fill="#D2E2EB"/>
<path d="M50.623 14.949H46.8535V18.6776H50.623V14.949Z" fill="#D2E2EB"/>
<path d="M58.1601 52.231H54.3906V55.9595H58.1601V52.231Z" fill="#D2E2EB"/>
<path d="M54.3906 22.4041V20.3656L52.6297 19.5426C52.2039 19.3456 51.8313 19.0517 51.5422 18.6851H50.623V22.4041H54.3906Z" fill="#D2E2EB"/>
<path d="M39.3164 18.6775H35.5469V22.4061H39.3164V18.6775Z" fill="#D2E2EB"/>
<path d="M43.0839 14.949H39.3145V18.6776H43.0839V14.949Z" fill="#D2E2EB"/>
<path d="M58.1601 22.4041H54.3906V26.1326H58.1601V22.4041Z" fill="#D2E2EB"/>
<path d="M58.1601 37.3167H54.3906V41.0452H58.1601V37.3167Z" fill="#E3E3E3"/>
<path d="M58.1601 44.7739H54.3906V48.5025H58.1601V44.7739Z" fill="#D2E2EB"/>
<path d="M58.1601 29.8616H54.3906V33.5902H58.1601V29.8616Z" fill="#D2E2EB"/>
<path d="M35.5468 22.4041H31.7773V26.1326H35.5468V22.4041Z" fill="#D2E2EB"/>
<path d="M54.3925 55.9575H50.623V59.6861H54.3925V55.9575Z" fill="#D2E2EB"/>
<path d="M39.3164 55.9575H35.5469V59.6861H39.3164V55.9575Z" fill="#D2E2EB"/>
<path d="M46.8535 55.9575H43.084V59.6861H46.8535V55.9575Z" fill="#D2E2EB"/>
<path d="M54.3926 59.6863V63.4149H54.4139H58.1601V59.6863H54.3926Z" fill="#D2E2EB"/>
<path d="M31.7783 41.0452H28.0088V44.7738H31.7783V41.0452Z" fill="#D2E2EB"/>
<path d="M28.0088 29.8616H24.2393V33.5902H28.0088V29.8616Z" fill="#D2E2EB"/>
<path d="M31.7783 33.5896H28.0088V37.3182H31.7783V33.5896Z" fill="#D2E2EB"/>
<path d="M31.7783 48.5024H28.0088V52.231H31.7783V48.5024Z" fill="#D2E2EB"/>
<path d="M31.7783 55.9575H28.0088V59.6861H31.7783V55.9575Z" fill="#D2E2EB"/>
<path d="M54.3925 26.1326H50.623V29.8612H54.3925V26.1326Z" fill="#D2E2EB"/>
<path d="M54.3925 41.0452H50.623V44.7738H54.3925V41.0452Z" fill="#E3E3E3"/>
<path d="M54.3925 33.5896H50.623V37.3182H54.3925V33.5896Z" fill="#D2E2EB"/>
<path d="M43.0839 29.8616H39.3145V33.5902H43.0839V29.8616Z" fill="#D2E2EB"/>
<path d="M54.3925 48.5024H50.623V52.231H54.3925V48.5024Z" fill="#D2E2EB"/>
<path d="M39.3164 33.5896H35.5469V37.3182H39.3164V33.5896Z" fill="#D2E2EB"/>
<path d="M46.8535 48.5024H43.084V52.231H46.8535V48.5024Z" fill="#D2E2EB"/>
<path d="M39.3164 41.0452H35.5469V44.7738H39.3164V41.0452Z" fill="#D2E2EB"/>
<path d="M50.623 22.4041H46.8535V26.1326H50.623V22.4041Z" fill="#D2E2EB"/>
<path d="M39.3164 48.5024H35.5469V52.231H39.3164V48.5024Z" fill="#D2E2EB"/>
<path d="M43.0839 22.4041H39.3145V26.1326H43.0839V22.4041Z" fill="#D2E2EB"/>
<path d="M35.5468 37.3167H31.7773V41.0452H35.5468V37.3167Z" fill="#D2E2EB"/>
<path d="M35.5468 44.7739H31.7773V48.5025H35.5468V44.7739Z" fill="#D2E2EB"/>
<path d="M35.5468 52.231H31.7773V55.9595H35.5468V52.231Z" fill="#D2E2EB"/>
<path d="M43.0839 52.231H39.3145V55.9595H43.0839V52.231Z" fill="#D2E2EB"/>
<path d="M35.5468 29.8616H31.7773V33.5902H35.5468V29.8616Z" fill="#D2E2EB"/>
<path d="M50.623 52.231H46.8535V55.9595H50.623V52.231Z" fill="#D2E2EB"/>
<path d="M46.8535 18.6775H43.084V22.4061H46.8535V18.6775Z" fill="#D2E2EB"/>
<path d="M39.3164 26.1326H35.5469V29.8612H39.3164V26.1326Z" fill="#D2E2EB"/>
<path d="M39.3428 97.3894L42.8259 100.886L46.309 97.3894V69.3312L42.9362 67.0515L39.3428 69.3312V97.3894Z" fill="#474748"/>
<path d="M36.3564 103.306L42.835 106.263L43.7329 103.306V99.3609C43.7329 98.838 43.5229 98.3366 43.1491 97.9668C42.7753 97.5971 42.2684 97.3894 41.7398 97.3894H38.3457C37.8178 97.3904 37.3118 97.5986 36.9388 97.9682C36.5659 98.3378 36.3564 98.8387 36.3564 99.3609V103.306Z" fill="#FB965D"/>
<path d="M49.3093 99.3609V103.306L46.0468 106.263L43.3222 103.306V99.3609C43.3222 98.838 43.1122 98.3366 42.7384 97.9668C42.3647 97.5971 41.8577 97.3894 41.3291 97.3894H47.3084C47.5708 97.3884 47.8308 97.4387 48.0735 97.5373C48.3163 97.6359 48.5369 97.781 48.7228 97.9641C48.9087 98.1473 49.0562 98.365 49.1568 98.6047C49.2575 98.8444 49.3093 99.1014 49.3093 99.3609V99.3609Z" fill="#E97522"/>
<path d="M36.5983 63.3667L36.4531 63.4146V67.3575C36.4531 67.8804 36.6631 68.3818 37.0369 68.7516C37.4107 69.1213 37.9176 69.329 38.4462 69.329H47.2177C47.7463 69.329 48.2532 69.1213 48.627 68.7516C49.0008 68.3818 49.2107 67.8804 49.2107 67.3575V63.4146L49.0695 63.3667H36.5983Z" fill="#FB965D"/>
<path d="M43.2952 63.3667L43.2294 63.4146V67.3575C43.2294 67.8804 43.0195 68.3818 42.6457 68.7516C42.2719 69.1213 41.7649 69.329 41.2363 69.329H47.2176C47.7462 69.329 48.2532 69.1213 48.6269 68.7516C49.0007 68.3818 49.2107 67.8804 49.2107 67.3575V63.4146L49.141 63.3667H43.2952Z" fill="#E97522"/>
<path opacity="0.2" d="M56.3491 31.7294C54.5843 35.2376 53.5417 39.0577 53.2819 42.9678C53.0221 46.878 53.5504 50.8002 54.8359 54.5067C54.8359 54.5067 54.8359 54.5067 54.8359 54.5067H60.8132C59.5267 50.8004 58.9979 46.878 59.2577 42.9677C59.5175 39.0575 60.5606 35.2373 62.3264 31.7294L64.0834 28.2286C64.2609 27.8764 64.3656 27.4928 64.3913 27.1001C64.417 26.7074 64.3632 26.3136 64.2331 25.9418C64.103 25.5699 63.8992 25.2275 63.6336 24.9346C63.368 24.6416 63.0459 24.4041 62.6863 24.2358L52.6242 19.5425C52.1106 19.3032 51.6765 18.924 51.3729 18.4494C51.0692 17.9748 50.9086 17.4245 50.9098 16.8629V13.1917C50.9093 12.6693 50.6994 12.1684 50.3261 11.7989C49.9529 11.4293 49.4467 11.2212 48.9186 11.2202H42.9355C43.4641 11.2202 43.9711 11.4279 44.3449 11.7976C44.7186 12.1674 44.9286 12.6688 44.9286 13.1917V16.8686C44.9274 17.4302 45.0881 17.9806 45.3917 18.4552C45.6953 18.9298 46.1294 19.3089 46.6431 19.5483L56.7052 24.2416C57.0653 24.4093 57.3879 24.6465 57.6541 24.9392C57.9203 25.2319 58.1247 25.5742 58.2554 25.9461C58.3861 26.318 58.4403 26.712 58.415 27.1049C58.3897 27.4978 58.2854 27.8818 58.1081 28.2343L56.3491 31.7294Z" fill="#A7C1CF" fill-opacity="0.48"/>
<path opacity="0.2" d="M54.0622 63.4146H25.6366C25.1486 63.4103 24.6691 63.2877 24.24 63.0577C23.811 62.8277 23.4454 62.4973 23.1752 62.0952C22.9051 61.6932 22.7386 61.2318 22.6904 60.7514C22.6422 60.271 22.7137 59.7863 22.8986 59.3396L24.2279 56.0857C24.4408 55.5638 24.6388 55.0367 24.822 54.5046H54.8768C55.06 55.0367 55.258 55.5638 55.4709 56.0857L56.7983 59.3396C56.9836 59.7861 57.0555 60.2708 57.0076 60.7513C56.9597 61.2317 56.7935 61.6931 56.5234 62.0953C56.2534 62.4974 55.8879 62.828 55.4588 63.058C55.0297 63.288 54.5502 63.4104 54.0622 63.4146V63.4146Z" fill="#8DCAEC" fill-opacity="0.4"/>
<path opacity="0.5" d="M59.993 63.4146H54.0137C54.504 63.4145 54.9867 63.2951 55.4194 63.0669C55.8521 62.8388 56.2214 62.5088 56.4947 62.1062C56.7681 61.7036 56.9372 61.2407 56.9871 60.7582C57.037 60.2758 56.9661 59.7886 56.7808 59.3396L55.4263 56.0857C55.2121 55.5638 55.0122 55.0367 54.8264 54.5046H60.8077C60.9921 55.0367 61.1921 55.5638 61.4075 56.0857L62.7505 59.3396C62.9358 59.7886 63.0066 60.2758 62.9568 60.7582C62.9069 61.2407 62.7378 61.7036 62.4644 62.1062C62.191 62.5088 61.8217 62.8388 61.3891 63.0669C60.9564 63.2951 60.4736 63.4145 59.9833 63.4146H59.993Z" fill="#96CFEF"/>
<path d="M29.3754 109.22H50.9045C51.1688 109.22 51.4223 109.116 51.6092 108.932C51.7961 108.747 51.9011 108.496 51.9011 108.235V106.263C51.9013 105.875 51.8242 105.49 51.6741 105.131C51.5239 104.772 51.3038 104.446 51.0261 104.171C50.7485 103.896 50.4188 103.678 50.056 103.529C49.6931 103.381 49.3042 103.304 48.9115 103.304H31.3705C30.577 103.304 29.8161 103.616 29.2551 104.171C28.6941 104.726 28.3789 105.478 28.3789 106.263V108.235C28.3794 108.496 28.4846 108.746 28.6714 108.931C28.8581 109.116 29.1113 109.22 29.3754 109.22V109.22Z" fill="#474748"/>
<path d="M57.2834 106.263V108.235C57.2829 108.496 57.1778 108.746 56.991 108.931C56.8042 109.116 56.551 109.22 56.2869 109.22H50.3075C50.5717 109.22 50.8249 109.116 51.0117 108.931C51.1984 108.746 51.3036 108.496 51.3041 108.235V106.263C51.3036 105.478 50.9882 104.726 50.4273 104.171C49.8664 103.616 49.1058 103.304 48.3125 103.304H54.2938C55.0867 103.305 55.8468 103.617 56.4073 104.172C56.9678 104.727 57.2829 105.479 57.2834 106.263V106.263Z" fill="#585858"/>
<path d="M54.9719 34.6848H45.0239C44.8673 34.685 44.713 34.7215 44.5734 34.7915C44.4337 34.8616 44.3127 34.9631 44.22 35.0879C44.1274 35.2127 44.0657 35.3573 44.04 35.5101C44.0142 35.6628 44.0251 35.8194 44.0719 35.9672L47.2608 46.0218C47.3246 46.2221 47.4513 46.3972 47.6225 46.5214C47.7937 46.6457 48.0005 46.7127 48.2128 46.7128H59.107L54.9719 34.6848Z" fill="#4299D5"/>
<path d="M88.2554 34.6848H98.2653C98.4219 34.685 98.5762 34.7215 98.7158 34.7915C98.8555 34.8616 98.9765 34.9631 99.0692 35.0879C99.1618 35.2127 99.2235 35.3573 99.2493 35.5101C99.275 35.6628 99.2641 35.8194 99.2173 35.9672L96.0284 46.0218C95.9646 46.2221 95.8379 46.3972 95.6667 46.5214C95.4955 46.6457 95.2887 46.7127 95.0764 46.7128H83.8242L88.2554 34.6848Z" fill="#4299D5"/>
<path d="M65.4864 34.6848H77.6461L80.6686 41.1256L74.7725 49.626H65.6276L62.9844 40.2681L65.4864 34.6848Z" fill="#4299D5"/>
<path d="M59.4552 52.8569L54.875 34.6848H65.4867V36.44C65.4908 37.3137 65.6878 38.176 66.0637 38.9666C66.4397 39.7572 66.9856 40.4571 67.6633 41.0174C68.3411 41.5777 69.1343 41.9849 69.9876 42.2105C70.8409 42.4362 71.7337 42.4748 72.6037 42.3238C75.5372 41.8472 77.6464 39.2613 77.6464 36.3213V34.6848H82.1821L79.6898 52.855C78.9356 55.8486 78.7798 58.9591 79.2312 62.0119L82.4781 94.6734C82.5029 94.8397 82.4911 95.0092 82.4436 95.1706C82.3961 95.332 82.314 95.4813 82.2029 95.6085C82.0918 95.7356 81.9543 95.8376 81.7998 95.9074C81.6453 95.9773 81.4773 96.0134 81.3074 96.0132H56.2469C56.0778 96.012 55.911 95.9749 55.7576 95.9045C55.6043 95.834 55.468 95.7319 55.3579 95.6049C55.2479 95.4779 55.1667 95.329 55.1197 95.1683C55.0728 95.0076 55.0613 94.8389 55.0859 94.6734L59.9235 62.0138C60.3748 58.9623 60.2191 55.8531 59.4649 52.8607L59.4552 52.8569Z" fill="#6FC0F8"/>
<path d="M88.0579 94.6735C88.0826 94.8397 88.0708 95.0093 88.0234 95.1707C87.9759 95.332 87.8938 95.4814 87.7827 95.6085C87.6716 95.7357 87.5341 95.8377 87.3796 95.9075C87.225 95.9774 87.0571 96.0134 86.8872 96.0133H80.908C81.0779 96.0134 81.2458 95.9774 81.4003 95.9075C81.5549 95.8377 81.6924 95.7357 81.8035 95.6085C81.9146 95.4814 81.9966 95.332 82.0441 95.1707C82.0916 95.0093 82.1034 94.8397 82.0786 94.6735L77.2411 62.0158C76.7891 58.9632 76.9443 55.8527 77.6977 52.8589L82.2799 34.6887H88.2591L83.6789 52.8589C82.9245 55.8525 82.7693 58.9632 83.2222 62.0158L88.0579 94.6735Z" fill="#4299D5"/>
</g>
<defs>
<filter id="filter0_d_3166_51561" x="-3.7373" y="-13.7798" width="93.1416" height="102.197" filterUnits="userSpaceOnUse" color-interpolation-filters="sRGB">
<feFlood flood-opacity="0" result="BackgroundImageFix"/>
<feColorMatrix in="SourceAlpha" type="matrix" values="0 0 0 0 0 0 0 0 0 0 0 0 0 0 0 0 0 0 127 0" result="hardAlpha"/>
<feOffset/>
<feGaussianBlur stdDeviation="12.5"/>
<feColorMatrix type="matrix" values="0 0 0 0 0.352188 0 0 0 0 0.518788 0 0 0 0 0.6125 0 0 0 0.25 0"/>
<feBlend mode="normal" in2="BackgroundImageFix" result="effect1_dropShadow_3166_51561"/>
<feBlend mode="normal" in="SourceGraphic" in2="effect1_dropShadow_3166_51561" result="shape"/>
</filter>
<clipPath id="clip0_3166_51561">
<rect width="120" height="120" fill="white" transform="translate(0.262695 0.220215)"/>
</clipPath>
</defs>
</svg>
