<svg width="121" height="121" viewBox="0 0 121 121" fill="none" xmlns="http://www.w3.org/2000/svg">
<path d="M75.816 19.7756H32.7718C32.1341 19.7756 31.6172 20.2958 31.6172 20.9374V41.1535C31.6172 41.7952 32.1341 42.3153 32.7718 42.3153H75.816C76.4537 42.3153 76.9706 41.7952 76.9706 41.1535V20.9374C76.9706 20.2958 76.4537 19.7756 75.816 19.7756Z" fill="#83BCDC"/>
<g opacity="0.5">
<path opacity="0.5" d="M76.9717 20.9369C76.9717 20.6288 76.85 20.3333 76.6335 20.1154C76.417 19.8975 76.1233 19.7751 75.8171 19.7751H70.5079L69.9518 24.4146L69.6177 27.2725L68.1214 40.1017C68.1214 40.177 68.1214 40.2523 68.1065 40.3276C68.1058 40.5875 68.156 40.8451 68.2543 41.0855C68.3526 41.326 68.497 41.5446 68.6792 41.7289C68.8614 41.9132 69.078 42.0596 69.3164 42.1597C69.5549 42.2598 69.8106 42.3116 70.069 42.3123H75.8046C76.1102 42.311 76.4028 42.1881 76.6187 41.9704C76.8345 41.7528 76.956 41.458 76.9567 41.1506V20.9369H76.9717Z" fill="#A5B3C9"/>
</g>
<path d="M73.6393 22.6658H34.9466C34.6946 22.6658 34.4902 22.8714 34.4902 23.1249V38.9652C34.4902 39.2188 34.6946 39.4244 34.9466 39.4244H73.6393C73.8913 39.4244 74.0956 39.2188 74.0956 38.9652V23.1249C74.0956 22.8714 73.8913 22.6658 73.6393 22.6658Z" fill="white"/>
<path d="M74.1054 23.1118C74.1039 23.0512 74.0903 22.9915 74.0655 22.9362C74.0407 22.8809 74.0052 22.8311 73.9611 22.7898C73.917 22.7484 73.8652 22.7163 73.8086 22.6954C73.752 22.6744 73.6919 22.665 73.6316 22.6677H70.1554L69.9509 24.4241L69.6167 27.272L68.1953 39.4288H73.6316C73.6934 39.4308 73.7548 39.4203 73.8124 39.3978C73.87 39.3754 73.9225 39.3415 73.9667 39.2981C74.011 39.2548 74.046 39.2029 74.0699 39.1456C74.0937 39.0883 74.1058 39.0267 74.1054 38.9646V23.1118Z" fill="#CED8E8"/>
<path d="M98.5267 97.1247C98.2823 97.0955 98.0461 97.0181 97.8315 96.897C97.6169 96.7758 97.4281 96.6133 97.276 96.4188C97.1238 96.2242 97.0113 96.0014 96.9447 95.763C96.8782 95.5246 96.859 95.2754 96.8883 95.0296L98.3172 82.8L98.6264 80.0751L99.1426 75.6565H105.985L106.507 80.0776L106.816 82.805L108.25 95.0321C108.258 95.1038 108.262 95.1758 108.262 95.2479C108.263 95.4957 108.215 95.7412 108.121 95.9704C108.028 96.1995 107.89 96.4079 107.716 96.5836C107.543 96.7593 107.336 96.8988 107.109 96.9942C106.882 97.0897 106.638 97.1391 106.392 97.1398H98.7386C98.6677 97.1386 98.597 97.1336 98.5267 97.1247V97.1247Z" fill="#D2E2EB"/>
<g opacity="0.5">
<path opacity="0.8" d="M106.25 95.2464C106.25 95.747 106.052 96.2272 105.7 96.5815C105.349 96.9357 104.872 97.1351 104.374 97.1357H106.389C106.461 97.1354 106.532 97.1312 106.604 97.1232C106.848 97.0943 107.084 97.0172 107.299 96.8963C107.514 96.7755 107.703 96.6133 107.855 96.4189C108.007 96.2246 108.12 96.002 108.187 95.7638C108.254 95.5255 108.273 95.2764 108.245 95.0306L106.813 82.801L106.504 80.0761L105.985 75.6575H103.968L104.496 80.0786L104.806 82.806L106.237 95.0331C106.246 95.1038 106.25 95.1751 106.25 95.2464V95.2464Z" fill="white"/>
</g>
<path d="M103.075 73.114C102.826 72.1806 102.883 70.1834 104.773 69.3804C105.611 69.0216 106.22 68.2338 106.172 67.6416C106.125 67.0494 105.447 66.5677 104.272 66.2892C102.457 65.8626 101.409 64.8514 101.469 63.5818C101.534 62.2093 103.065 60.611 106.315 60.1593C106.39 60.1466 106.467 60.1491 106.541 60.1667C106.615 60.1843 106.685 60.2167 106.747 60.2619C106.809 60.307 106.861 60.3641 106.9 60.4298C106.94 60.4955 106.966 60.5684 106.977 60.6444C106.988 60.7203 106.984 60.7978 106.965 60.8721C106.946 60.9465 106.912 61.0162 106.866 61.0774C106.82 61.1385 106.762 61.1898 106.696 61.2282C106.63 61.2666 106.557 61.2913 106.482 61.301C103.988 61.6397 102.651 62.7412 102.606 63.6496C102.574 64.3195 103.29 64.9041 104.529 65.1852C106.821 65.7271 107.257 66.8989 107.312 67.5538C107.419 68.8234 106.339 69.9726 105.217 70.4518C103.788 71.0565 104.135 72.6599 104.182 72.8431C104.218 72.9901 104.195 73.1453 104.118 73.2753C104.041 73.4053 103.916 73.4996 103.771 73.5381C103.725 73.5501 103.677 73.556 103.629 73.5557C103.501 73.5557 103.376 73.512 103.276 73.4319C103.175 73.3517 103.104 73.2397 103.075 73.114Z" fill="#306694"/>
<path d="M101.037 73.1368L99.3516 67.007C99.3267 66.9332 99.317 66.8551 99.323 66.7775C99.329 66.6998 99.3507 66.6242 99.3867 66.5552C99.4227 66.4862 99.4722 66.4253 99.5323 66.3762C99.5924 66.327 99.6618 66.2907 99.7363 66.2694C99.8108 66.2481 99.8888 66.2423 99.9656 66.2523C100.042 66.2623 100.116 66.2879 100.183 66.3275C100.25 66.3672 100.308 66.4201 100.353 66.483C100.399 66.5458 100.432 66.6174 100.449 66.6934L102.137 72.8282C102.157 72.9007 102.163 72.9765 102.154 73.0512C102.145 73.1259 102.121 73.198 102.084 73.2635C102.047 73.329 101.998 73.3866 101.939 73.4328C101.88 73.4791 101.813 73.5133 101.741 73.5333C101.69 73.5475 101.638 73.5543 101.586 73.5534C101.462 73.5537 101.341 73.5131 101.242 73.4379C101.143 73.3627 101.071 73.257 101.037 73.1368V73.1368Z" fill="#306694"/>
<path d="M107.023 74.3226C107.022 74.6775 106.881 75.0176 106.632 75.2684C106.382 75.5191 106.044 75.6599 105.691 75.6599H99.3443C98.9916 75.6599 98.6533 75.5191 98.4036 75.2684C98.1539 75.0176 98.0134 74.6775 98.0127 74.3226V74.3226C98.0127 73.9672 98.153 73.6264 98.4027 73.3751C98.6525 73.1238 98.9912 72.9827 99.3443 72.9827H105.696C106.048 72.984 106.386 73.1257 106.634 73.3769C106.883 73.628 107.023 73.9681 107.023 74.3226V74.3226Z" fill="#D2E2EB"/>
<path d="M98.6264 80.0789H106.504L106.823 82.8063H98.3047L98.6264 80.0789Z" fill="#E97522"/>
<path d="M104.806 82.8063H106.823L106.504 80.0789H104.486L104.806 82.8063Z" fill="#EE7E3B"/>
<g opacity="0.5">
<path opacity="0.8" d="M98.0186 74.4123C98.0389 74.7518 98.1872 75.0706 98.4333 75.3038C98.6794 75.537 99.0047 75.6668 99.3427 75.6668H105.704C105.879 75.6655 106.051 75.6296 106.212 75.5612C106.373 75.4928 106.519 75.3932 106.641 75.268C106.764 75.1429 106.86 74.9947 106.926 74.832C106.992 74.6692 107.025 74.495 107.023 74.3194V74.3194C107.022 73.9652 106.881 73.6259 106.631 73.3761C106.382 73.1263 106.044 72.9864 105.692 72.9871H105.587V74.4047L98.0186 74.4123Z" fill="white"/>
</g>
<path d="M33.4241 93.2618V98.6741C33.4271 98.7858 33.4079 98.897 33.3675 99.0011C33.3272 99.1053 33.2665 99.2002 33.1891 99.2804C33.1118 99.3606 33.0192 99.4244 32.917 99.4681C32.8147 99.5118 32.7048 99.5344 32.5937 99.5347H24.2796C24.1699 99.534 24.0614 99.5117 23.9603 99.4688C23.8592 99.426 23.7675 99.3635 23.6904 99.285C23.6133 99.2064 23.5523 99.1134 23.5109 99.0112C23.4695 98.9089 23.4486 98.7995 23.4492 98.6891V93.2618C23.4486 93.1515 23.4695 93.042 23.5109 92.9398C23.5523 92.8376 23.6133 92.7445 23.6904 92.666C23.7675 92.5875 23.8592 92.525 23.9603 92.4822C24.0614 92.4393 24.1699 92.4169 24.2796 92.4163H32.5937C32.7034 92.4169 32.8119 92.4393 32.9131 92.4822C33.0142 92.525 33.1059 92.5875 33.183 92.666C33.2601 92.7445 33.3211 92.8376 33.3625 92.9398C33.4038 93.042 33.4248 93.1515 33.4241 93.2618V93.2618ZM87.4583 92.4163H79.1467C79.037 92.4169 78.9285 92.4393 78.8273 92.4822C78.7262 92.525 78.6345 92.5875 78.5574 92.666C78.4803 92.7445 78.4193 92.8376 78.3779 92.9398C78.3365 93.042 78.3156 93.1515 78.3163 93.2618V98.6741C78.3153 98.7845 78.336 98.8941 78.3773 98.9965C78.4185 99.0989 78.4795 99.1921 78.5567 99.2706C78.6338 99.3492 78.7257 99.4117 78.827 99.4544C78.9282 99.4972 79.0369 99.5193 79.1467 99.5196H87.4583C87.5682 99.5193 87.6769 99.4972 87.7783 99.4545C87.8797 99.4118 87.9717 99.3493 88.0491 99.2708C88.1265 99.1922 88.1877 99.0991 88.2292 98.9967C88.2708 98.8943 88.2918 98.7847 88.2912 98.6741V93.2618C88.2915 93.1515 88.2702 93.0421 88.2285 92.94C88.1868 92.8379 88.1256 92.745 88.0482 92.6667C87.9709 92.5885 87.879 92.5263 87.7778 92.4837C87.6765 92.4412 87.568 92.4191 87.4583 92.4188V92.4163Z" fill="#306694"/>
<path d="M90.9501 57.7398V76.3476C90.9521 76.7937 90.778 77.2224 90.4662 77.5395C90.1543 77.8566 89.7301 78.0361 89.2868 78.0388H57.6962C57.4768 78.0375 57.2598 77.9927 57.0576 77.907C56.8554 77.8213 56.6719 77.6964 56.5177 77.5393C56.3635 77.3823 56.2415 77.1962 56.1588 76.9917C56.076 76.7873 56.0341 76.5684 56.0354 76.3476C56.0374 76.7937 55.8634 77.2224 55.5515 77.5395C55.2396 77.8566 54.8154 78.0361 54.3721 78.0388H22.7815C22.3382 78.0361 21.914 77.8566 21.6021 77.5395C21.2903 77.2224 21.1162 76.7937 21.1182 76.3476V57.7398C21.1156 57.2977 21.1996 56.8595 21.3654 56.4501C21.5312 56.0407 21.7755 55.6681 22.0844 55.3538C22.3934 55.0394 22.7609 54.7894 23.1659 54.6181C23.5709 54.4467 24.0055 54.3573 24.4449 54.355H52.7088C53.1481 54.3573 53.5828 54.4467 53.9878 54.6181C54.3928 54.7894 54.7603 55.0394 55.0692 55.3538C55.3781 55.6681 55.6225 56.0407 55.7883 56.4501C55.9541 56.8595 56.038 57.2977 56.0354 57.7398C56.0328 57.2979 56.1167 56.8599 56.2823 56.4506C56.4479 56.0414 56.6921 55.669 57.0007 55.3547C57.3094 55.0404 57.6766 54.7903 58.0813 54.6188C58.4861 54.4472 58.9204 54.3576 59.3595 54.355H87.6235C88.0628 54.3573 88.4974 54.4467 88.9025 54.6181C89.3075 54.7894 89.6749 55.0394 89.9839 55.3538C90.2928 55.6681 90.5372 56.0407 90.703 56.4501C90.8687 56.8595 90.9527 57.2977 90.9501 57.7398Z" fill="#6C6B6B"/>
<path d="M90.95 57.7407V76.3485C90.9502 76.6762 90.8561 76.997 90.6791 77.2721C90.5021 77.5473 90.2498 77.765 89.9526 77.8991V80.9678H58.5316V81.013H53.5441V80.9678H21.784V77.7059C21.5768 77.548 21.4089 77.3439 21.2934 77.1097C21.1778 76.8755 21.1179 76.6175 21.1182 76.356V73.9422H38.694C46.0405 73.9422 51.9955 67.8826 51.9955 60.4079V54.3608H52.7012C53.1406 54.3631 53.5752 54.4525 53.9802 54.6239C54.3852 54.7953 54.7527 55.0453 55.0617 55.3596C55.3706 55.674 55.6149 56.0465 55.7807 56.4559C55.9465 56.8653 56.0305 57.3036 56.0279 57.7457V70.5549C56.0246 70.9977 56.1083 71.4368 56.2741 71.8469C56.4399 72.2571 56.6847 72.6303 56.9942 72.945C57.3038 73.2598 57.6721 73.5099 58.078 73.681C58.4839 73.8521 58.9194 73.9409 59.3595 73.9422H73.6062C80.9527 73.9422 86.9077 67.8826 86.9077 60.4079V54.3608H87.6134C88.0532 54.3618 88.4885 54.4501 88.8943 54.6206C89.3002 54.791 89.6686 55.0404 89.9785 55.3543C90.2885 55.6683 90.5338 56.0407 90.7005 56.4501C90.8672 56.8596 90.952 57.2982 90.95 57.7407Z" fill="#30302F" fill-opacity="0.49"/>
<path d="M98.5964 70.4299V92.4226C98.5978 92.6434 98.5558 92.8622 98.4731 93.0667C98.3903 93.2712 98.2684 93.4572 98.1141 93.6143C97.9599 93.7713 97.7765 93.8963 97.5743 93.982C97.372 94.0677 97.155 94.1124 96.9356 94.1138H15.1413C14.9219 94.1124 14.7049 94.0677 14.5027 93.982C14.3005 93.8963 14.117 93.7713 13.9628 93.6143C13.8086 93.4572 13.6866 93.2712 13.6039 93.0667C13.5211 92.8622 13.4792 92.6434 13.4805 92.4226V70.4299C13.4792 70.2092 13.5211 69.9903 13.6039 69.7858C13.6866 69.5814 13.8086 69.3953 13.9628 69.2383C14.117 69.0812 14.3005 68.9563 14.5027 68.8706C14.7049 68.7849 14.9219 68.7401 15.1413 68.7388H21.7846C22.228 68.7414 22.6522 68.921 22.964 69.2381C23.2759 69.5552 23.4499 69.9838 23.4479 70.4299V82.1878H88.6215V70.4299C88.6195 69.9838 88.7936 69.5552 89.1054 69.2381C89.4173 68.921 89.8415 68.7414 90.2848 68.7388H96.9356C97.155 68.7401 97.372 68.7849 97.5743 68.8706C97.7765 68.9563 97.9599 69.0812 98.1141 69.2383C98.2684 69.3953 98.3903 69.5814 98.4731 69.7858C98.5558 69.9903 98.5978 70.2092 98.5964 70.4299V70.4299Z" fill="#8C8C8C"/>
<path d="M98.5965 70.4299V92.4226C98.5978 92.6434 98.5559 92.8622 98.4731 93.0667C98.3904 93.2712 98.2684 93.4572 98.1142 93.6143C97.9599 93.7713 97.7765 93.8963 97.5743 93.982C97.3721 94.0677 97.1551 94.1124 96.9356 94.1138H93.2773C93.7207 94.1111 94.1449 93.9315 94.4567 93.6144C94.7686 93.2973 94.9426 92.8687 94.9407 92.4226V70.4299C94.9426 69.9838 94.7686 69.5552 94.4567 69.2381C94.1449 68.921 93.7207 68.7414 93.2773 68.7388H96.9356C97.1551 68.7401 97.3721 68.7849 97.5743 68.8706C97.7765 68.9563 97.9599 69.0812 98.1142 69.2383C98.2684 69.3953 98.3904 69.5814 98.4731 69.7858C98.5559 69.9903 98.5978 70.2092 98.5965 70.4299V70.4299Z" fill="#858585"/>
<path d="M91.0555 79.8189V84.8949C91.0575 85.3409 90.8835 85.7696 90.5716 86.0867C90.2597 86.4038 89.8356 86.5834 89.3922 86.586H57.8017C57.5822 86.5847 57.3652 86.5399 57.163 86.4542C56.9608 86.3685 56.7774 86.2436 56.6231 86.0865C56.4689 85.9295 56.3469 85.7434 56.2642 85.539C56.1814 85.3345 56.1395 85.1156 56.1408 84.8949C56.1428 85.3409 55.9688 85.7696 55.6569 86.0867C55.3451 86.4038 54.9209 86.5834 54.4775 86.586H22.887C22.4436 86.5834 22.0194 86.4038 21.7076 86.0867C21.3957 85.7696 21.2217 85.3409 21.2236 84.8949V79.8189C21.2217 79.3728 21.3957 78.9441 21.7076 78.627C22.0194 78.3099 22.4436 78.1303 22.887 78.1277H54.4775C54.9209 78.1303 55.3451 78.3099 55.6569 78.627C55.9688 78.9441 56.1428 79.3728 56.1408 79.8189C56.1395 79.5981 56.1814 79.3792 56.2642 79.1747C56.3469 78.9703 56.4689 78.7842 56.6231 78.6272C56.7774 78.4701 56.9608 78.3452 57.163 78.2595C57.3652 78.1738 57.5822 78.129 57.8017 78.1277H89.3922C89.8356 78.1303 90.2597 78.3099 90.5716 78.627C90.8835 78.9441 91.0575 79.3728 91.0555 79.8189Z" fill="#30302F" fill-opacity="0.49"/>
<path d="M53.6748 79.7976V84.8098C53.6761 85.028 53.6338 85.2444 53.5504 85.4464C53.467 85.6485 53.344 85.8323 53.1885 85.9874C53.033 86.1425 52.8481 86.2658 52.6443 86.3503C52.4404 86.4348 52.2218 86.4788 52.0007 86.4797H24.5579C24.1117 86.4771 23.6847 86.2998 23.3709 85.9867C23.057 85.6736 22.8818 85.2503 22.8838 84.8098V79.7976C22.8818 79.3571 23.057 78.9338 23.3709 78.6207C23.6847 78.3076 24.1117 78.1303 24.5579 78.1277H52.0007C52.2218 78.1287 52.4404 78.1726 52.6443 78.2571C52.8481 78.3416 53.033 78.4649 53.1885 78.62C53.344 78.7751 53.467 78.959 53.5504 79.161C53.6338 79.3631 53.6761 79.5794 53.6748 79.7976V79.7976ZM87.1413 78.1277H59.6985C59.4776 78.129 59.2592 78.1732 59.0557 78.2578C58.8522 78.3425 58.6675 78.4658 58.5123 78.6209C58.3571 78.776 58.2343 78.9597 58.1511 79.1616C58.0678 79.3635 58.0256 79.5796 58.0269 79.7976V84.8098C58.0269 85.2484 58.2027 85.6691 58.5159 85.9801C58.8291 86.2912 59.2542 86.4672 59.6985 86.4698H87.1413C87.3623 86.4689 87.581 86.4249 87.7848 86.3404C87.9886 86.2559 88.1736 86.1326 88.3291 85.9775C88.4846 85.8224 88.6075 85.6386 88.691 85.4365C88.7744 85.2344 88.8167 85.0181 88.8154 84.7999V79.7976C88.8167 79.5794 88.7744 79.3631 88.691 79.161C88.6075 78.959 88.4846 78.7751 88.3291 78.62C88.1736 78.4649 87.9886 78.3416 87.7848 78.2571C87.581 78.1726 87.3623 78.1287 87.1413 78.1277V78.1277Z" fill="#6E6E6E"/>
<path d="M26.596 31.6038C26.5955 31.688 26.6038 31.7722 26.6209 31.8547L28.0324 38.8376C28.0486 38.9237 28.0736 39.0078 28.1072 39.0885L23.3217 40.0671L21.8105 32.5823L26.596 31.6038Z" fill="#30302F"/>
<path d="M22.9218 46.396L16.4655 47.7184C16.2535 47.7619 16.0349 47.763 15.8225 47.7215C15.61 47.68 15.4077 47.5967 15.2273 47.4764C15.0469 47.3562 14.8918 47.2013 14.7709 47.0206C14.65 46.84 14.5658 46.6371 14.5229 46.4236L11.296 30.483C11.2527 30.2695 11.2516 30.0495 11.2928 29.8355C11.3341 29.6216 11.4168 29.4179 11.5363 29.2361C11.6558 29.0544 11.8097 28.8981 11.9893 28.7762C12.1689 28.6544 12.3705 28.5693 12.5828 28.5259L19.039 27.2036C19.2518 27.1589 19.4713 27.1571 19.6847 27.1983C19.8982 27.2394 20.1015 27.3227 20.2828 27.4433C20.4641 27.5639 20.6198 27.7195 20.7411 27.901C20.8623 28.0825 20.9466 28.2863 20.9891 28.5008L24.2061 44.4414C24.2929 44.8719 24.2064 45.3195 23.9657 45.686C23.7249 46.0524 23.3495 46.3078 22.9218 46.396V46.396Z" fill="#6E6E6E"/>
<path d="M27.6478 30.2833L33.6502 29.0563C33.8201 29.0212 33.9951 29.0203 34.1654 29.0536C34.3356 29.0869 34.4975 29.1537 34.642 29.2503C34.7864 29.3469 34.9104 29.4712 35.0068 29.6162C35.1032 29.7612 35.1702 29.924 35.2038 30.0951L36.6178 37.0781C36.6869 37.423 36.6174 37.7816 36.4243 38.075C36.2313 38.3685 35.9305 38.573 35.5879 38.6438V38.6438L29.5879 39.8732C29.2451 39.9429 28.8888 39.8729 28.5971 39.6786C28.3054 39.4844 28.1022 39.1817 28.0319 38.837V38.837L26.6204 31.854C26.5851 31.683 26.5836 31.5066 26.6161 31.335C26.6487 31.1634 26.7146 31 26.81 30.854C26.9055 30.7081 27.0286 30.5826 27.1724 30.4846C27.3161 30.3867 27.4777 30.3183 27.6478 30.2833V30.2833Z" fill="#6E6E6E"/>
<path d="M18.3204 27.3546L13.313 28.3808L12.9389 26.5366C12.9073 26.3661 12.9433 26.1899 13.0394 26.0459C13.1355 25.9018 13.2838 25.8015 13.4526 25.7663L17.1658 25.0135C17.335 24.9776 17.5115 25.0101 17.657 25.104C17.8026 25.1979 17.9057 25.3457 17.9438 25.5154V25.5154L18.3204 27.3546Z" fill="#E97522"/>
<path d="M21.8105 32.5826L24.3217 32.0808L25.8329 39.553L23.3217 40.0549L21.8105 32.5826Z" fill="#30302F"/>
<path d="M22.1863 26.6339V26.654C22.1787 26.7968 22.2264 26.937 22.3194 27.0451C22.4124 27.1532 22.5435 27.2208 22.6851 27.2336L24.3684 27.3365C24.5099 27.3435 24.6486 27.2952 24.7555 27.2017C24.8624 27.1081 24.9292 26.9766 24.9419 26.8346V26.8146C24.9496 26.6718 24.9019 26.5315 24.8089 26.4234C24.7158 26.3153 24.5847 26.2477 24.4432 26.235L22.7599 26.1296C22.618 26.1226 22.4789 26.1712 22.372 26.2653C22.265 26.3593 22.1984 26.4915 22.1863 26.6339V26.6339Z" fill="#83BCDC"/>
<path d="M21.375 24.0776V24.06C21.2802 23.951 21.2318 23.8089 21.2402 23.6644C21.2486 23.5198 21.3131 23.3843 21.4198 23.2872L22.6867 22.1606C22.7949 22.0678 22.9346 22.021 23.0765 22.0299C23.2184 22.0388 23.3513 22.1027 23.4472 22.2083C23.4989 22.2618 23.5393 22.3253 23.5659 22.395C23.5924 22.4647 23.6047 22.5391 23.6019 22.6137C23.5991 22.6882 23.5813 22.7615 23.5496 22.829C23.5179 22.8964 23.4729 22.9567 23.4173 23.0062L22.1505 24.1353C22.0399 24.2308 21.8962 24.2784 21.7509 24.2675C21.6055 24.2567 21.4704 24.1884 21.375 24.0776V24.0776Z" fill="#83BCDC"/>
<path d="M18.9701 22.9759H18.9477C18.8064 22.9625 18.6756 22.8948 18.5827 22.7868C18.4898 22.6788 18.4419 22.539 18.4489 22.3963L18.5512 20.7051C18.5639 20.5632 18.6307 20.4316 18.7376 20.3381C18.8445 20.2446 18.9832 20.1963 19.1247 20.2033H19.1472C19.2885 20.2167 19.4192 20.2845 19.5121 20.3924C19.605 20.5004 19.653 20.6403 19.6459 20.7829L19.5412 22.4666C19.5303 22.6094 19.4647 22.7425 19.3581 22.8375C19.2515 22.9326 19.1124 22.9822 18.9701 22.9759V22.9759Z" fill="#83BCDC"/>
<path d="M73.3027 73.355L71.8064 68.7056C71.761 68.5687 71.7366 68.4257 71.7341 68.2815L71.0982 43.6919V46.1885C71.0973 47.0957 70.9421 47.9961 70.6394 48.8507L67.4873 57.8836L68.395 59.2411C70.6417 62.581 71.8421 66.5218 71.8414 70.5548C71.8415 71.5196 71.7462 72.482 71.5571 73.4278L70.6593 77.8991H72.0758C72.4303 77.8991 72.7702 77.7574 73.0209 77.5052C73.2716 77.2529 73.4124 76.9109 73.4124 76.5542V74.045C73.4121 73.8106 73.3751 73.5778 73.3027 73.355V73.355Z" fill="#E6B8B8"/>
<path d="M76.3347 44.5085C75.9307 41.4122 73.5467 41.7083 73.1427 38.6145C72.7387 35.5208 75.1227 35.2297 74.7187 32.1359C74.3147 29.0421 71.9307 29.3357 71.5267 26.2419V24.3701H49.2029V26.2419C48.8014 29.3407 46.4249 29.0447 46.0134 32.1359C45.6019 35.2272 47.9909 35.5208 47.5869 38.6145C47.183 41.7083 44.8014 41.4172 44.3975 44.5085V45.2613C44.4119 45.9669 44.7032 46.6382 45.2078 47.1285C45.7124 47.6188 46.3893 47.8884 47.0907 47.8783H73.2748C74.0717 47.8931 74.8417 47.589 75.4159 47.0329C75.9901 46.4769 76.3214 45.7142 76.3371 44.9125V44.5261L76.3347 44.5085Z" fill="#474748"/>
<path d="M70.7237 34.5598C71.6863 32.4069 66.028 25.9835 64.5667 24.3701H63.3198L57.2351 26.8793L49.6143 28.8866C49.6143 28.8866 52.5145 35.7365 52.1903 37.5783C51.8661 39.42 48.8337 42.5263 51.1629 46.2122C51.5469 46.827 52.3299 47.374 53.3573 47.8632H72.0902C74.0628 44.2676 73.1251 42.5163 71.8409 40.928C70.215 38.9156 69.6165 37.0363 70.7237 34.5598Z" fill="#30302F"/>
<path d="M59.7803 76.9529H67.7602L66.1268 88.9466L64.8799 95.6611L65.0171 96.9784L64.4061 100.604C63.9744 100.398 63.5025 100.291 63.0246 100.29H61.1892C60.8333 100.291 60.48 100.352 60.1443 100.471L59.7578 96.9733L60.0421 95.5206L59.7703 88.8839V76.9529H59.7803Z" fill="#E6AFAC"/>
<path d="M58.6445 101.071L58.7417 100.878L59.7866 96.9709L60.1706 100.484L60.4624 101.916H64.1606L64.4324 100.592L65.0409 96.9634L65.7192 100.868L65.799 101.061C65.8969 101.286 65.9478 101.53 65.9486 101.776C65.9682 102.228 65.8088 102.669 65.5054 103.003C65.202 103.337 64.7794 103.537 64.3302 103.557H60.1407C59.8484 103.556 59.5614 103.479 59.3074 103.333C59.0534 103.188 58.841 102.979 58.6906 102.727C58.5402 102.474 58.457 102.188 58.4489 101.894C58.4408 101.6 58.5082 101.308 58.6445 101.048V101.071Z" fill="#F9A7A7"/>
<path d="M58.4471 101.834C58.5693 101.189 59.6416 97.7064 59.7788 96.9712L60.1653 100.484C61.4122 100.198 63.2251 100.125 64.4271 100.617L65.0381 96.9888L65.7139 100.895C65.9005 101.255 65.976 101.662 65.9308 102.065V102.065C65.8793 102.476 65.6822 102.854 65.3758 103.131C65.0693 103.407 64.6741 103.563 64.2625 103.57C62.7912 103.332 58.3274 104.494 58.4446 101.834H58.4471Z" fill="#30302F"/>
<path d="M61.8236 81.5874H53.8262L55.4695 93.5937L56.7039 100.308L56.5668 101.625L57.1777 105.251C57.6095 105.045 58.0814 104.938 58.5593 104.938H60.3897C60.7455 104.939 61.0985 105 61.4345 105.118L61.8211 101.62L61.5517 100.163L61.8211 93.5259V81.5874H61.8236Z" fill="#FFC2BF"/>
<path d="M67.6675 40.7652H64.3957V38.3564C63.2349 38.8532 61.9864 39.1093 60.7249 39.1093C59.4635 39.1093 58.215 38.8532 57.0542 38.3564V40.7652H53.7824C51.8872 40.7652 50.3535 42.0775 50.3535 43.6984V46.195C50.3551 47.0993 50.5086 47.9968 50.8074 48.8497L53.9619 57.8826H67.4755L70.6425 48.8497C70.9414 47.9978 71.094 47.1009 71.0939 46.1975V43.6884C71.0939 42.075 69.5602 40.7652 67.6675 40.7652Z" fill="#FFC2BF"/>
<path d="M70.1359 26.2423H70.0761V25.3641C70.0761 22.8686 69.0908 20.4753 67.3371 18.7108C65.5834 16.9462 63.2048 15.9548 60.7246 15.9548C58.2444 15.9548 55.8658 16.9462 54.1121 18.7108C52.3584 20.4753 51.3731 22.8686 51.3731 25.3641V26.2448H51.3158C50.5724 26.2351 49.8552 26.5203 49.3193 27.0387C48.7833 27.5571 48.4718 28.267 48.4522 29.0147C48.4325 29.7624 48.7062 30.4879 49.2142 31.034C49.7221 31.5802 50.4233 31.9032 51.1661 31.9331C51.216 31.9331 51.2659 31.9331 51.3158 31.9331C51.4174 31.9356 51.5191 31.9306 51.62 31.918C52.1153 33.9712 53.282 35.7974 54.9327 37.1033C56.5833 38.4092 58.6223 39.1192 60.7221 39.1192C62.8219 39.1192 64.8609 38.4092 66.5115 37.1033C68.1622 35.7974 69.3289 33.9712 69.8242 31.918C69.924 31.918 70.0187 31.9331 70.1309 31.9331C70.5054 31.9483 70.8791 31.8884 71.2304 31.757C71.5817 31.6256 71.9035 31.4253 72.1772 31.1676C72.4508 30.91 72.6708 30.6002 72.8244 30.2562C72.978 29.9122 73.0622 29.541 73.0719 29.164C73.0817 28.7871 73.0168 28.4119 72.8812 28.0604C72.7456 27.7089 72.5419 27.388 72.2819 27.1163C72.022 26.8447 71.711 26.6278 71.367 26.4782C71.0229 26.3286 70.6528 26.2492 70.2781 26.2448H70.1309L70.1359 26.2423Z" fill="#FFCFCD"/>
<path d="M60.7293 39.1104C62.8296 39.1163 64.8705 38.4091 66.5218 37.1032C68.1732 35.7973 69.3384 33.969 69.8289 31.9142C69.9287 31.9142 70.0234 31.9317 70.1356 31.9317C70.5101 31.9469 70.8838 31.8871 71.2351 31.7557C71.5864 31.6243 71.9082 31.4239 72.1819 31.1663C72.4555 30.9086 72.6755 30.5988 72.8291 30.2549C72.9827 29.9109 73.0668 29.5397 73.0766 29.1627C73.0863 28.7857 73.0215 28.4106 72.8859 28.0591C72.7503 27.7075 72.5466 27.3866 72.2866 27.115C72.0267 26.8434 71.7157 26.6265 71.3717 26.4768C71.0276 26.3272 70.6575 26.2479 70.2828 26.2435H70.0758V25.3653C70.058 23.7972 69.6515 22.2584 68.8931 20.8884C68.1348 19.5184 67.0486 18.3605 65.733 17.5197C64.4174 16.6789 62.914 16.1818 61.3592 16.0735C59.8044 15.9652 58.2473 16.2491 56.8291 16.8994L57.7393 25.7316C62.6544 25.9499 63.8041 23.9075 63.8041 23.9075C63.8041 23.9075 68.3925 24.733 68.5671 28.3612C68.7416 31.9894 66.3876 39.1104 60.7293 39.1104Z" fill="#E6B8B8"/>
<g opacity="0.6">
<path opacity="0.6" d="M60.1556 100.474C60.4916 100.357 60.8447 100.296 61.2005 100.294H60.1406L60.1556 100.474Z" fill="#E6B8B8"/>
<path opacity="0.6" d="M67.7719 76.9517H66.5524L64.9091 88.9579L63.6622 95.6724L63.7969 96.9897L63.2383 100.317C63.6426 100.344 64.0384 100.447 64.4053 100.62V100.62L65.0163 96.9922L64.8792 95.6749L66.126 88.9604L67.7719 76.9517Z" fill="#E6B8B8"/>
</g>
<path d="M50.7821 42.155L43.3807 50.7965C42.9352 51.2905 42.6885 51.9336 42.6885 52.6006C42.6885 53.2676 42.9352 53.9107 43.3807 54.4047L49.2609 60.8783C49.3466 60.972 49.4039 61.0884 49.4259 61.2137C49.448 61.3391 49.434 61.4682 49.3856 61.5858L48.4878 63.7763C48.1581 64.5861 48.1219 65.4867 48.3856 66.3206L49.5427 69.9714H49.61C49.72 66.1386 50.9119 62.4164 53.0464 59.2398V59.2398L53.0663 59.2097L49.4205 53.8828C49.3276 53.7478 49.2874 53.583 49.3077 53.4201C49.3279 53.2571 49.4071 53.1074 49.5302 52.9996L51.6075 51.1729L50.817 48.8494C50.5173 47.9977 50.3638 47.1008 50.3631 46.1973V43.6881C50.3647 43.5006 50.3864 43.3139 50.4279 43.1311" fill="#FFC2BF"/>
<path d="M68.687 40.8957C68.3558 40.8082 68.0146 40.7643 67.6721 40.7652H64.4003V38.3564C63.3474 38.8101 62.2207 39.0652 61.0762 39.1092V39.1092C61.0762 41.7011 63.8018 42.1754 64.7345 42.1879C68.2781 42.2381 68.2257 43.4425 68.2257 43.4425C68.5423 42.6317 68.699 41.7667 68.687 40.8957V40.8957Z" fill="#E6B8B8"/>
<g opacity="0.6">
<path opacity="0.6" d="M61.8251 81.5876H60.3563V93.5337L60.0795 100.165L60.3513 101.623L59.9922 104.94H60.3912C60.7471 104.941 61.1004 105.002 61.4361 105.121L61.8226 101.623L61.5533 100.165L61.8226 93.5287L61.8251 81.5876Z" fill="#E6B8B8"/>
<path opacity="0.6" d="M57.1793 105.253C57.611 105.047 58.0829 104.94 58.5608 104.94H57.127L57.1793 105.253Z" fill="#E6B8B8"/>
</g>
<path d="M68.3944 59.2413L67.4867 57.8864L70.6388 48.8534C70.9373 48.0014 71.0907 47.1047 71.0926 46.2013V43.6921C71.0902 43.5046 71.0676 43.3178 71.0253 43.1351C70.9428 42.5496 70.6675 42.0089 70.2434 41.5995C69.8193 41.19 69.271 40.9356 68.6862 40.8769C68.711 42.5088 68.1414 44.0935 67.0848 45.3318C66.0282 46.5702 64.5576 47.3766 62.9506 47.5989C62.3311 47.6772 61.7072 47.7157 61.0828 47.7143C59.5923 47.7449 58.1089 47.5 56.7063 46.9917C55.4981 46.5153 54.4716 45.6647 53.7755 44.5628C53.0793 43.4609 52.7494 42.1648 52.8336 40.8618C50.4171 41.1479 50.3772 43.4914 50.3772 43.6796V46.1762C50.3719 47.0868 50.5221 47.9915 50.8211 48.8509L53.9732 57.8839L53.068 59.2388C50.8208 62.5796 49.6196 66.521 49.6191 70.555C49.6223 71.5244 49.7217 72.4911 49.9159 73.4406L50.5318 76.5168C50.942 78.5551 51.4589 80.5703 52.0804 82.5538C58.5317 81.2992 62.3546 86.7591 68.0578 85.2837L70.0702 84.7618L71.5664 73.4406C71.7556 72.4947 71.8508 71.5324 71.8507 70.5676C71.8495 66.5294 70.6456 62.5843 68.3944 59.2413Z" fill="#89C3E8"/>
<path d="M56.5204 25.8387H49.5928C49.4918 25.839 49.3916 25.8193 49.2981 25.7806C49.2047 25.7419 49.1197 25.685 49.0481 25.6132C48.9765 25.5414 48.9197 25.4561 48.881 25.3622C48.8422 25.2683 48.8223 25.1676 48.8223 25.0659V20.6724C48.8223 18.6959 49.6026 16.8005 50.9915 15.4029C52.3805 14.0054 54.2643 13.2202 56.2286 13.2202H59.8919C60.7802 13.2215 61.6316 13.5773 62.2595 14.2096C62.8874 14.8418 63.2403 15.6988 63.241 16.5925V19.069C63.241 20.8658 62.5316 22.589 61.2689 23.8595C60.0062 25.13 58.2937 25.8437 56.5079 25.8437V25.8437L56.5204 25.8387Z" fill="#474748"/>
<path d="M71.1135 24.8375H69.7494C68.8945 24.8378 68.0478 24.6687 67.2579 24.3397C66.4679 24.0107 65.7501 23.5284 65.1455 22.9203C64.5409 22.3121 64.0612 21.5901 63.734 20.7953C63.4067 20.0006 63.2383 19.1488 63.2383 18.2886V18.2886V16.1257C63.2383 15.5865 63.451 15.0693 63.8298 14.6877C64.2085 14.3062 64.7223 14.0915 65.2582 14.0908H65.6622C67.3156 14.0908 68.9014 14.7517 70.0705 15.9281C71.2397 17.1045 71.8965 18.7 71.8965 20.3637V24.0647C71.8965 24.1664 71.8766 24.2671 71.8378 24.361C71.7991 24.4549 71.7423 24.5402 71.6707 24.612C71.5991 24.6838 71.5141 24.7407 71.4206 24.7794C71.3272 24.8181 71.227 24.8378 71.1259 24.8375H71.1135Z" fill="#474748"/>
<path d="M62.959 105.718L62.8617 105.525L61.8243 101.626L61.4403 105.139L61.1385 106.582H57.4478L57.1785 105.254L56.5675 101.628L55.9017 105.53L55.8194 105.726C55.7224 105.951 55.6716 106.193 55.6698 106.439C55.6594 106.663 55.6932 106.887 55.7691 107.098C55.8451 107.309 55.9617 107.503 56.1123 107.668C56.2629 107.834 56.4446 107.968 56.6468 108.062C56.849 108.157 57.0679 108.211 57.2907 108.22H61.4577C61.7503 108.219 62.0377 108.143 62.2921 107.997C62.5465 107.852 62.7593 107.643 62.9098 107.39C63.0603 107.138 63.1435 106.851 63.1512 106.556C63.159 106.262 63.091 105.971 62.954 105.711L62.959 105.718Z" fill="#F9A7A7"/>
<path d="M63.151 106.481C63.1441 106.219 63.0775 105.961 62.9565 105.729L62.8592 105.535L61.8243 101.636L61.4403 105.134C61.1042 105.016 60.7512 104.955 60.3954 104.953H58.5526C58.0743 104.953 57.6022 105.061 57.171 105.269V105.269L56.5626 101.639L55.8843 105.545L55.802 105.739C55.7052 105.965 55.6543 106.208 55.6523 106.454C55.6523 106.538 55.6582 106.622 55.6698 106.705V106.705V106.735C55.6784 106.797 55.6909 106.859 55.7072 106.92C55.7197 106.966 55.7296 107.011 55.7446 107.056C55.7596 107.101 55.787 107.169 55.8119 107.224C55.8369 107.279 55.8518 107.309 55.8768 107.352C55.9017 107.395 55.9366 107.45 55.969 107.498L56.0613 107.618C56.0937 107.656 56.1336 107.698 56.171 107.736L56.2957 107.844C56.3338 107.876 56.3738 107.907 56.4154 107.934C56.4668 107.967 56.5201 107.998 56.575 108.025C56.6299 108.05 56.6548 108.067 56.6972 108.085C56.7641 108.111 56.8324 108.134 56.9017 108.152C56.9366 108.152 56.9715 108.175 57.0114 108.183C57.1213 108.206 57.2332 108.219 57.3456 108.22H61.4403C61.779 108.22 62.1098 108.118 62.3904 107.927C62.5711 107.804 62.7261 107.647 62.8468 107.465C63.0368 107.184 63.1385 106.852 63.1385 106.511V106.481H63.151Z" fill="#30302F"/>
<path d="M70.061 84.7565C70.6395 80.3831 71.5572 73.4302 71.5572 73.4302C71.7453 72.4834 71.8406 71.5203 71.8415 70.5547C71.8407 66.5219 70.6404 62.5817 68.3952 59.241L67.4875 57.8861L70.6395 48.8532C70.938 48.0011 71.0915 47.1044 71.0934 46.201V45.1246C71.0934 45.1246 71.8415 41.3207 68.6869 40.8992C68.4625 43.0721 68.2281 43.4309 68.2281 43.4309C66.2755 53.2015 64.1309 58.1345 64.1309 58.1345C64.1309 58.1345 68.0535 68.698 67.7717 72.6875C67.056 82.7592 64.5299 83.1582 57.0312 82.7818C62.1559 84.0816 64.0586 86.8542 70.061 84.7565Z" fill="#6DB8E8"/>
<path d="M53.0841 59.2094L49.4383 53.8824C49.3454 53.7474 49.3052 53.5827 49.3255 53.4197C49.3457 53.2568 49.425 53.1071 49.548 52.9992L51.6253 51.1726L51.0193 49.4287C49.6428 50.204 47.1491 51.6995 47.2264 52.7132C47.3336 54.0857 51.6852 59.3348 51.3211 60.8002C50.957 62.2655 48.9296 64.1925 49.755 68.2122C50.1247 64.9935 51.2588 61.9116 53.0617 59.2269L53.0841 59.2094Z" fill="#E6B8B8"/>
<path d="M60.5121 108.22H61.4548C61.7927 108.22 62.1227 108.117 62.4024 107.927C62.6327 107.77 62.8214 107.56 62.9519 107.313C63.0823 107.066 63.1505 106.791 63.1505 106.511V106.481C63.1456 106.219 63.0799 105.961 62.9585 105.729L62.8612 105.535L61.8238 101.636L61.4398 105.134C61.1037 105.016 60.7507 104.955 60.3949 104.953H60.3525C60.6942 105.734 61.2303 107.329 60.5121 108.22Z" fill="#585858"/>
<path d="M64.5717 103.535C64.6095 103.529 64.6463 103.518 64.6814 103.502C64.7466 103.484 64.8107 103.462 64.8734 103.437C64.9158 103.419 64.9557 103.397 64.9956 103.377C65.0355 103.357 65.1054 103.319 65.1577 103.286L65.2749 103.196L65.4021 103.088C65.4395 103.051 65.4744 103.01 65.5093 102.968C65.5442 102.925 65.5742 102.89 65.6041 102.85C65.634 102.81 65.6664 102.754 65.6964 102.704C65.7263 102.654 65.7388 102.619 65.7612 102.576C65.7836 102.534 65.8086 102.463 65.8285 102.408C65.8485 102.353 65.8535 102.318 65.8659 102.273C65.8784 102.228 65.8934 102.15 65.9033 102.087V102.057C65.9152 101.974 65.9202 101.89 65.9183 101.806C65.9175 101.56 65.8666 101.316 65.7687 101.091L65.6889 100.898L65.0106 96.991L64.3996 100.619C64.1161 100.485 63.8144 100.394 63.5044 100.348C63.5081 100.36 63.5146 100.37 63.5233 100.378C63.532 100.387 63.5427 100.393 63.5543 100.396C64.0904 100.486 63.9782 103.407 63.1328 103.58H64.2176C64.337 103.579 64.4558 103.564 64.5717 103.535V103.535Z" fill="#585858"/>
<path d="M62.47 58.5049C62.6919 59.4483 62.9687 61.265 63.2405 63.621C63.2553 63.7586 63.3199 63.8858 63.422 63.9784C63.5242 64.071 63.6567 64.1224 63.7941 64.1229H63.859C63.9325 64.1154 64.0038 64.0933 64.0688 64.0579C64.1338 64.0224 64.1911 63.9744 64.2375 63.9165C64.2839 63.8586 64.3184 63.7921 64.339 63.7207C64.3597 63.6493 64.366 63.5745 64.3577 63.5006C64.0884 61.2047 63.8191 59.3981 63.5922 58.387H62.465C62.4625 58.4263 62.4642 58.4659 62.47 58.5049V58.5049Z" fill="#6DB8E8"/>
<path d="M57.605 64.1126H57.6723C57.8095 64.1121 57.9417 64.0606 58.0435 63.9679C58.1452 63.8753 58.2093 63.7481 58.2234 63.6108C58.4903 61.3525 58.7546 59.5635 58.9716 58.5925C58.9831 58.5373 58.9873 58.4807 58.984 58.4244V58.3591H57.8693V58.4294C57.6474 59.4456 57.3706 61.2296 57.1212 63.4728C57.1104 63.5469 57.1143 63.6224 57.1329 63.6949C57.1514 63.7675 57.1842 63.8355 57.2293 63.8951C57.2743 63.9548 57.3308 64.0047 57.3953 64.042C57.4598 64.0794 57.5311 64.1034 57.605 64.1126V64.1126Z" fill="#6DB8E8"/>
<path d="M67.3549 57.4287H54.0958C53.8493 57.4287 53.6494 57.6298 53.6494 57.8778V58.3646C53.6494 58.6127 53.8493 58.8138 54.0958 58.8138H67.3549C67.6015 58.8138 67.8013 58.6127 67.8013 58.3646V57.8778C67.8013 57.6298 67.6015 57.4287 67.3549 57.4287Z" fill="#E0EBFC"/>
<path d="M60.7238 59.6592C62.0005 59.6592 63.0355 58.9706 63.0355 58.1211C63.0355 57.2716 62.0005 56.583 60.7238 56.583C59.4471 56.583 58.4121 57.2716 58.4121 58.1211C58.4121 58.9706 59.4471 59.6592 60.7238 59.6592Z" fill="white"/>
<g opacity="0.7">
<path opacity="0.7" d="M58.4873 58.533C58.7566 59.1804 59.6344 59.6546 60.7142 59.6546C61.9885 59.6546 63.0234 58.9671 63.0234 58.1215C63.0072 57.8782 62.9268 57.6437 62.7905 57.4421C62.6542 57.2406 62.4668 57.0793 62.2478 56.9749C62.303 57.106 62.3327 57.2465 62.3351 57.3889C62.3351 58.2344 61.2977 58.9219 60.0234 58.9219C59.4865 58.9285 58.9572 58.7945 58.4873 58.533V58.533Z" fill="#D3CDBF"/>
</g>
<path d="M60.691 19.7438C65.3468 19.7438 69.2121 21.849 70.0749 26.2375C70.1348 26.2375 70.2121 26.2375 70.2819 26.2375C70.3667 25.6553 70.267 24.5614 70.267 24.0394C70.2264 21.5113 69.1998 19.1005 67.4086 17.3271C65.6174 15.5537 63.2052 14.5598 60.6923 14.5598C58.1794 14.5598 55.7671 15.5537 53.976 17.3271C52.1848 19.1005 51.1582 21.5113 51.1176 24.0394C51.1176 24.5614 50.983 25.6578 51.0852 26.2425C51.1825 26.2425 51.2598 26.2425 51.3795 26.2425C52.2423 21.859 56.0378 19.7438 60.691 19.7438Z" fill="#E97522"/>
<path d="M67.3154 17.1599C67.8142 17.737 68.4501 21.1745 67.5648 21.9273C68.8743 23.0294 69.7571 24.5597 70.0585 26.2505C70.1184 26.2505 70.1957 26.2505 70.2655 26.2505C70.3503 25.6684 70.2505 24.5744 70.2505 24.0525C70.2536 22.7631 69.9949 21.4866 69.4901 20.3014C68.9854 19.1161 68.2454 18.0471 67.3154 17.1599V17.1599Z" fill="black" fill-opacity="0.32"/>
<path d="M49.9889 30.304C49.9249 30.3072 49.8646 30.335 49.8205 30.3817C49.7764 30.4285 49.7519 30.4904 49.752 30.5549V32.231C49.7677 32.2821 49.7994 32.3268 49.8422 32.3586C49.8851 32.3903 49.9369 32.4075 49.9901 32.4075C50.0433 32.4075 50.0951 32.3903 50.138 32.3586C50.1808 32.3268 50.2125 32.2821 50.2283 32.231V30.5448C50.2258 30.4817 50.1998 30.4219 50.1554 30.3773C50.111 30.3326 50.0516 30.3064 49.9889 30.304V30.304Z" fill="#D8E2F2"/>
<path d="M70.7242 30.304C70.6603 30.3072 70.6 30.335 70.5559 30.3817C70.5118 30.4285 70.4872 30.4904 70.4873 30.5549V32.231C70.5031 32.2821 70.5347 32.3268 70.5776 32.3586C70.6204 32.3903 70.6722 32.4075 70.7255 32.4075C70.7787 32.4075 70.8305 32.3903 70.8733 32.3586C70.9162 32.3268 70.9478 32.2821 70.9636 32.231V30.5448C70.9611 30.4817 70.9351 30.4219 70.8908 30.3773C70.8464 30.3326 70.7869 30.3064 70.7242 30.304V30.304Z" fill="#D8E2F2"/>
<path d="M51.1783 33.6228C51.1917 33.7852 51.1706 33.9486 51.1164 34.1021C51.0623 34.2557 50.9763 34.3959 50.8641 34.5135C50.697 34.6954 50.4779 34.8208 50.2371 34.8724C49.9963 34.9239 49.7455 34.8992 49.5192 34.8016C49.2929 34.704 49.1022 34.5382 48.9733 34.3272C48.8444 34.1161 48.7836 33.87 48.7993 33.6228C48.7993 33.008 49.4776 32.3406 49.7968 32.0495C49.8458 32.0014 49.911 31.9736 49.9794 31.9718C50.0478 31.9699 50.1144 31.9941 50.1659 32.0395C50.5025 32.3406 51.1783 33.008 51.1783 33.6228Z" fill="#E0EBFC"/>
<path d="M71.9139 33.6224C71.9289 33.7838 71.9098 33.9467 71.8578 34.1002C71.8058 34.2538 71.7221 34.3945 71.6122 34.5131C71.445 34.695 71.226 34.8204 70.9851 34.872C70.7443 34.9235 70.4935 34.8988 70.2672 34.8012C70.0409 34.7036 69.8502 34.5378 69.7213 34.3268C69.5924 34.1157 69.5316 33.8696 69.5474 33.6224C69.5474 33.0076 70.2256 32.3402 70.5573 32.0491C70.6069 32.0052 70.6708 31.981 70.7369 31.981C70.803 31.981 70.8668 32.0052 70.9164 32.0491C71.2356 32.3402 71.9139 33.0076 71.9139 33.6224Z" fill="#E0EBFC"/>
<path d="M49.8019 33.0799L49.7745 33.115C49.6885 33.2007 49.6218 33.3039 49.5788 33.4178C49.5358 33.5316 49.5175 33.6534 49.5251 33.7749C49.5367 33.8295 49.5661 33.8786 49.6085 33.9145C49.651 33.9504 49.7041 33.971 49.7595 33.9731H49.7994C49.8598 33.9593 49.9129 33.9234 49.9483 33.8724C49.9838 33.8213 49.9992 33.7589 49.9915 33.6971C49.9915 33.6294 50.0862 33.4964 50.1486 33.4161L50.1785 33.3784C50.2111 33.3563 50.238 33.3266 50.257 33.292C50.2761 33.2574 50.2867 33.2187 50.288 33.1791C50.2894 33.1395 50.2814 33.1002 50.2647 33.0643C50.2481 33.0285 50.2232 32.9971 50.1922 32.9727C50.1612 32.9484 50.1248 32.9318 50.0862 32.9243C50.0476 32.9167 50.0077 32.9185 49.9699 32.9294C49.9321 32.9404 49.8974 32.9602 49.8686 32.9872C49.8399 33.0142 49.8179 33.0477 49.8044 33.0849L49.8019 33.0799Z" fill="white"/>
<path d="M70.8636 33.0431C70.8127 33.0069 70.7502 32.9912 70.6883 32.9991C70.6265 33.007 70.5698 33.0379 70.5295 33.0857L70.502 33.1209C70.4161 33.2066 70.3493 33.3098 70.3063 33.4236C70.2633 33.5375 70.245 33.6592 70.2527 33.7808C70.2643 33.8353 70.2936 33.8844 70.3361 33.9203C70.3785 33.9562 70.4317 33.9769 70.4871 33.979H70.527C70.5873 33.9652 70.6404 33.9293 70.6759 33.8782C70.7114 33.8272 70.7267 33.7648 70.719 33.703C70.7065 33.6352 70.8138 33.5023 70.8761 33.422L70.906 33.3843C70.9435 33.3327 70.9599 33.2687 70.9521 33.2052C70.9442 33.1418 70.9126 33.0838 70.8636 33.0431Z" fill="white"/>
<path opacity="0.8" d="M100.425 25.331C99.7546 27.1476 97.6823 31.8422 93.9642 33.0391C93.9078 33.0567 93.8585 33.0921 93.8234 33.1399C93.7884 33.1878 93.7695 33.2456 93.7695 33.3051C93.7695 33.3645 93.7884 33.4224 93.8234 33.4702C93.8585 33.5181 93.9078 33.5534 93.9642 33.571C97.7297 34.6575 99.7621 38.9406 100.423 40.5966C100.444 40.6473 100.48 40.6904 100.526 40.7208C100.572 40.7511 100.625 40.7673 100.68 40.7673C100.735 40.7673 100.788 40.7511 100.834 40.7208C100.879 40.6904 100.915 40.6473 100.937 40.5966C101.685 38.913 103.994 34.5044 107.976 33.6037C108.035 33.5886 108.087 33.5548 108.125 33.5073C108.163 33.4599 108.185 33.4013 108.186 33.3405C108.188 33.2797 108.171 33.2199 108.136 33.17C108.101 33.1202 108.051 33.083 107.994 33.0642C103.897 31.6566 101.667 27.0824 100.937 25.3034C100.912 25.2545 100.874 25.2139 100.827 25.1864C100.78 25.159 100.726 25.1459 100.672 25.1488C100.618 25.1518 100.566 25.1706 100.522 25.2029C100.478 25.2353 100.444 25.2798 100.425 25.331V25.331Z" fill="#E97522"/>
<path d="M93.1822 23.28C91.9353 22.4996 89.4067 20.54 88.5738 17.1878C88.479 16.8089 88.1399 16.8189 88.0551 17.2028C87.307 20.5826 84.9828 22.5172 83.8532 23.285C83.7464 23.3935 83.6865 23.54 83.6865 23.6927C83.6865 23.8454 83.7464 23.9919 83.8532 24.1005C84.9953 24.9636 87.3743 27.1441 88.0451 30.7271C88.1199 31.1236 88.469 31.1587 88.5663 30.7723C89.2766 28.067 90.9198 25.704 93.2021 24.1055C93.2555 24.0504 93.2974 23.9851 93.3254 23.9135C93.3534 23.8419 93.3668 23.7654 93.3649 23.6885C93.3631 23.6116 93.346 23.5358 93.3146 23.4657C93.2832 23.3955 93.2382 23.3324 93.1822 23.28V23.28Z" fill="#E97522"/>
<path d="M91.1577 41.3424C90.457 40.8882 89.0231 39.7491 88.5493 37.7995C88.4969 37.5787 88.2999 37.5837 88.2575 37.7995C87.933 39.237 87.084 40.4996 85.8785 41.3374C85.8185 41.4016 85.7852 41.4864 85.7852 41.5745C85.7852 41.6626 85.8185 41.7474 85.8785 41.8116C87.1086 42.7633 87.9517 44.1335 88.25 45.6656C88.2924 45.8965 88.4994 45.9166 88.5443 45.6932C88.9397 44.1347 89.8664 42.7654 91.1627 41.8241C91.1941 41.7923 91.2188 41.7545 91.2355 41.713C91.2523 41.6715 91.2607 41.627 91.2602 41.5822C91.2597 41.5374 91.2504 41.4931 91.2328 41.452C91.2153 41.4108 91.1897 41.3736 91.1577 41.3424V41.3424Z" fill="#E97522"/>
</svg>
