<svg width="121" height="121" viewBox="0 0 121 121" fill="none" xmlns="http://www.w3.org/2000/svg">
<path d="M14.2627 47.3442H95.6767V100.642C95.6771 101.111 95.5841 101.577 95.403 102.01C95.2219 102.444 94.9564 102.837 94.6218 103.168C93.9443 103.838 93.0298 104.216 92.0756 104.22H17.9002C16.9459 104.216 16.0315 103.838 15.3539 103.168C15.0127 102.84 14.7405 102.448 14.5531 102.014C14.3657 101.581 14.267 101.114 14.2627 100.642V47.3442Z" fill="#E8F0F9"/>
<path d="M90.2713 47.3442V100.642C90.2579 101.595 89.8687 102.505 89.188 103.175C88.5073 103.845 87.5897 104.22 86.6338 104.22H92.1045C93.0588 104.216 93.9733 103.838 94.6508 103.168C94.9854 102.837 95.2509 102.444 95.432 102.01C95.6131 101.577 95.7061 101.111 95.7056 100.642V47.3442H90.2713Z" fill="#D2E2EB"/>
<path d="M95.6767 47.3444H14.2627V36.2537C14.2629 35.783 14.3562 35.317 14.5372 34.8823C14.7182 34.4476 14.9834 34.0529 15.3176 33.7206C15.658 33.3856 16.0614 33.1208 16.5046 32.9414C16.9477 32.7621 17.422 32.6717 17.9002 32.6754H92.1046C93.0579 32.6775 93.9722 33.0528 94.6509 33.7206C94.9851 34.0529 95.2503 34.4476 95.4313 34.8823C95.6123 35.317 95.7055 35.783 95.7057 36.2537L95.6767 47.3444Z" fill="#306694"/>
<path d="M92.1053 32.6754H86.6709C87.1462 32.6687 87.618 32.7563 88.0591 32.9331C88.5001 33.1099 88.9015 33.3724 89.24 33.7053C89.5784 34.0383 89.8472 34.435 90.0306 34.8725C90.214 35.31 90.3084 35.7795 90.3084 36.2537V47.3444H95.7137V36.2537C95.7135 35.783 95.6202 35.317 95.4392 34.8823C95.2582 34.4476 94.993 34.0529 94.6588 33.7206C93.9783 33.051 93.061 32.6756 92.1053 32.6754V32.6754Z" fill="white" fill-opacity="0.12"/>
<path d="M24.3525 95.9901V18.7258C24.3525 18.3963 24.4177 18.0701 24.5443 17.7658C24.6709 17.4615 24.8564 17.1852 25.0902 16.9526C25.3241 16.7199 25.6016 16.5356 25.907 16.4102C26.2123 16.2848 26.5395 16.2207 26.8697 16.2217H83.0687C83.7357 16.2217 84.3756 16.485 84.8486 16.9542C85.3216 17.4234 85.5892 18.0603 85.5931 18.7258V95.9901C85.5939 96.3195 85.5271 96.6455 85.3966 96.9481C85.1405 97.562 84.6515 98.0499 84.0362 98.3054C83.7289 98.4299 83.4004 98.494 83.0687 98.4942H26.8697C26.5404 98.4933 26.2144 98.4292 25.9094 98.3054C25.6018 98.1804 25.3223 97.9953 25.0873 97.7611C24.8527 97.5293 24.6672 97.2528 24.5417 96.9481C24.417 96.644 24.3527 96.3186 24.3525 95.9901V95.9901Z" fill="white"/>
<path d="M83.0691 16.2211H79.4316C79.7621 16.2183 80.0898 16.281 80.3958 16.4056C80.7018 16.5302 80.9799 16.7142 81.214 16.9469C81.4486 17.1787 81.6341 17.4551 81.7596 17.7598C81.8872 18.0631 81.9515 18.389 81.9488 18.7179V95.9894C81.9521 96.3183 81.8877 96.6444 81.7596 96.9475C81.519 97.5493 81.0552 98.0354 80.4647 98.3048C80.1573 98.4293 79.8288 98.4934 79.4971 98.4935H83.1346C83.4663 98.4934 83.7948 98.4293 84.1022 98.3048C84.7174 98.0493 85.2065 97.5614 85.4626 96.9475C85.593 96.6449 85.6598 96.3188 85.659 95.9894V18.7252C85.6572 18.3901 85.5883 18.0587 85.4565 17.7505C85.3247 17.4423 85.1326 17.1634 84.8914 16.9302C84.6502 16.697 84.3648 16.5141 84.0519 16.3924C83.739 16.2706 83.4049 16.2124 83.0691 16.2211V16.2211Z" fill="#F2F2F2"/>
<path d="M52.7255 47.9544H30.5587C30.0868 47.9512 29.635 47.7636 29.3001 47.4318C28.9807 47.095 28.8058 46.6471 28.8127 46.1834V22.3908C28.8145 21.926 28.9978 21.4801 29.3239 21.1481C29.6499 20.816 30.0929 20.6239 30.5587 20.6125H52.7255C53.1976 20.6145 53.6498 20.8024 53.9837 21.1355C54.3175 21.4686 54.5059 21.9198 54.5078 22.3908V46.1834C54.505 46.6522 54.3167 47.1009 53.984 47.4318C53.648 47.7609 53.1963 47.9458 52.7255 47.9472V47.9544Z" fill="#464547"/>
<path d="M45.5452 24.735L45.3269 24.9455V24.735H44.2939C43.9861 25.1397 43.5842 25.4636 43.1228 25.6786C42.6614 25.8936 42.1545 25.9932 41.6458 25.9689C41.1372 25.9932 40.6303 25.8936 40.1689 25.6786C39.7075 25.4636 39.3055 25.1397 38.9977 24.735H37.9356V24.9309L37.7173 24.7205L33.9053 28.5165L35.9786 30.5779L37.921 28.6544V38.2789H45.3415V28.6544L47.2839 30.5779L49.3573 28.5165L45.5452 24.735Z" fill="white"/>
<path d="M45.3492 39.1355H37.936C37.7071 39.1326 37.4881 39.0416 37.3249 38.8814C37.246 38.8022 37.1835 38.7082 37.1411 38.6048C37.0986 38.5014 37.077 38.3907 37.0775 38.279V30.7377L36.5974 31.2022C36.518 31.2809 36.4237 31.3432 36.3201 31.3856C36.2165 31.4279 36.1055 31.4495 35.9936 31.449V31.449C35.8746 31.4497 35.7568 31.4255 35.6478 31.378C35.5388 31.3305 35.441 31.2607 35.3606 31.1731L33.2727 29.1118C33.1949 29.0324 33.1331 28.9387 33.0909 28.836C33.0476 28.7325 33.0254 28.6215 33.0254 28.5094C33.0254 28.3972 33.0476 28.2862 33.0909 28.1827C33.1331 28.08 33.1949 27.9863 33.2727 27.9069L37.0848 24.1254C37.1777 24.0345 37.2895 23.9651 37.4122 23.9221C37.5394 23.8967 37.6705 23.8967 37.7978 23.9221H38.9981C39.1401 23.923 39.2798 23.9579 39.4055 24.0238C39.5293 24.0942 39.6361 24.1908 39.7183 24.3068C39.9637 24.5742 40.2621 24.7876 40.5947 24.9337C40.9272 25.0797 41.2865 25.1551 41.6498 25.1551C42.0132 25.1551 42.3725 25.0797 42.705 24.9337C43.0375 24.7876 43.336 24.5742 43.5813 24.3068C43.6617 24.1891 43.7689 24.0921 43.8942 24.0238C44.0195 23.957 44.1595 23.9221 44.3016 23.9221H45.5456C45.6575 23.9216 45.7685 23.9432 45.8721 23.9855C45.9757 24.0279 46.07 24.0902 46.1494 24.1689L49.9542 27.9505C50.0342 28.0296 50.0984 28.1232 50.1433 28.2263C50.1866 28.3298 50.2088 28.4408 50.2088 28.5529C50.2088 28.665 50.1866 28.776 50.1433 28.8795C50.0984 28.9826 50.0342 29.0762 49.9542 29.1554L47.8808 31.2167C47.8014 31.2954 47.7072 31.3578 47.6036 31.4001C47.5 31.4425 47.389 31.464 47.277 31.4635V31.4635C47.165 31.464 47.0541 31.4425 46.9505 31.4001C46.8468 31.3578 46.7526 31.2954 46.6732 31.2167L46.2149 30.7377V38.279C46.2157 38.3912 46.1934 38.5024 46.1494 38.6056C46.1087 38.711 46.0439 38.8054 45.9603 38.8814C45.8811 38.963 45.786 39.0276 45.681 39.0713C45.5759 39.115 45.463 39.1368 45.3492 39.1355ZM38.8017 37.437H44.5125V28.6545C44.5127 28.4863 44.5634 28.322 44.658 28.1827C44.7529 28.0431 44.8871 27.9345 45.0436 27.8706C45.2038 27.8101 45.3783 27.7974 45.5456 27.8343C45.7115 27.8698 45.8632 27.9531 45.9821 28.0739L47.3134 29.3949L48.1573 28.5602L45.4219 25.8311C45.285 25.8476 45.1463 25.8249 45.0218 25.7657C44.9353 25.7288 44.8545 25.6799 44.7817 25.6206H44.709C43.8837 26.4119 42.7835 26.8539 41.6389 26.8539C40.4943 26.8539 39.3942 26.4119 38.5689 25.6206H38.4962C38.4251 25.6825 38.3439 25.7316 38.2561 25.7657C38.129 25.8161 37.9925 25.8384 37.856 25.8311L35.1206 28.5457L35.9863 29.4094L37.3249 28.0521C37.4412 27.9294 37.5944 27.8478 37.7614 27.8198C37.9284 27.7707 38.1067 27.7758 38.2706 27.8343C38.4259 27.9003 38.5595 28.0085 38.6562 28.1465C38.7487 28.2863 38.7969 28.4507 38.7944 28.6182V37.4007L38.8017 37.437Z" fill="white"/>
<path d="M79.8319 23.2691H62.5321C62.1882 23.2539 61.863 23.1086 61.6227 22.8626C61.3801 22.6168 61.2441 22.2857 61.2441 21.9408C61.2441 21.5959 61.3801 21.2648 61.6227 21.019C61.863 20.773 62.1882 20.6277 62.5321 20.6125H79.8319C80.1758 20.6277 80.501 20.773 80.7413 21.019C80.9838 21.2648 81.1198 21.5959 81.1198 21.9408C81.1198 22.2857 80.9838 22.6168 80.7413 22.8626C80.501 23.1086 80.1758 23.2539 79.8319 23.2691V23.2691Z" fill="#83BCDC"/>
<path d="M79.832 29.4456H58.9311C58.7526 29.4489 58.575 29.4193 58.4073 29.3585C58.2383 29.294 58.0847 29.1951 57.9562 29.0682C57.8257 28.9453 57.7217 28.7971 57.6507 28.6327C57.5841 28.4689 57.5496 28.294 57.5488 28.1173C57.5502 27.9384 57.5847 27.7612 57.6507 27.5947C57.7873 27.2662 58.0489 27.0052 58.3782 26.8689C58.5449 26.8043 58.7232 26.7746 58.902 26.7818H79.832C80.1763 26.7967 80.5017 26.9427 80.7413 27.1898C80.9808 27.4369 81.1163 27.7663 81.1197 28.1101C81.1174 28.4545 80.9819 28.7848 80.7414 29.0319C80.5023 29.2805 80.1769 29.4285 79.832 29.4456Z" fill="#83BCDC"/>
<path d="M79.832 35.6153H58.9311C58.7526 35.6185 58.575 35.589 58.4073 35.5282C58.24 35.4637 58.0869 35.3676 57.9562 35.2451C57.8255 35.1196 57.7216 34.969 57.6507 34.8023C57.5841 34.6386 57.5496 34.4637 57.5488 34.287C57.5502 34.108 57.5847 33.9309 57.6507 33.7644C57.7873 33.4359 58.0489 33.1749 58.3782 33.0386C58.5449 32.974 58.7232 32.9443 58.902 32.9515H79.832C80.1759 32.9666 80.5011 33.112 80.7414 33.358C80.9839 33.6037 81.1199 33.9348 81.1199 34.2798C81.1199 34.6247 80.9839 34.9558 80.7414 35.2016C80.5011 35.4475 80.1759 35.5929 79.832 35.608V35.6153Z" fill="#83BCDC"/>
<path d="M79.8323 41.7849H58.9313C58.7526 41.7921 58.5743 41.7624 58.4076 41.6978C58.0783 41.5615 57.8166 41.3005 57.6801 40.972C57.5441 40.6368 57.5441 40.262 57.6801 39.9268C57.8166 39.5982 58.0783 39.3372 58.4076 39.2009C58.5743 39.1363 58.7526 39.1067 58.9313 39.1138H79.8323C80.1762 39.129 80.5014 39.2743 80.7416 39.5203C80.9842 39.7661 81.1202 40.0972 81.1202 40.4421C81.1202 40.787 80.9842 41.1181 80.7416 41.3639C80.5014 41.6099 80.1762 41.7552 79.8323 41.7704V41.7849Z" fill="#E97522" fill-opacity="0.76"/>
<path d="M79.8314 54.0293H30.1144C29.9356 54.0371 29.7572 54.0074 29.5906 53.9422C29.4203 53.8839 29.2659 53.787 29.1396 53.6591C29.0028 53.5426 28.8913 53.3993 28.8122 53.2381C28.7403 53.0745 28.7031 52.8978 28.7031 52.7192C28.7031 52.5405 28.7403 52.3638 28.8122 52.2002C28.8832 52.0358 28.9872 51.8876 29.1177 51.7647C29.2441 51.6368 29.3985 51.5399 29.5688 51.4816C29.7354 51.4164 29.9138 51.3867 30.0926 51.3945H79.8314C80.1753 51.4033 80.502 51.5467 80.7408 51.7937C80.9838 52.0407 81.12 52.373 81.12 52.7192C81.12 53.0653 80.9838 53.3976 80.7408 53.6446C80.4996 53.8863 80.1732 54.0244 79.8314 54.0293V54.0293Z" fill="#83BCDC"/>
<path d="M79.8313 60.2061H30.1143C29.9355 60.2139 29.7571 60.1842 29.5905 60.119C29.4216 60.058 29.2677 59.9615 29.1395 59.8359C29.0106 59.7117 28.9068 59.5638 28.8339 59.4004C28.7618 59.2356 28.7246 59.0577 28.7246 58.8778C28.7246 58.698 28.7618 58.5201 28.8339 58.3552C28.9068 58.1918 29.0106 58.044 29.1395 57.9197C29.2677 57.7942 29.4216 57.6976 29.5905 57.6367C29.7571 57.5714 29.9355 57.5418 30.1143 57.5496H79.8313C80.1752 57.5647 80.5004 57.7101 80.7407 57.956C80.9833 58.2018 81.1193 58.5329 81.1193 58.8778C81.1193 59.2228 80.9833 59.5539 80.7407 59.7996C80.5004 60.0456 80.1752 60.1909 79.8313 60.2061V60.2061Z" fill="#83BCDC"/>
<path d="M79.8315 66.3832H30.1145C29.936 66.3864 29.7584 66.3569 29.5907 66.2961C29.4199 66.2352 29.2656 66.1358 29.1396 66.0057C29.002 65.8871 28.8906 65.7413 28.8123 65.5775C28.74 65.4153 28.7028 65.2397 28.7031 65.0622C28.7029 64.8823 28.74 64.7043 28.8123 64.5396C28.8851 64.3762 28.9889 64.2283 29.1178 64.1041C29.2442 63.9762 29.3986 63.8793 29.5688 63.821C29.7354 63.7558 29.9139 63.7261 30.0926 63.7339H79.8315C80.1757 63.7487 80.5012 63.8948 80.7407 64.1419C80.9803 64.389 81.1157 64.7184 81.1191 65.0622C81.1169 65.4066 80.9814 65.7369 80.7408 65.9839C80.5006 66.2299 80.1754 66.3753 79.8315 66.3904V66.3832Z" fill="#83BCDC"/>
<path d="M79.8311 72.5523H30.1141C29.9353 72.5601 29.7569 72.5304 29.5903 72.4652C29.4214 72.4042 29.2675 72.3077 29.1393 72.1821C29.0088 72.0592 28.9048 71.911 28.8337 71.7466C28.7615 71.5818 28.7243 71.4039 28.7246 71.224C28.7243 71.0465 28.7615 70.8709 28.8337 70.7087C28.9048 70.5443 29.0088 70.3961 29.1393 70.2732C29.2671 70.1454 29.4209 70.0464 29.5903 69.9829C29.7588 69.9247 29.9359 69.8952 30.1141 69.8958H79.8311C80.175 69.9109 80.5002 70.0563 80.7405 70.3022C80.9831 70.548 81.1191 70.8791 81.1191 71.224C81.1191 71.569 80.9831 71.9001 80.7405 72.1458C80.6236 72.2705 80.483 72.3706 80.3268 72.4404C80.1707 72.5102 80.0022 72.5482 79.8311 72.5523V72.5523Z" fill="#83BCDC"/>
<path d="M70.8178 78.722H30.1145C29.9357 78.7298 29.7573 78.7001 29.5907 78.6349C29.4204 78.5766 29.266 78.4797 29.1396 78.3518C29.0012 78.231 28.8897 78.0827 28.8123 77.9163C28.74 77.7515 28.7029 77.5736 28.7031 77.3937C28.7028 77.2162 28.74 77.0406 28.8123 76.8784C28.8833 76.7139 28.9873 76.5657 29.1178 76.4429C29.2456 76.315 29.3994 76.216 29.5688 76.1525C29.7373 76.0943 29.9144 76.0649 30.0926 76.0654H70.8324C71.013 76.0649 71.1925 76.0943 71.3634 76.1525C71.531 76.2196 71.6841 76.3182 71.8145 76.4429C71.9451 76.5641 72.047 76.7129 72.1128 76.8784C72.185 77.0406 72.2222 77.2162 72.2219 77.3937C72.2221 77.5736 72.185 77.7515 72.1128 77.9163C72.047 78.0818 71.9451 78.2305 71.8145 78.3518C71.6857 78.4767 71.532 78.5731 71.3634 78.6349C71.1943 78.7001 71.0135 78.7297 70.8324 78.722H70.8178Z" fill="#4DA6DD"/>
<path d="M79.8315 78.7293H30.1145C29.9357 78.7371 29.7573 78.7074 29.5907 78.6422C29.4217 78.5812 29.2679 78.4847 29.1396 78.3591C29.0011 78.2357 28.8896 78.0849 28.8123 77.9164C28.7394 77.7543 28.7021 77.5786 28.7031 77.401C28.7029 77.2212 28.74 77.0432 28.8123 76.8784C28.8852 76.715 28.9889 76.5672 29.1178 76.4429C29.2461 76.3174 29.3999 76.2208 29.5689 76.1599C29.7354 76.0946 29.9139 76.0649 30.0927 76.0728H79.8315C80.1754 76.0879 80.5006 76.2333 80.7409 76.4792C80.9834 76.725 81.1194 77.0561 81.1194 77.401C81.1194 77.746 80.9834 78.077 80.7409 78.3228C80.5006 78.5688 80.1754 78.7141 79.8315 78.7293V78.7293Z" fill="#83BCDC"/>
<path d="M70.8177 84.899H30.1143C29.9355 84.9068 29.7571 84.8771 29.5905 84.8119C29.4216 84.7509 29.2677 84.6544 29.1395 84.5288C29.0106 84.4045 28.9068 84.2567 28.8339 84.0933C28.7618 83.9285 28.7246 83.7505 28.7246 83.5707C28.7246 83.3908 28.7618 83.2129 28.8339 83.0481C28.9068 82.8847 29.0106 82.7369 29.1395 82.6126C29.2677 82.487 29.4216 82.3905 29.5905 82.3295C29.7571 82.2643 29.9355 82.2346 30.1143 82.2424H70.854C71.0352 82.2347 71.216 82.2643 71.3851 82.3295C71.5524 82.394 71.7055 82.4901 71.8362 82.6126C71.9652 82.7352 72.0668 82.8836 72.1344 83.0481C72.2065 83.2129 72.2438 83.3908 72.2438 83.5707C72.2438 83.7505 72.2065 83.9285 72.1344 84.0933C72.0668 84.2578 71.9652 84.4062 71.8362 84.5288C71.7055 84.6513 71.5524 84.7474 71.3851 84.8119C71.216 84.8771 71.0352 84.9067 70.854 84.899H70.8177Z" fill="#83BCDC"/>
<path d="M79.8319 47.9544H58.9309C58.7561 47.9544 58.583 47.92 58.4215 47.8533C58.2599 47.7865 58.1132 47.6887 57.9895 47.5653C57.8659 47.442 57.7679 47.2956 57.701 47.1344C57.634 46.9733 57.5996 46.8005 57.5996 46.6261C57.5996 46.4517 57.634 46.279 57.701 46.1178C57.7679 45.9567 57.8659 45.8102 57.9895 45.6869C58.1132 45.5635 58.2599 45.4657 58.4215 45.399C58.583 45.3322 58.7561 45.2979 58.9309 45.2979H79.8319C80.0067 45.2979 80.1798 45.3322 80.3413 45.399C80.5028 45.4657 80.6496 45.5635 80.7732 45.6869C80.8969 45.8102 80.9949 45.9567 81.0618 46.1178C81.1287 46.279 81.1632 46.4517 81.1632 46.6261C81.1632 46.8005 81.1287 46.9733 81.0618 47.1344C80.9949 47.2956 80.8969 47.442 80.7732 47.5653C80.6496 47.6887 80.5028 47.7865 80.3413 47.8533C80.1798 47.92 80.0067 47.9544 79.8319 47.9544Z" fill="#E97522" fill-opacity="0.76"/>
<path d="M34.4799 44.8839L34.349 44.1581L34.8946 43.6282C34.9283 43.5935 34.9533 43.5512 34.9674 43.5049C34.978 43.4586 34.9755 43.4103 34.9601 43.3654C34.9447 43.3205 34.9169 43.2808 34.8801 43.2508C34.8461 43.2188 34.8028 43.1984 34.7564 43.1928L34.0289 43.0839L33.6506 42.3508C33.6296 42.3066 33.5969 42.2689 33.556 42.2419C33.5138 42.2184 33.4662 42.2061 33.4178 42.2061C33.3694 42.2061 33.3218 42.2184 33.2796 42.2419C33.238 42.2703 33.2032 42.3075 33.1777 42.3508L32.8431 43.0403L32.1156 43.1492C32.0666 43.1533 32.0205 43.1738 31.9846 43.2073C31.9462 43.2364 31.9181 43.2771 31.9046 43.3234C31.8938 43.3687 31.8938 43.416 31.9046 43.4613C31.9187 43.5076 31.9436 43.5499 31.9774 43.5847L32.5302 44.1146L32.3993 44.8404C32.3848 44.8852 32.3848 44.9335 32.3993 44.9783C32.4134 45.0244 32.4446 45.0633 32.4866 45.0872C32.5231 45.1185 32.5694 45.1365 32.6175 45.138C32.6625 45.1524 32.7108 45.1524 32.7558 45.138L33.4323 44.7823L34.1089 45.138C34.1541 45.1511 34.202 45.1511 34.2471 45.138C34.2975 45.1364 34.346 45.1186 34.3854 45.0872C34.4262 45.0601 34.4589 45.0225 34.4799 44.9783C34.4911 44.9305 34.4911 44.8809 34.4799 44.8331V44.8839Z" fill="#E97522"/>
<path d="M38.8815 43.1714L38.154 43.0625L37.7757 42.3512C37.757 42.3056 37.7237 42.2673 37.6811 42.2423C37.6413 42.2193 37.5962 42.2068 37.5502 42.2061C37.5017 42.2059 37.454 42.2184 37.4119 42.2423C37.3711 42.2694 37.3384 42.307 37.3174 42.3512L36.9754 43.0408L36.2479 43.1496C36.2016 43.1553 36.1582 43.1756 36.1243 43.2077C36.0858 43.2369 36.0578 43.2776 36.0443 43.3238C36.0334 43.3692 36.0334 43.4164 36.0443 43.4617C36.0583 43.508 36.0833 43.5503 36.117 43.5851L36.6626 44.115L36.5317 44.8408C36.5208 44.8861 36.5208 44.9334 36.5317 44.9787C36.5504 45.0222 36.5805 45.0599 36.619 45.0876C36.6588 45.1181 36.707 45.1359 36.7572 45.1384C36.8023 45.1519 36.8503 45.1519 36.8954 45.1384L37.572 44.7827L38.2486 45.1384C38.2934 45.1533 38.3419 45.1533 38.3868 45.1384C38.4347 45.1358 38.4806 45.118 38.5177 45.0876C38.5562 45.0599 38.5864 45.0222 38.605 44.9787C38.6159 44.9334 38.6159 44.8861 38.605 44.8408L38.4741 44.115L39.0197 43.5851C39.056 43.5524 39.0814 43.5093 39.0925 43.4617C39.1106 43.4176 39.1106 43.368 39.0925 43.3238C39.0819 43.2781 39.0562 43.2372 39.0197 43.2077C38.9823 43.1766 38.937 43.1565 38.8888 43.1496L38.8815 43.1714Z" fill="#E97522"/>
<path d="M43.0057 43.1711L42.2782 43.0622L41.9072 42.3509C41.8857 42.3089 41.853 42.2737 41.8126 42.2492C41.7722 42.2208 41.7239 42.2056 41.6744 42.2056C41.6249 42.2056 41.5766 42.2208 41.5362 42.2492C41.4958 42.2737 41.4631 42.3089 41.4416 42.3509L41.0997 43.0404L40.3722 43.1493C40.3232 43.1534 40.2771 43.1738 40.2412 43.2073C40.2034 43.2364 40.1754 43.2763 40.1611 43.3218C40.1468 43.3672 40.1468 43.416 40.1612 43.4614C40.1726 43.5072 40.1951 43.5496 40.2267 43.5848L40.7723 44.1146L40.6486 44.8405C40.6401 44.887 40.6452 44.935 40.6632 44.9788C40.6813 45.0225 40.7116 45.0602 40.7505 45.0872C40.787 45.1186 40.8332 45.1365 40.8814 45.138C40.9264 45.1525 40.9747 45.1525 41.0196 45.138L41.6962 44.7824L42.3728 45.138C42.4179 45.1516 42.4659 45.1516 42.511 45.138C42.5592 45.1365 42.6054 45.1186 42.642 45.0872C42.6809 45.0602 42.7111 45.0225 42.7292 44.9788C42.7473 44.935 42.7523 44.887 42.7438 44.8405L42.6201 44.1146L43.1658 43.5848C43.1995 43.55 43.2244 43.5077 43.2385 43.4614C43.2493 43.416 43.2493 43.3688 43.2385 43.3235C43.225 43.2772 43.1969 43.2365 43.1585 43.2073C43.1226 43.1738 43.0765 43.1534 43.0275 43.1493L43.0057 43.1711Z" fill="#E97522"/>
<path d="M47.1383 43.1714L46.4108 43.0625L46.0398 42.3512C46.023 42.3062 45.989 42.2696 45.9452 42.2496C45.9074 42.2213 45.8615 42.2061 45.8143 42.2061C45.7648 42.206 45.7165 42.2212 45.6761 42.2496C45.6357 42.2741 45.6029 42.3093 45.5815 42.3512L45.2323 43.0408L44.5048 43.1496C44.4584 43.1553 44.415 43.1756 44.3811 43.2077C44.3427 43.2369 44.3146 43.2776 44.3011 43.3238C44.2903 43.3692 44.2903 43.4164 44.3011 43.4617C44.3152 43.508 44.3401 43.5503 44.3738 43.5851L44.9195 44.115L44.7885 44.8408C44.7777 44.8861 44.7777 44.9334 44.7885 44.9787C44.8077 45.0241 44.8408 45.0622 44.8831 45.0876C44.9213 45.1161 44.9666 45.1337 45.014 45.1384C45.0595 45.1487 45.1068 45.1487 45.1523 45.1384L45.8288 44.7827L46.5054 45.1384C46.5455 45.1643 46.5922 45.1781 46.64 45.1781C46.6877 45.1781 46.7345 45.1643 46.7746 45.1384C46.8148 45.1126 46.8455 45.0744 46.8619 45.0295C46.8727 44.9842 46.8727 44.9369 46.8619 44.8916L46.7382 44.1658L47.2838 43.6359C47.3154 43.6007 47.3378 43.5584 47.3493 43.5125C47.3637 43.4671 47.3637 43.4184 47.3494 43.3729C47.3351 43.3275 47.3071 43.2876 47.2693 43.2585C47.2326 43.2263 47.1869 43.206 47.1383 43.2004V43.1714Z" fill="#E97522"/>
<path d="M51.2631 43.1714L50.5356 43.0625L50.1719 42.3512C50.1528 42.3077 50.1194 42.2718 50.0773 42.2496C50.0368 42.2212 49.9886 42.206 49.9391 42.2061C49.8919 42.2061 49.8459 42.2213 49.8081 42.2496C49.7644 42.2696 49.7304 42.3062 49.7136 42.3512L49.3644 43.0408L48.6369 43.1496C48.5883 43.1552 48.5426 43.1755 48.5059 43.2077C48.4696 43.2388 48.442 43.2789 48.4259 43.3238C48.4114 43.3687 48.4114 43.4169 48.4259 43.4617C48.4373 43.5076 48.4598 43.5499 48.4914 43.5851L49.0443 44.115L48.9133 44.8408C48.8988 44.8856 48.8988 44.9339 48.9133 44.9787C48.932 45.0222 48.9622 45.0599 49.0006 45.0876C49.0394 45.1149 49.0844 45.1324 49.1316 45.1384C49.1769 45.1501 49.2245 45.1501 49.2698 45.1384L49.9464 44.7827L50.6229 45.1384C50.668 45.1519 50.7161 45.1519 50.7611 45.1384C50.8093 45.1369 50.8555 45.119 50.8921 45.0876C50.9341 45.0637 50.9653 45.0248 50.9794 44.9787C50.9934 44.9338 50.9934 44.8857 50.9794 44.8408L50.8484 44.115L51.3941 43.5851C51.4278 43.5503 51.4527 43.508 51.4668 43.4617C51.4776 43.4164 51.4776 43.3692 51.4668 43.3238C51.4533 43.2776 51.4252 43.2369 51.3868 43.2077C51.3509 43.1742 51.3048 43.1537 51.2558 43.1496L51.2631 43.1714Z" fill="#E97522"/>
<path d="M107.215 67.8782C107.137 67.8782 107.059 67.8629 106.987 67.833C106.915 67.8031 106.849 67.7593 106.793 67.704C106.541 67.4519 106.34 67.1526 106.203 66.8232C106.066 66.4938 105.996 66.1408 105.996 65.7842C105.996 65.4276 106.066 65.0746 106.203 64.7452C106.34 64.4158 106.541 64.1165 106.793 63.8644L114.592 56.0835C114.735 55.9406 114.849 55.7709 114.927 55.5841C115.005 55.3973 115.044 55.197 115.044 54.9948C115.044 54.7925 115.005 54.5923 114.927 54.4055C114.849 54.2187 114.735 54.0489 114.592 53.906L113.057 52.3745C113.002 52.3174 112.959 52.2499 112.93 52.1761C112.901 52.1023 112.887 52.0236 112.889 51.9444C112.891 51.8652 112.908 51.7871 112.94 51.7146C112.972 51.642 113.018 51.5765 113.075 51.5217C113.133 51.4669 113.2 51.4239 113.274 51.3951C113.348 51.3664 113.427 51.3525 113.506 51.3541C113.586 51.3558 113.664 51.3731 113.737 51.405C113.809 51.4368 113.875 51.4827 113.93 51.5398L115.465 53.0713C115.976 53.5817 116.263 54.2735 116.263 54.9948C116.263 55.7161 115.976 56.4079 115.465 56.9182L107.63 64.6991C107.487 64.842 107.373 65.0117 107.295 65.1985C107.217 65.3853 107.178 65.5856 107.178 65.7878C107.178 65.9901 107.217 66.1903 107.295 66.3771C107.373 66.5639 107.487 66.7337 107.63 66.8766C107.685 66.9306 107.729 66.995 107.758 67.066C107.788 67.1371 107.804 67.2133 107.804 67.2903C107.804 67.3673 107.788 67.4435 107.758 67.5145C107.729 67.5856 107.685 67.65 107.63 67.704C107.52 67.8145 107.371 67.8771 107.215 67.8782V67.8782Z" fill="#30302F"/>
<path d="M115.53 47.7073L112.875 45.0508C112.62 44.7886 112.276 44.6318 111.911 44.6116C111.545 44.5914 111.186 44.7093 110.903 44.9419L107.681 47.4895C107.26 47.8262 106.856 48.1848 106.473 48.5638L101.228 53.797L100.835 54.4212L106.146 59.7125L106.771 59.3278L112.017 54.0946C112.396 53.7121 112.756 53.3099 113.093 52.8897L115.647 49.6743C115.879 49.3919 115.996 49.0326 115.974 48.6681C115.953 48.3035 115.794 47.9604 115.53 47.7073V47.7073Z" fill="#E97522"/>
<path d="M115.531 47.7075L114.265 46.4446C114.371 46.6976 114.408 46.9744 114.371 47.2462C114.333 47.5181 114.224 47.7751 114.054 47.9906L111.413 51.3149C111.063 51.749 110.689 52.1633 110.293 52.556L104.742 58.0941L106.139 59.7127L106.765 59.328L112.01 54.0948C112.39 53.7123 112.749 53.3101 113.087 52.8899L115.64 49.6745C115.872 49.3921 115.989 49.0329 115.968 48.6683C115.946 48.3037 115.788 47.9607 115.524 47.7075H115.531Z" fill="white" fill-opacity="0.32"/>
<path d="M86.3937 70.8035L83.0764 74.106C82.4621 74.7271 81.7164 75.2032 80.8939 75.4996L78.9442 76.1818C78.8883 76.2025 78.8377 76.2354 78.7962 76.2781C78.7546 76.3208 78.7232 76.3722 78.7041 76.4286L76.0997 84.0861C76.0875 84.1274 76.0866 84.1713 76.0972 84.213C76.1079 84.2548 76.1296 84.2929 76.1602 84.3234C76.1907 84.3538 76.2289 84.3755 76.2708 84.3861C76.3126 84.3967 76.3566 84.3959 76.398 84.3837L84.1021 81.836C84.1581 81.8175 84.2089 81.7862 84.2506 81.7447C84.2923 81.7031 84.3237 81.6523 84.3422 81.5965L85.0697 79.6513C85.3667 78.8306 85.844 78.0866 86.4665 77.4738L89.7766 74.164L86.3937 70.8035Z" fill="#6E6E6E"/>
<path d="M88.3216 72.7266L85.0115 76.0363C84.389 76.6492 83.9117 77.3931 83.6147 78.2138L82.8872 80.159C82.8685 80.2159 82.8362 80.2675 82.7931 80.3092C82.75 80.3509 82.6974 80.3816 82.6399 80.3986L76.6308 82.3946L76.0997 84.0858C76.0875 84.1271 76.0866 84.1709 76.0972 84.2127C76.1079 84.2544 76.1296 84.2925 76.1602 84.323C76.1907 84.3535 76.2289 84.3752 76.2708 84.3858C76.3126 84.3964 76.3566 84.3956 76.398 84.3833L84.1021 81.8357C84.1581 81.8172 84.2089 81.7859 84.2506 81.7443C84.2923 81.7027 84.3237 81.652 84.3422 81.5962L85.0697 79.651C85.3667 78.8303 85.844 78.0863 86.4665 77.4735L89.7766 74.1637L88.3216 72.7266Z" fill="#30302F"/>
<path d="M81.3606 80.268C81.9793 80.268 82.4809 79.7676 82.4809 79.1502C82.4809 78.5329 81.9793 78.0325 81.3606 78.0325C80.7418 78.0325 80.2402 78.5329 80.2402 79.1502C80.2402 79.7676 80.7418 80.268 81.3606 80.268Z" fill="white"/>
<path d="M94.8688 71.1952L100.063 66.0201C100.39 65.6862 100.703 65.3451 101.002 64.9822L105.119 59.9594L100.594 55.4158L95.5599 59.524C95.1962 59.8215 94.8324 60.1336 94.5196 60.4603L89.3326 65.6427C88.9632 66.0064 88.6158 66.3918 88.2922 66.7967L87.6593 67.5879V68.3573L86.9318 68.5169L84.9967 70.9267C84.9246 71.0077 84.8848 71.1123 84.8848 71.2207C84.8848 71.329 84.9246 71.4336 84.9967 71.5146L88.9688 75.4704C89.05 75.5423 89.1549 75.582 89.2635 75.582C89.372 75.582 89.4769 75.5423 89.5581 75.4704L91.9734 73.5397L92.2207 72.9445L92.9046 72.7993L93.6975 72.1679C94.1034 71.8451 94.4896 71.4985 94.8542 71.1299L94.8688 71.1952Z" fill="#E97522"/>
<path d="M103.49 58.3188L99.3795 63.3561C99.088 63.7207 98.7746 64.0673 98.441 64.394L93.254 69.5692C92.887 69.9379 92.4983 70.2845 92.09 70.6071L87.6377 74.1564L88.9908 75.4992C89.072 75.5711 89.1769 75.6108 89.2855 75.6108C89.3941 75.6108 89.4989 75.5711 89.5801 75.4992L91.9954 73.5685L92.2427 72.9733L92.9266 72.8281L93.7196 72.1967C94.1254 71.8739 94.5117 71.5273 94.8763 71.1587L100.071 65.9836C100.398 65.6497 100.711 65.3086 101.009 64.9456L105.127 59.9229L103.49 58.3188Z" fill="white" fill-opacity="0.32"/>
<path d="M108.03 68.2411C108.954 68.2411 109.703 67.4937 109.703 66.5717C109.703 65.6498 108.954 64.9023 108.03 64.9023C107.106 64.9023 106.356 65.6498 106.356 66.5717C106.356 67.4937 107.106 68.2411 108.03 68.2411Z" fill="#6E6E6E"/>
<path d="M109.215 65.3957C108.988 65.1714 108.702 65.0161 108.39 64.948C108.079 64.8799 107.754 64.9017 107.454 65.011C107.68 65.0961 107.886 65.2271 108.058 65.3957C108.369 65.7096 108.544 66.1335 108.544 66.5752C108.544 67.0169 108.369 67.4407 108.058 67.7547C107.884 67.9208 107.679 68.0515 107.454 68.1393C107.811 68.2689 108.202 68.2732 108.562 68.1517C108.922 68.0301 109.23 67.7899 109.435 67.4705C109.64 67.1511 109.73 66.7717 109.69 66.3945C109.65 66.0174 109.482 65.6652 109.215 65.3957V65.3957Z" fill="#585858"/>
<path d="M101.228 53.7971L98.9799 56.0399C98.9247 56.0946 98.8809 56.1596 98.851 56.2312C98.8211 56.3029 98.8057 56.3797 98.8057 56.4573C98.8057 56.5349 98.8211 56.6117 98.851 56.6833C98.8809 56.755 98.9247 56.82 98.9799 56.8746L103.68 61.5707C103.735 61.626 103.801 61.6699 103.873 61.6998C103.945 61.7298 104.023 61.7452 104.101 61.7452C104.18 61.7452 104.257 61.7298 104.33 61.6998C104.402 61.6699 104.468 61.626 104.523 61.5707L106.771 59.3279L101.228 53.7971Z" fill="#6E6E6E"/>
<path d="M105.142 57.7019L102.472 60.3657L103.679 61.5706C103.735 61.6259 103.8 61.6697 103.873 61.6997C103.945 61.7296 104.023 61.745 104.101 61.745C104.18 61.745 104.257 61.7296 104.33 61.6997C104.402 61.6697 104.468 61.6259 104.523 61.5706L106.771 59.3278L105.142 57.7019Z" fill="#30302F"/>
<path d="M86.9189 68.5458L92.0114 73.6266L92.9426 72.9008L87.6828 67.6531L86.9189 68.5458Z" fill="#6E6E6E"/>
<path d="M90.3652 71.9788L91.9875 73.6047L92.9187 72.8788L91.2892 71.2603L90.3652 71.9788Z" fill="#585858"/>
</svg>
