<svg width="121" height="121" viewBox="0 0 121 121" fill="none" xmlns="http://www.w3.org/2000/svg">
<g clip-path="url(#clip0_3166_52109)">
<path d="M64.2579 108.22H58.4675L56.538 108.032C56.2823 108.032 56.0372 107.93 55.8564 107.749C55.6755 107.568 55.5737 107.323 55.5732 107.067V97.21H65.0297L65.217 100.3V107.254C65.2165 107.509 65.1155 107.754 64.9359 107.935C64.7563 108.115 64.5126 108.218 64.2579 108.22V108.22Z" fill="#696969"/>
<path d="M65.2222 97.2103V100.3H59.0403C58.887 100.301 58.74 100.362 58.6316 100.471C58.5231 100.579 58.462 100.726 58.4615 100.88V108.22H56.3446C56.0889 108.22 55.8438 108.118 55.663 107.937C55.4822 107.756 55.3804 107.511 55.3799 107.255V97.2103L60.1381 96.4041L65.2222 97.2103Z" fill="#474748"/>
<path d="M65.9939 97.0172H54.6079C53.9743 97.0172 53.3469 96.8923 52.7615 96.6495C52.1762 96.4068 51.6443 96.051 51.1964 95.6024C50.7484 95.1539 50.3931 94.6214 50.1508 94.0354C49.9085 93.4495 49.7839 92.8214 49.7842 92.1872V87.3591L60.3983 86.5378L71.0125 87.3591V92.3822C71.0132 92.9767 70.9033 93.5661 70.6884 94.1204C69.9915 95.9279 68.0451 97.0172 65.9939 97.0172Z" fill="#696969"/>
<path d="M70.686 94.1204C70.3363 95.0298 69.7195 95.8118 68.9169 96.3634C68.1143 96.915 67.1636 97.2103 66.1901 97.2104H54.4145C53.7809 97.2106 53.1534 97.0859 52.5679 96.8434C51.9825 96.6009 51.4505 96.2453 51.0024 95.7969C50.5542 95.3486 50.1988 94.8162 49.9562 94.2303C49.7137 93.6444 49.5889 93.0165 49.5889 92.3823V87.3591L51.1812 86.7498L52.6798 87.3591V92.3823C52.6808 92.8429 52.8641 93.2845 53.1895 93.6102C53.515 93.936 53.9561 94.1194 54.4164 94.1204H70.686Z" fill="#474748"/>
<g filter="url(#filter0_d_3166_52109)">
<path d="M101.213 77.5079H19.3875C18.8758 77.5079 18.385 77.3044 18.0231 76.9422C17.6613 76.58 17.458 76.0888 17.458 75.5766V18.9815L57.7959 18.1284L103.336 18.9815V74.4179L103.149 75.5766C103.149 75.8307 103.098 76.0823 103.001 76.317C102.904 76.5517 102.761 76.7648 102.581 76.9442C102.402 77.1236 102.188 77.2658 101.954 77.3625C101.719 77.4592 101.467 77.5086 101.213 77.5079Z" fill="white"/>
</g>
<path d="M103.336 74.4179V75.7697C103.336 76.2819 103.133 76.7732 102.771 77.1353C102.409 77.4975 101.919 77.701 101.407 77.701H19.1951C18.6834 77.701 18.1926 77.4975 17.8308 77.1353C17.4689 76.7732 17.2656 76.2819 17.2656 75.7697V18.9815L18.7249 18.1284L20.5458 18.9815V73.4522C20.5463 73.7082 20.6481 73.9535 20.8289 74.1345C21.0097 74.3155 21.2548 74.4174 21.5105 74.4179H103.336Z" fill="#D2E2EB"/>
<path d="M80.4671 48.631C80.4654 43.5954 78.5836 38.7421 75.1909 35.0237C71.7982 31.3053 67.1396 28.9903 62.1293 28.5329C61.528 28.4785 60.9173 28.5966 60.301 28.5966C49.1623 28.5966 40.6182 37.4879 40.6182 48.6366C40.6182 59.7854 49.1623 68.8154 60.301 68.8154C62.9493 68.8157 65.5717 68.2937 68.0185 67.2795C70.4653 66.2652 72.6885 64.7784 74.5611 62.9041C76.4338 61.0297 77.9192 58.8045 78.9325 56.3555C79.9459 53.9065 80.4673 51.2817 80.4671 48.631V48.631Z" fill="#E97522"/>
<path d="M87.222 39.4563H78.2695L78.1515 39.6438C76.5536 39.6438 75.4502 40.9394 75.4502 42.5407V45.2444H89.9233L90.1107 42.7338V42.3476C90.1092 41.5812 89.8044 40.8467 89.263 40.3048C88.7216 39.7629 87.9877 39.4578 87.222 39.4563V39.4563Z" fill="#208DBE"/>
<path d="M90.1159 42.7394V45.2501L83.3851 45.6719L75.2568 45.2501V42.3532C75.2568 41.5849 75.5618 40.848 76.1045 40.3048C76.6473 39.7615 77.3835 39.4563 78.1511 39.4563H78.2691V42.1601C78.2691 42.3137 78.3301 42.4611 78.4387 42.5697C78.5472 42.6784 78.6944 42.7394 78.848 42.7394H90.1159Z" fill="#7EB4D6"/>
<path d="M62.2304 68.7235C61.5953 68.7853 60.9509 68.8153 60.3009 68.8153C54.9525 68.8153 49.8232 66.6888 46.0413 62.9035C42.2594 59.1181 40.1348 53.9842 40.1348 48.6309C40.1348 43.2777 42.2594 38.1437 46.0413 34.3584C49.8232 30.5731 54.9525 28.4465 60.3009 28.4465C60.9509 28.4465 61.5953 28.4765 62.2304 28.5384C57.2375 29.0169 52.602 31.3404 49.2287 35.0555C45.8553 38.7707 43.9862 43.6107 43.9862 48.6309C43.9862 53.6511 45.8553 58.4912 49.2287 62.2063C52.602 65.9214 57.2375 68.245 62.2304 68.7235V68.7235Z" fill="#EE7E3B"/>
<path d="M92.0084 87.1658H28.5934C27.5699 87.1658 26.5884 86.7588 25.8647 86.0345C25.1409 85.3101 24.7344 84.3277 24.7344 83.3033V49.3057C24.7344 47.5057 25.7703 45.8013 27.4357 45.3682C27.7509 45.2875 28.075 45.2465 28.4004 45.2463H92.2014C93.2249 45.2463 94.2064 45.6533 94.9301 46.3776C95.6538 47.102 96.0604 48.0844 96.0604 49.1088V83.4964C96.0611 83.8221 96.0202 84.1467 95.9386 84.462C95.519 86.127 93.8068 87.1658 92.0084 87.1658Z" fill="#696969"/>
<path d="M95.9382 84.4621C95.7246 85.2915 95.2415 86.0263 94.5649 86.5507C93.8883 87.0751 93.0567 87.3595 92.201 87.359H28.4C27.3765 87.359 26.395 86.952 25.6713 86.2277C24.9476 85.5033 24.541 84.5209 24.541 83.4965V49.1127C24.5408 48.2563 24.8251 47.4241 25.349 46.7469C25.8729 46.0698 26.6068 45.5862 27.4353 45.3721V83.4965C27.4358 83.7524 27.5376 83.9978 27.7184 84.1787C27.8992 84.3597 28.1443 84.4616 28.4 84.4621H95.9382Z" fill="#474748"/>
<path d="M72.5553 81.3703H31.6386C31.5118 81.3705 31.3863 81.3457 31.2691 81.2973C31.1519 81.2489 31.0455 81.1777 30.9558 81.088C30.8662 80.9983 30.7952 80.8918 30.7468 80.7745C30.6984 80.6572 30.6736 80.5315 30.6738 80.4047V52.2046C30.6736 52.0778 30.6984 51.9521 30.7468 51.8348C30.7952 51.7176 30.8662 51.611 30.9558 51.5213C31.0455 51.4316 31.1519 51.3605 31.2691 51.312C31.3863 51.2636 31.5118 51.2388 31.6386 51.239L32.7963 51.0515H72.7482C73.0041 51.0515 73.2495 51.1532 73.4304 51.3343C73.6113 51.5154 73.713 51.761 73.713 52.0171V79.2459L73.5256 80.4047C73.5257 80.532 73.5005 80.658 73.4517 80.7755C73.4028 80.893 73.3313 80.9997 73.2411 81.0895C73.1509 81.1792 73.0439 81.2502 72.9262 81.2984C72.8085 81.3466 72.6824 81.371 72.5553 81.3703V81.3703Z" fill="white"/>
<path d="M73.7138 79.2457V80.5976C73.7138 80.8537 73.6121 81.0993 73.4312 81.2804C73.2503 81.4615 73.0049 81.5632 72.749 81.5632H31.4521C31.3253 81.5634 31.1997 81.5386 31.0826 81.4902C30.9654 81.4418 30.859 81.3706 30.7693 81.2809C30.6797 81.1912 30.6086 81.0847 30.5602 80.9674C30.5118 80.8501 30.4871 80.7244 30.4873 80.5976V52.0113C30.4871 51.8844 30.5118 51.7587 30.5602 51.6415C30.6086 51.5242 30.6797 51.4176 30.7693 51.3279C30.859 51.2382 30.9654 51.1671 31.0826 51.1187C31.1997 51.0702 31.3253 51.0454 31.4521 51.0457H32.8027V78.6663C32.8027 78.82 32.8637 78.9673 32.9723 79.076C33.0808 79.1847 33.228 79.2457 33.3816 79.2457H73.7138Z" fill="#E8E8E8"/>
<path d="M36.2733 64.0826C35.8898 64.0826 35.5219 63.9301 35.2507 63.6587C34.9795 63.3872 34.8271 63.019 34.8271 62.6351V58.7708C34.8271 57.8756 35.1824 57.0172 35.8148 56.3843C36.4471 55.7513 37.3048 55.3958 38.1991 55.3958H42.06C42.4348 55.4093 42.7897 55.5678 43.0501 55.8379C43.3105 56.1081 43.456 56.4688 43.456 56.8442C43.456 57.2196 43.3105 57.5803 43.0501 57.8505C42.7897 58.1206 42.4348 58.2791 42.06 58.2926H38.1953C38.0677 58.2926 37.9452 58.3434 37.8549 58.4338C37.7646 58.5241 37.7139 58.6467 37.7139 58.7745V62.6389C37.7124 63.021 37.5602 63.3871 37.2905 63.6575C37.0207 63.9279 36.6551 64.0807 36.2733 64.0826V64.0826Z" fill="#E8E8E8"/>
<path d="M42.0636 77.2188H38.1952C37.3009 77.2188 36.4432 76.8632 35.8109 76.2303C35.1785 75.5973 34.8232 74.7389 34.8232 73.8438V69.97C34.8367 69.5949 34.9951 69.2396 35.265 68.979C35.5349 68.7184 35.8953 68.5728 36.2704 68.5728C36.6454 68.5728 37.0058 68.7184 37.2757 68.979C37.5456 69.2396 37.704 69.5949 37.7175 69.97V73.8344C37.717 73.8977 37.729 73.9604 37.7527 74.0191C37.7764 74.0777 37.8115 74.1311 37.8559 74.1762C37.9002 74.2213 37.953 74.2572 38.0112 74.2819C38.0695 74.3066 38.132 74.3195 38.1952 74.32H42.0561C42.4401 74.32 42.8084 74.4727 43.08 74.7445C43.3516 75.0163 43.5041 75.385 43.5041 75.7694C43.5041 76.1538 43.3516 76.5224 43.08 76.7943C42.8084 77.0661 42.4401 77.2188 42.0561 77.2188H42.0636Z" fill="#E8E8E8"/>
<path d="M65.9936 77.2188H62.1346C61.7505 77.2188 61.3822 77.0661 61.1107 76.7943C60.8391 76.5224 60.6865 76.1538 60.6865 75.7694C60.6865 75.385 60.8391 75.0163 61.1107 74.7445C61.3822 74.4727 61.7505 74.32 62.1346 74.32H65.9936C66.1215 74.32 66.2441 74.2693 66.3347 74.179C66.4253 74.0887 66.4764 73.9661 66.4769 73.8381V69.97C66.4904 69.5949 66.6488 69.2396 66.9187 68.979C67.1886 68.7184 67.549 68.5728 67.924 68.5728C68.2991 68.5728 68.6595 68.7184 68.9294 68.979C69.1993 69.2396 69.3577 69.5949 69.3712 69.97V73.8344C69.3712 74.7313 69.0154 75.5916 68.3821 76.2262C67.7488 76.8608 66.8897 77.2178 65.9936 77.2188V77.2188Z" fill="#E8E8E8"/>
<path d="M67.9234 64.0827C67.5399 64.0827 67.172 63.9302 66.9008 63.6587C66.6296 63.3873 66.4772 63.0191 66.4772 62.6352V58.7708C66.4767 58.6428 66.4256 58.5203 66.335 58.43C66.2444 58.3396 66.1218 58.2889 65.9939 58.2889H62.1349C61.9405 58.2959 61.7466 58.2637 61.565 58.194C61.3833 58.1244 61.2175 58.0188 61.0775 57.8836C60.9375 57.7484 60.8261 57.5864 60.75 57.4072C60.674 57.2279 60.6348 57.0352 60.6348 56.8405C60.6348 56.6458 60.674 56.453 60.75 56.2738C60.8261 56.0946 60.9375 55.9326 61.0775 55.7974C61.2175 55.6622 61.3833 55.5566 61.565 55.487C61.7466 55.4173 61.9405 55.385 62.1349 55.3921H65.9939C66.8882 55.3921 67.7459 55.7476 68.3782 56.3806C69.0106 57.0135 69.3659 57.8719 69.3659 58.7671V62.6314C69.3664 63.0152 69.2148 63.3835 68.9444 63.6555C68.674 63.9276 68.3068 64.0812 67.9234 64.0827V64.0827Z" fill="#E8E8E8"/>
<path d="M90.3085 76.1581C90.3087 74.9933 89.9332 73.8595 89.2379 72.9254C88.5426 71.9913 87.5646 71.3068 86.4495 70.9737C85.9605 70.8275 85.4416 70.9437 84.9059 70.9437C81.9217 70.9437 79.6943 73.1712 79.6943 76.1581C79.6943 79.145 81.9217 81.3725 84.9059 81.3725C85.4416 81.3725 85.9605 81.4887 86.4495 81.3425C87.5646 81.0094 88.5426 80.3249 89.2379 79.3908C89.9332 78.4567 90.3087 77.3229 90.3085 76.1581V76.1581Z" fill="#208DBE"/>
<path d="M86.4503 81.3387C85.6435 81.5803 84.7914 81.6298 83.9621 81.4832C83.1328 81.3367 82.3491 80.9982 81.6737 80.4948C80.9982 79.9914 80.4497 79.3369 80.0718 78.5836C79.6939 77.8304 79.4971 76.9991 79.4971 76.1562C79.4971 75.3133 79.6939 74.4821 80.0718 73.7288C80.4497 72.9755 80.9982 72.321 81.6737 71.8176C82.3491 71.3142 83.1328 70.9757 83.9621 70.8292C84.7914 70.6827 85.6435 70.7322 86.4503 70.9737C85.335 71.3062 84.3568 71.9902 83.6612 72.924C82.9657 73.8578 82.5899 74.9914 82.5899 76.1562C82.5899 77.321 82.9657 78.4546 83.6612 79.3884C84.3568 80.3222 85.335 81.0062 86.4503 81.3387V81.3387Z" fill="#A2CDE8"/>
<path d="M90.3095 64.8556H79.5024C79.1276 64.8421 78.7727 64.6836 78.5123 64.4134C78.2519 64.1433 78.1064 63.7825 78.1064 63.4071C78.1064 63.0318 78.2519 62.671 78.5123 62.4009C78.7727 62.1307 79.1276 61.9722 79.5024 61.9587H90.3095C90.5039 61.9517 90.6978 61.984 90.8795 62.0536C91.0611 62.1233 91.2269 62.2288 91.367 62.364C91.507 62.4992 91.6183 62.6612 91.6944 62.8405C91.7705 63.0197 91.8097 63.2124 91.8097 63.4071C91.8097 63.6019 91.7705 63.7946 91.6944 63.9738C91.6183 64.153 91.507 64.3151 91.367 64.4503C91.2269 64.5855 91.0611 64.691 90.8795 64.7607C90.6978 64.8303 90.5039 64.8626 90.3095 64.8556V64.8556Z" fill="#89C3E8"/>
<path d="M90.3095 59.0614H79.5024C79.1276 59.0479 78.7727 58.8894 78.5123 58.6192C78.2519 58.3491 78.1064 57.9883 78.1064 57.613C78.1064 57.2376 78.2519 56.8768 78.5123 56.6067C78.7727 56.3365 79.1276 56.178 79.5024 56.1645H90.3095C90.5039 56.1575 90.6978 56.1898 90.8795 56.2594C91.0611 56.3291 91.2269 56.4346 91.367 56.5698C91.507 56.705 91.6183 56.8671 91.6944 57.0463C91.7705 57.2255 91.8097 57.4182 91.8097 57.613C91.8097 57.8077 91.7705 58.0004 91.6944 58.1796C91.6183 58.3588 91.507 58.5209 91.367 58.6561C91.2269 58.7913 91.0611 58.8968 90.8795 58.9665C90.6978 59.0361 90.5039 59.0684 90.3095 59.0614V59.0614Z" fill="#89C3E8"/>
<path d="M52.1956 74.2078C56.1415 74.2078 59.3403 73.783 59.3403 73.2591C59.3403 72.7351 56.1415 72.3103 52.1956 72.3103C48.2496 72.3103 45.0508 72.7351 45.0508 73.2591C45.0508 73.783 48.2496 74.2078 52.1956 74.2078Z" fill="#E8E8E8"/>
<path d="M59.0451 66.3048C59.0448 64.7291 58.5102 63.2002 57.5288 61.9682C56.5473 60.7362 55.1772 59.8741 53.6425 59.5229C53.1461 59.4104 52.629 59.5436 52.0989 59.5436C48.2624 59.5436 45.3438 62.4648 45.3438 66.3048C45.3438 70.1448 48.2624 73.0661 52.0989 73.0661C52.5784 73.0661 53.0468 73.2105 53.4982 73.1167C55.0649 72.7938 56.4723 71.9398 57.4828 70.6988C58.4934 69.4578 59.0452 67.9058 59.0451 66.3048V66.3048Z" fill="#E97522"/>
<path d="M53.6432 73.0866C52.626 73.3177 51.5698 73.3166 50.5531 73.0833C49.5363 72.8501 48.5851 72.3907 47.77 71.7393C46.9548 71.0878 46.2967 70.261 45.8444 69.3202C45.3921 68.3794 45.1572 67.3488 45.1572 66.3047C45.1572 65.2607 45.3921 64.23 45.8444 63.2892C46.2967 62.3484 46.9548 61.5216 47.77 60.8702C48.5851 60.2187 49.5363 59.7593 50.5531 59.5261C51.5698 59.2929 52.626 59.2917 53.6432 59.5228C52.1082 59.8735 50.7376 60.7354 49.756 61.9675C48.7743 63.1996 48.2396 64.7288 48.2396 66.3047C48.2396 67.8806 48.7743 69.4099 49.756 70.6419C50.7376 71.874 52.1082 72.736 53.6432 73.0866V73.0866Z" fill="#EE7E3B"/>
<path d="M104.687 18.7827H15.9144C14.0486 18.7827 12.5312 17.4702 12.5312 15.5952C12.5312 13.9077 13.6028 12.4883 15.2382 12.254C15.3964 12.2315 15.556 12.2203 15.7159 12.2202H104.885C105.386 12.2208 105.88 12.3326 106.333 12.5477C106.785 12.7628 107.184 13.0758 107.501 13.464C107.817 13.8523 108.044 14.3061 108.164 14.7927C108.284 15.2793 108.295 15.7865 108.195 16.2777C107.882 17.819 106.32 18.7827 104.687 18.7827Z" fill="#6B6B6B"/>
<path d="M108.188 16.2759C108.034 17.0389 107.621 17.7251 107.019 18.2182C106.417 18.7113 105.663 18.981 104.885 18.9815H15.716C14.8493 19.0024 14.0078 18.6884 13.3664 18.1047C12.7249 17.521 12.3327 16.7124 12.2712 15.8468C12.2097 14.9812 12.4837 14.1252 13.0362 13.4565C13.5887 12.7878 14.3774 12.3578 15.2383 12.2559V12.8971C15.2383 13.7922 15.5936 14.6507 16.226 15.2836C16.8583 15.9165 17.716 16.2721 18.6103 16.2721L108.188 16.2759Z" fill="#474748"/>
</g>
<defs>
<filter id="filter0_d_3166_52109" x="-6.54199" y="-5.87158" width="133.878" height="107.379" filterUnits="userSpaceOnUse" color-interpolation-filters="sRGB">
<feFlood flood-opacity="0" result="BackgroundImageFix"/>
<feColorMatrix in="SourceAlpha" type="matrix" values="0 0 0 0 0 0 0 0 0 0 0 0 0 0 0 0 0 0 127 0" result="hardAlpha"/>
<feOffset/>
<feGaussianBlur stdDeviation="12"/>
<feColorMatrix type="matrix" values="0 0 0 0 0.816667 0 0 0 0 0.816667 0 0 0 0 0.816667 0 0 0 0.25 0"/>
<feBlend mode="normal" in2="BackgroundImageFix" result="effect1_dropShadow_3166_52109"/>
<feBlend mode="normal" in="SourceGraphic" in2="effect1_dropShadow_3166_52109" result="shape"/>
</filter>
<clipPath id="clip0_3166_52109">
<rect width="120" height="120" fill="white" transform="translate(0.262695 0.220215)"/>
</clipPath>
</defs>
</svg>
