<svg width="121" height="121" viewBox="0 0 121 121" fill="none" xmlns="http://www.w3.org/2000/svg">
<g clip-path="url(#clip0_3166_52208)">
<path d="M81.6769 14.2202H38.8493C36.6592 14.2202 34.8838 15.9956 34.8838 18.1857V102.255C34.8838 104.445 36.6592 106.22 38.8493 106.22H81.6769C83.867 106.22 85.6424 104.445 85.6424 102.255V18.1857C85.6424 15.9956 83.867 14.2202 81.6769 14.2202Z" fill="#208DBE"/>
<path d="M34.8838 83.8115H85.6424V88.5701H34.8838V83.8115Z" fill="#4798CC"/>
<path d="M68.987 90.3584H51.5388C49.3487 90.3584 47.5732 92.1338 47.5732 94.3239V95.9101C47.5732 98.1002 49.3487 99.8756 51.5388 99.8756H68.987C71.1771 99.8756 72.9526 98.1002 72.9526 95.9101V94.3239C72.9526 92.1338 71.1771 90.3584 68.987 90.3584Z" fill="#F2FAFF"/>
<g filter="url(#filter0_d_3166_52208)">
<path d="M104.28 25.3235H16.2455C15.1504 25.3235 14.2627 26.2112 14.2627 27.3062V82.0304C14.2627 83.1254 15.1504 84.0131 16.2455 84.0131H104.28C105.375 84.0131 106.263 83.1254 106.263 82.0304V27.3062C106.263 26.2112 105.375 25.3235 104.28 25.3235Z" fill="white"/>
</g>
<path d="M14.2627 71.3235V82.0304C14.2627 82.5562 14.4716 83.0606 14.8434 83.4324C15.2153 83.8042 15.7196 84.0131 16.2455 84.0131H104.28C104.806 84.0131 105.31 83.8042 105.682 83.4324C106.054 83.0606 106.263 82.5562 106.263 82.0304V71.3235H14.2627Z" fill="#474748"/>
<path d="M19.0215 76.082H25.3663V79.2544H19.0215V76.082Z" fill="#FFF5F1"/>
<path d="M28.5391 76.082H42.8149V79.2544H28.5391V76.082Z" fill="#FFF5F1"/>
<path d="M45.9863 76.082H49.1587V79.2544H45.9863V76.082Z" fill="#FFF5F1"/>
<path d="M52.332 76.082H55.5044V79.2544H52.332V76.082Z" fill="#FFF5F1"/>
<path d="M30.124 60.2204V34.8411L55.5033 47.5307L30.124 60.2204Z" fill="#E97522"/>
<path d="M96.7451 66.5652H68.1934V34.841C68.1934 31.0549 69.6974 27.4237 72.3747 24.7465C75.0519 22.0692 78.683 20.5652 82.4692 20.5652C86.2554 20.5652 89.8865 22.0692 92.5638 24.7465C95.241 27.4237 96.7451 31.0549 96.7451 34.841V66.5652Z" fill="#635C5C"/>
<path d="M99.8645 84.0132C99.9002 83.5029 99.918 82.9742 99.918 82.427C99.918 71.038 95.1594 53.8752 82.4698 53.8752C69.7801 53.8752 65.0215 71.038 65.0215 82.427C65.0215 82.9742 65.0393 83.5029 65.075 84.0132H99.8645Z" fill="#89C3E8"/>
<path d="M86.804 54.615L87.2283 55.4616L82.4697 63.3927L88.8146 68.1513L91.7669 57.8211C90.3676 56.4015 88.6733 55.307 86.804 54.615V54.615Z" fill="white"/>
<path d="M73.1729 57.8211L76.1252 68.1513L82.47 63.3927L77.7114 55.4616L78.1357 54.615C76.2664 55.307 74.5721 56.4015 73.1729 57.8211V57.8211Z" fill="white"/>
<path d="M69.5184 62.9961H69.4351C66.338 68.8452 65.0215 76.4352 65.0215 82.4271C65.0215 82.9744 65.0393 83.5031 65.075 84.0133H74.9888L71.4635 64.6239C71.3805 64.1681 71.1406 63.7557 70.7853 63.4583C70.4299 63.161 69.9817 62.9974 69.5184 62.9961V62.9961Z" fill="#6DB8E8"/>
<path d="M79.2971 47.5305H85.642L87.2282 55.4616L82.4696 63.3926L77.7109 55.4616L79.2971 47.5305Z" fill="#FFC2BF"/>
<path d="M85.6415 47.5305H79.2967L78.3271 52.3803L78.5928 52.539C79.7638 53.2415 81.1036 53.6126 82.4691 53.6126C83.8346 53.6126 85.1745 53.2415 86.3454 52.539L86.6111 52.3803L85.6415 47.5305Z" fill="#E6B8B8"/>
<path d="M76.1253 36.4271C78.0878 36.4277 80.0026 35.8216 81.6073 34.6918C83.212 33.5621 84.4282 31.9638 85.0893 30.116C86.5484 30.273 87.8978 30.9638 88.8784 32.0556C89.8589 33.1474 90.4012 34.5631 90.4011 36.0305V43.6998C90.4011 44.3846 90.2238 45.0578 89.8864 45.6537C89.549 46.2496 89.0631 46.748 88.4759 47.1003L84.5104 49.4796C83.8941 49.8494 83.1888 50.0447 82.4701 50.0447C81.7514 50.0447 81.0461 49.8494 80.4298 49.4796L76.4643 47.1003C75.8771 46.748 75.3912 46.2496 75.0538 45.6537C74.7164 45.0578 74.5391 44.3846 74.5391 43.6998V36.4271H76.1253Z" fill="#FFCFCD"/>
<path d="M50.7451 58.634H64.2279C65.2796 58.634 66.2882 59.0518 67.0319 59.7955C67.7756 60.5392 68.1934 61.5478 68.1934 62.5996V66.5651H58.6762C56.5727 66.5651 54.5554 65.7295 53.0681 64.2421C51.5807 62.7548 50.7451 60.7375 50.7451 58.634V58.634Z" fill="#FFC2BF"/>
<path d="M68.1944 66.5652H61.8496V80.0479C61.8496 81.0997 62.2674 82.1083 63.0111 82.852C63.7548 83.5957 64.7634 84.0135 65.8151 84.0135H71.3669L68.1944 66.5652Z" fill="#89C3E8"/>
</g>
<defs>
<filter id="filter0_d_3166_52208" x="-0.770271" y="25.3235" width="122.066" height="93.7666" filterUnits="userSpaceOnUse" color-interpolation-filters="sRGB">
<feFlood flood-opacity="0" result="BackgroundImageFix"/>
<feColorMatrix in="SourceAlpha" type="matrix" values="0 0 0 0 0 0 0 0 0 0 0 0 0 0 0 0 0 0 127 0" result="hardAlpha"/>
<feOffset dy="20.044"/>
<feGaussianBlur stdDeviation="7.51648"/>
<feComposite in2="hardAlpha" operator="out"/>
<feColorMatrix type="matrix" values="0 0 0 0 0.222083 0 0 0 0 0.291442 0 0 0 0 0.341667 0 0 0 0.15 0"/>
<feBlend mode="normal" in2="BackgroundImageFix" result="effect1_dropShadow_3166_52208"/>
<feBlend mode="normal" in="SourceGraphic" in2="effect1_dropShadow_3166_52208" result="shape"/>
</filter>
<clipPath id="clip0_3166_52208">
<rect width="120" height="120" fill="white" transform="translate(0.262695 0.220215)"/>
</clipPath>
</defs>
</svg>
