<svg width="121" height="121" viewBox="0 0 121 121" fill="none" xmlns="http://www.w3.org/2000/svg">
<path d="M75.1774 74.0229L73.506 68.9384C73.4631 68.7901 73.4203 68.6418 73.4203 68.4723L72.7131 41.5667V44.2996C72.7131 45.2741 72.5417 46.2698 72.1989 47.202L68.6846 57.0957L69.6917 58.5787C72.1989 62.2438 73.5274 66.5444 73.5274 70.951C73.5274 72.0103 73.4203 73.0696 73.206 74.0865L72.1989 78.9804H73.7846C74.5989 78.9804 75.2631 78.3236 75.2631 77.5186V74.7644C75.306 74.5102 75.2631 74.256 75.1774 74.0229Z" fill="#FFCBC9"/>
<path d="M78.5626 42.4556C78.1126 39.0659 75.4555 39.3837 75.0055 36.0152C74.5555 32.6255 77.2126 32.3077 76.7626 28.918C76.3126 25.5283 73.6555 25.8461 73.2055 22.4776V20.4226H48.3483V22.4776C47.8983 25.8673 45.2412 25.5495 44.7912 28.918C44.3412 32.3077 46.9984 32.6255 46.5484 36.0152C46.0984 39.4049 43.4412 39.0871 42.9912 42.4556V43.2607C42.9912 44.8496 44.3412 46.1207 45.9912 46.1207H75.134C77.0197 46.1207 78.5412 44.6589 78.5412 42.8793L78.5626 42.4556Z" fill="#474748"/>
<path d="M72.3265 31.5662C73.3979 29.2146 67.0979 22.181 65.4693 20.4226H64.0765L57.305 23.1767L48.8193 25.38C48.8193 25.38 52.055 32.8797 51.6908 34.8924C51.3265 36.905 47.9408 40.2947 50.5336 44.3199C50.9622 44.9979 51.8408 45.5911 52.9765 46.1207H73.8264C76.0122 42.1802 74.9836 40.2735 73.5479 38.5363C71.7479 36.333 71.0836 34.278 72.3265 31.5662Z" fill="#30302F"/>
<path d="M60.1338 77.9421H61.3552H69.0481L67.2266 91.0772L65.8552 98.4286L66.0052 99.8692L65.3195 103.831C64.8481 103.619 64.3338 103.492 63.7766 103.492H61.7409C61.3338 103.492 60.9481 103.555 60.5838 103.683L60.1552 99.848L60.4552 98.2591L60.1552 90.9925L60.1338 77.9421Z" fill="#FFCBC9"/>
<path d="M58.8481 104.339L58.9552 104.127L60.1124 99.8472L60.5409 103.703L60.8624 105.271H64.9766L65.2766 103.809L65.9624 99.8472L66.7124 104.127L66.7981 104.339C66.9052 104.593 66.9695 104.847 66.9695 105.122C67.0123 106.182 66.1552 107.071 65.0838 107.071H60.5195C59.4695 107.071 58.6338 106.245 58.6338 105.207C58.6338 104.911 58.7195 104.614 58.8481 104.339Z" fill="#F9A7A7"/>
<path d="M58.6347 105.165C58.6347 104.868 58.7204 104.593 58.849 104.339L58.9561 104.127L60.1133 99.8472L60.5418 103.682C60.9061 103.555 61.2919 103.491 61.699 103.491H63.7347C64.2918 103.491 64.8061 103.618 65.2776 103.83L65.9633 99.8683L66.7133 104.148L66.799 104.36C66.9061 104.614 66.9704 104.868 66.9704 105.144C66.9704 105.249 66.9704 105.334 66.949 105.44C66.949 105.461 66.949 105.461 66.949 105.483C66.949 105.546 66.9276 105.61 66.9061 105.694C66.8847 105.737 66.8847 105.8 66.8633 105.843C66.8418 105.906 66.8204 105.97 66.7776 106.033C66.7561 106.076 66.7347 106.118 66.7133 106.182C66.6918 106.245 66.649 106.288 66.6061 106.33C66.5633 106.372 66.5418 106.415 66.499 106.457C66.4561 106.499 66.4133 106.542 66.3704 106.584C66.3276 106.627 66.2847 106.669 66.2204 106.711C66.1776 106.754 66.1347 106.775 66.0918 106.817C66.0276 106.86 65.9847 106.881 65.9204 106.923C65.8776 106.944 65.8347 106.966 65.7918 106.987C65.7276 107.008 65.6418 107.029 65.5561 107.05C65.5133 107.071 65.4704 107.071 65.4276 107.093C65.299 107.114 65.1918 107.135 65.0633 107.135H60.499C60.1133 107.135 59.749 107.008 59.449 106.817C59.2561 106.69 59.0847 106.521 58.9347 106.309C58.7204 106.012 58.6133 105.652 58.6133 105.271C58.6347 105.186 58.6347 105.186 58.6347 105.165Z" fill="#404040"/>
<path d="M62.4055 83.0264H61.1841H53.4912L55.3126 96.1614L56.6841 103.513L56.5341 104.953L57.2198 108.915C57.6912 108.703 58.2055 108.576 58.7626 108.576H60.7983C61.2055 108.576 61.5912 108.64 61.9555 108.767L62.3841 104.932L62.0841 103.343L62.3841 96.0767L62.4055 83.0264Z" fill="#FFCBC9"/>
<path d="M68.9205 38.3675H65.2776V35.7405C64.0133 36.2701 62.6419 36.5667 61.1848 36.5667C59.7276 36.5667 58.3562 36.2701 57.0919 35.7405V38.3675H53.449C51.349 38.3675 49.6348 39.8081 49.6348 41.5877V44.2994C49.6348 45.274 49.8062 46.2697 50.1491 47.2019L53.6633 57.0955H61.1848H68.7062L72.2205 47.2019C72.5633 46.2697 72.7347 45.274 72.7347 44.2994V41.5665C72.7347 39.7869 71.0205 38.3675 68.9205 38.3675Z" fill="#FFCBC9"/>
<path d="M71.6627 22.4781C71.6413 22.4781 71.6199 22.4781 71.5984 22.4781V21.5247C71.5984 15.8894 66.9484 11.3345 61.1842 11.3345C55.4199 11.3345 50.7699 15.9106 50.7699 21.5247V22.4781C50.7485 22.4781 50.727 22.4781 50.7056 22.4781C48.9485 22.4781 47.5342 23.8763 47.5342 25.5924C47.5342 27.3084 48.9485 28.7066 50.7056 28.7066C50.8127 28.7066 50.9413 28.7066 51.0485 28.6855C52.1199 33.198 56.2556 36.5665 61.1842 36.5665C66.1127 36.5665 70.2484 33.198 71.3199 28.6855C71.427 28.7066 71.5556 28.7066 71.6627 28.7066C73.4199 28.7066 74.8341 27.3084 74.8341 25.5924C74.8341 23.8551 73.4199 22.4781 71.6627 22.4781Z" fill="#FFCBC9"/>
<path d="M61.184 36.545C66.1125 36.545 70.2483 33.1765 71.3197 28.664C71.4268 28.6852 71.5554 28.6852 71.6625 28.6852C73.4197 28.6852 74.834 27.2869 74.834 25.5709C74.834 23.8548 73.4197 22.4566 71.6625 22.4566C71.6411 22.4566 71.6197 22.4566 71.5983 22.4566V21.5032C71.5983 15.8679 66.9483 11.313 61.184 11.313C59.6411 11.313 58.1626 11.652 56.834 12.2452L57.8411 21.9058C63.3054 22.1388 64.5911 19.9143 64.5911 19.9143C64.5911 19.9143 69.6911 20.8253 69.9054 24.787C70.1197 28.7487 67.484 36.545 61.184 36.545Z" fill="#E6B8B8"/>
<g opacity="0.6">
<path opacity="0.6" d="M60.541 103.683C60.9052 103.555 61.291 103.492 61.6981 103.492H60.5195L60.541 103.683Z" fill="#E6B8B8"/>
<path opacity="0.6" d="M69.027 77.9412H67.677L65.8556 91.0762L64.4841 98.4276L64.6341 99.8682L64.0127 103.512C64.4841 103.533 64.9127 103.66 65.3198 103.851L66.0055 99.8894L65.8556 98.4488L67.227 91.0974L69.027 77.9412Z" fill="#E6B8B8"/>
</g>
<path d="M69.7133 58.579L68.7061 57.096L72.2204 47.2024C72.5633 46.2702 72.7347 45.2745 72.7347 44.3V41.567C72.7347 41.3552 72.7133 41.1645 72.6704 40.9526H49.7418C49.699 41.1433 49.6776 41.3552 49.6776 41.567V44.3C49.6776 45.2745 49.849 46.2702 50.1919 47.2024L53.7061 57.096L52.699 58.579C50.1919 62.2441 48.8633 66.5448 48.8633 70.9514C48.8633 72.0107 48.9704 73.07 49.1847 74.0869L51.0061 83.006H61.249H71.4918L73.3133 74.0869C73.5275 73.0488 73.6347 71.9895 73.6347 70.9514C73.5704 66.5448 72.2204 62.223 69.7133 58.579Z" fill="#83BCDC"/>
<path d="M56.4913 22.0332H48.7771C48.3056 22.0332 47.9199 21.6519 47.9199 21.1858V16.3767C47.9199 11.8641 51.6056 8.22021 56.1699 8.22021H60.2413C62.2985 8.22021 63.9699 9.87269 63.9699 11.9065V14.6183C63.9913 18.7071 60.627 22.0332 56.4913 22.0332Z" fill="#474748"/>
<path d="M72.7565 20.9313H71.235C67.2279 20.9313 63.9922 17.7323 63.9922 13.7706V11.3978C63.9922 10.1691 64.9993 9.17334 66.2422 9.17334H66.6922C70.5279 9.17334 73.6136 12.2452 73.6136 16.0163V20.0839C73.6136 20.55 73.2279 20.9313 72.7565 20.9313Z" fill="#474748"/>
<path d="M63.6698 109.424L63.5627 109.212L62.4056 104.932L61.977 108.788L61.6556 110.356H57.5413L57.2413 108.894L56.5556 104.932L55.8056 109.212L55.7198 109.424C55.6127 109.678 55.5484 109.932 55.5484 110.208C55.5056 111.267 56.3627 112.157 57.4341 112.157H61.9984C63.0484 112.157 63.8841 111.33 63.8841 110.292C63.8841 109.996 63.8198 109.699 63.6698 109.424Z" fill="#F9A7A7"/>
<path d="M63.8845 110.25C63.8845 109.953 63.7988 109.678 63.6702 109.424L63.563 109.212L62.4059 104.932L61.9773 108.767C61.6131 108.64 61.2273 108.576 60.8202 108.576H58.7631C58.2059 108.576 57.6916 108.703 57.2202 108.915L56.5345 104.954L55.7845 109.233L55.6988 109.445C55.5916 109.699 55.5273 109.953 55.5273 110.229C55.5273 110.335 55.5273 110.419 55.5488 110.525C55.5488 110.547 55.5488 110.547 55.5488 110.568C55.5488 110.631 55.5702 110.695 55.5916 110.78C55.6131 110.822 55.6131 110.886 55.6345 110.928C55.6559 110.991 55.6773 111.055 55.7202 111.119C55.7416 111.161 55.7631 111.203 55.7845 111.267C55.8059 111.33 55.8488 111.373 55.8916 111.415C55.9345 111.458 55.9559 111.5 55.9988 111.542C56.0416 111.585 56.0845 111.627 56.1273 111.669C56.1702 111.712 56.2131 111.754 56.2773 111.796C56.3202 111.839 56.3631 111.86 56.4059 111.902C56.4702 111.945 56.5131 111.966 56.5773 112.008C56.6202 112.03 56.6631 112.051 56.7059 112.072C56.7702 112.093 56.8559 112.114 56.9416 112.135C56.9845 112.157 57.0273 112.157 57.0702 112.178C57.1988 112.199 57.3059 112.22 57.4345 112.22H61.9988C62.3845 112.22 62.7488 112.093 63.0488 111.902C63.2416 111.775 63.413 111.606 63.563 111.394C63.7773 111.097 63.8845 110.737 63.8845 110.356C63.8845 110.271 63.8845 110.271 63.8845 110.25Z" fill="#404040"/>
<path d="M49.2268 30.91C48.8626 30.91 48.584 30.6346 48.584 30.2744V27.2237C48.584 26.8635 48.8626 26.5881 49.2268 26.5881C49.5911 26.5881 49.8697 26.8635 49.8697 27.2237V30.2744C49.8697 30.6134 49.5911 30.91 49.2268 30.91Z" fill="#E0EBFC"/>
<path d="M72.3265 30.91C71.9622 30.91 71.6836 30.6346 71.6836 30.2744V27.2237C71.6836 26.8635 71.9622 26.5881 72.3265 26.5881C72.6907 26.5881 72.9693 26.8635 72.9693 27.2237V30.2744C72.9693 30.6134 72.6693 30.91 72.3265 30.91Z" fill="#E0EBFC"/>
<path d="M49.2268 30.91C48.8626 30.91 48.584 30.6346 48.584 30.2744V27.2237C48.584 26.8635 48.8626 26.5881 49.2268 26.5881C49.5911 26.5881 49.8697 26.8635 49.8697 27.2237V30.2744C49.8697 30.6134 49.5911 30.91 49.2268 30.91Z" fill="white"/>
<path d="M72.3265 30.91C71.9622 30.91 71.6836 30.6346 71.6836 30.2744V27.2237C71.6836 26.8635 71.9622 26.5881 72.3265 26.5881C72.6907 26.5881 72.9693 26.8635 72.9693 27.2237V30.2744C72.9693 30.6134 72.6693 30.91 72.3265 30.91Z" fill="white"/>
<path d="M52.6557 58.5781L52.6772 58.5357L48.6272 52.7097C48.4129 52.4131 48.4557 51.9894 48.7557 51.7351L51.07 49.7437L50.17 47.2014C49.8272 46.2693 49.6557 45.2735 49.6557 44.299V41.5661C49.6557 41.3542 49.6772 41.1635 49.72 40.9517H50.2343L49.9343 40.4856L41.8772 49.32C40.8486 50.4428 40.8486 52.1588 41.8986 53.2605L48.4343 60.3365C48.6272 60.5483 48.6914 60.8449 48.5629 61.1203L47.5557 63.5143C47.1914 64.4041 47.1486 65.3786 47.4486 66.2896L48.7343 70.2725H48.82C48.9486 66.1201 50.2772 62.0525 52.6557 58.5781Z" fill="#FFCBC9"/>
<path d="M93.9697 24.7876C93.9912 24.8723 93.9912 24.9783 93.9912 25.063V33.2618C93.9912 33.3678 93.9697 33.4525 93.9697 33.5584H99.6912V24.7876H93.9697Z" fill="#30302F"/>
<path d="M101.62 40.613H109.334C110.406 40.613 111.263 39.7656 111.263 38.7063V19.9782C111.263 18.919 110.406 18.0715 109.334 18.0715H101.62C100.549 18.0715 99.6914 18.919 99.6914 19.9782V38.6851C99.6914 39.7444 100.549 40.613 101.62 40.613Z" fill="#6B6B6B"/>
<path d="M92.4695 23.5374H85.2909C84.4338 23.5374 83.748 24.2153 83.748 25.0627V33.2615C83.748 34.109 84.4338 34.7869 85.2909 34.7869H92.4695C93.3266 34.7869 94.0123 34.109 94.0123 33.2615V25.0627C94.0123 24.2153 93.3052 23.5374 92.4695 23.5374Z" fill="#6B6B6B"/>
<path d="M102.477 18.0716H108.455V15.9106C108.455 15.4869 108.112 15.1479 107.684 15.1479H103.248C102.819 15.1479 102.477 15.4869 102.477 15.9106V18.0716Z" fill="#ED6E24"/>
<path d="M99.6914 33.5584H96.6914V24.7876H99.6914V33.5584Z" fill="#30302F"/>
<path d="M26.5554 58.9387C26.534 59.0235 26.534 59.1294 26.534 59.2353V67.4341C26.534 67.5401 26.5554 67.6248 26.5554 67.7307H20.834V58.9599L26.5554 58.9387Z" fill="#30302F"/>
<path d="M18.9055 74.7637H11.1913C10.1198 74.7637 9.2627 73.9162 9.2627 72.857V54.1501C9.2627 53.0908 10.1198 52.2434 11.1913 52.2434H18.9055C19.977 52.2434 20.8341 53.0908 20.8341 54.1501V72.857C20.8341 73.8951 19.977 74.7637 18.9055 74.7637Z" fill="#6B6B6B"/>
<path d="M28.0765 57.6877H35.2551C36.1122 57.6877 36.798 58.3657 36.798 59.2131V67.4119C36.798 68.2593 36.1122 68.9373 35.2551 68.9373H28.0765C27.2194 68.9373 26.5337 68.2593 26.5337 67.4119V59.2131C26.5122 58.3657 27.2194 57.6877 28.0765 57.6877Z" fill="#6B6B6B"/>
<path d="M18.0489 52.2227H12.0703V50.0618C12.0703 49.638 12.4132 49.2991 12.8417 49.2991H17.2774C17.706 49.2991 18.0489 49.638 18.0489 50.0618V52.2227V52.2227Z" fill="#ED6E24"/>
<path d="M20.834 58.9387H23.834V67.7095H20.834V58.9387Z" fill="#30302F"/>
<path d="M22.655 52.3077V52.3289C22.5693 52.6679 22.7622 53.0068 23.105 53.0916L25.0122 53.6C25.355 53.6848 25.6979 53.4941 25.7836 53.1551V53.134C25.8693 52.795 25.6765 52.456 25.3336 52.3713L23.4265 51.8628C23.0836 51.7781 22.7408 51.9687 22.655 52.3077Z" fill="#83BCDC" fill-opacity="0.42"/>
<path d="M22.3127 49.235C22.1199 48.9172 22.227 48.5359 22.527 48.3452L24.2413 47.3707C24.5413 47.2012 24.927 47.3071 25.1198 47.6037L25.1413 47.6249C25.3127 47.9215 25.2056 48.3028 24.9056 48.4935L23.1913 49.4681C22.8699 49.6375 22.4841 49.5528 22.3127 49.235Z" fill="#83BCDC" fill-opacity="0.42"/>
<path d="M19.8052 47.4562H19.7838C19.4409 47.3714 19.248 47.0113 19.3338 46.6935L19.848 44.808C19.9338 44.469 20.298 44.2783 20.6195 44.3631H20.6409C20.9837 44.4478 21.1766 44.808 21.0909 45.1257L20.5766 47.0113C20.4909 47.329 20.148 47.5409 19.8052 47.4562Z" fill="#83BCDC" fill-opacity="0.42"/>
<path d="M97.8695 18.1574V18.1786C97.9553 18.5175 97.7624 18.8565 97.4195 18.9413L95.5124 19.4497C95.1696 19.5345 94.8267 19.3438 94.741 19.0048V18.9836C94.6553 18.6447 94.8481 18.3057 95.191 18.221L97.0981 17.7125C97.441 17.6066 97.7838 17.8184 97.8695 18.1574Z" fill="#83BCDC" fill-opacity="0.42"/>
<path d="M98.2121 15.0839C98.405 14.7661 98.2979 14.3848 97.9979 14.1941L96.2836 13.2196C95.9836 13.0501 95.5979 13.156 95.405 13.4526L95.3836 13.4738C95.2121 13.7704 95.3193 14.1517 95.6193 14.3424L97.3336 15.3169C97.655 15.4864 98.0407 15.3805 98.2121 15.0839Z" fill="#83BCDC" fill-opacity="0.42"/>
<path d="M100.72 13.2838H100.741C101.084 13.1991 101.277 12.8601 101.191 12.5211L100.677 10.6356C100.591 10.2966 100.249 10.106 99.9058 10.1907H99.8843C99.5415 10.2754 99.3486 10.6144 99.4343 10.9534L99.9486 12.8389C100.034 13.1779 100.377 13.3685 100.72 13.2838Z" fill="#83BCDC" fill-opacity="0.42"/>
<path d="M71.427 83.0264L73.2484 74.1073C73.4627 73.0692 73.5698 72.0099 73.5698 70.9718C73.5698 66.5652 72.2412 62.2433 69.7341 58.5994L68.727 57.1164L72.2412 47.2228C72.5841 46.2906 72.7555 45.2949 72.7555 44.3203V43.1339L66.5412 41.5874C64.0127 50.9302 62.8341 57.1164 62.8341 57.1164C62.8341 57.1164 67.3341 66.7347 67.0127 71.0989C66.6913 75.4419 66.0913 83.0476 53.5341 83.0476H53.5127H61.227H71.427V83.0264Z" fill="#306694"/>
<path d="M63.5193 44.1509L72.7336 43.8119V41.5662C72.7336 39.7866 71.0193 38.346 68.9193 38.346H65.2765V35.719C64.1408 36.2063 62.8765 36.4817 61.5693 36.524C61.5693 39.3629 64.6122 39.8926 65.6408 39.8926C66.6908 39.8926 66.5193 41.2272 66.5193 41.2272L63.5193 44.1509Z" fill="#E6B8B8"/>
<path d="M48.0906 40.9526H73.3763C73.7835 40.9526 74.1477 41.2704 74.2763 41.7365L75.4763 46.7999C75.6477 47.5625 75.0906 48.2617 74.4263 48.1345L48.0049 42.9865C47.7906 42.9441 47.6406 42.7322 47.6406 42.4992V41.4611C47.6406 41.1857 47.8335 40.9526 48.0906 40.9526Z" fill="white"/>
<g opacity="0.6">
<path opacity="0.6" d="M62.4068 83.0273H61.1853H60.7568V96.0988L60.4568 103.365L60.7568 104.954L60.3496 108.577H60.7996C61.2068 108.577 61.5925 108.641 61.9568 108.768L62.3853 104.933L62.0853 103.344L62.3853 96.0777V83.0273H62.4068Z" fill="#E6B8B8"/>
<path opacity="0.6" d="M57.242 108.917C57.7134 108.705 58.2277 108.578 58.7849 108.578H57.1777L57.242 108.917Z" fill="#E6B8B8"/>
</g>
<path d="M75.4766 46.7999L74.2766 41.7365C74.1694 41.2704 73.8051 40.9526 73.3766 40.9526H68.7266C69.1337 40.9526 69.498 41.2704 69.6266 41.7365L70.8266 46.7999C70.8694 47.0117 70.8694 47.2448 70.8051 47.4354L74.4266 48.1345C75.0908 48.2828 75.648 47.5625 75.4766 46.7999Z" fill="#C3D3ED"/>
<path d="M52.6773 58.5365L48.6273 52.7105C48.4131 52.3927 48.4559 51.9902 48.7559 51.736L51.0702 49.7234L50.3845 47.8167C48.8631 48.6641 46.0774 50.2954 46.1631 51.397C46.2702 52.9012 51.1345 58.6425 50.7273 60.2526C50.3202 61.8627 48.0488 63.9601 48.9916 68.3667C49.3988 64.8499 50.6631 61.4813 52.6773 58.5365V58.5365Z" fill="#E6B8B8"/>
<path d="M60.9488 112.157H61.9988C62.3845 112.157 62.7488 112.03 63.0488 111.839C63.2416 111.712 63.4131 111.542 63.5631 111.33C63.7773 111.034 63.8845 110.674 63.8845 110.292C63.8845 110.271 63.8845 110.271 63.8845 110.25C63.8845 109.953 63.7988 109.678 63.6702 109.424L63.5631 109.212L62.4059 104.932L61.9773 108.767C61.6131 108.64 61.2273 108.576 60.8202 108.576H60.7773C61.1416 109.445 61.7416 111.182 60.9488 112.157Z" fill="#585858"/>
<path d="M65.4696 107.031C65.5124 107.031 65.5553 107.009 65.5981 106.988C65.6838 106.967 65.7481 106.946 65.8338 106.925C65.8767 106.904 65.9196 106.882 65.9624 106.861C66.0267 106.84 66.091 106.798 66.1338 106.755C66.1767 106.734 66.2196 106.692 66.2624 106.649C66.3053 106.607 66.3481 106.565 66.4124 106.522C66.4553 106.48 66.4981 106.437 66.541 106.395C66.5838 106.353 66.6053 106.31 66.6481 106.268C66.691 106.226 66.7124 106.162 66.7553 106.12C66.7767 106.077 66.7981 106.035 66.8196 105.971C66.841 105.908 66.8838 105.844 66.9053 105.781C66.9267 105.738 66.9267 105.675 66.9481 105.632C66.9696 105.569 66.991 105.505 66.991 105.421C66.991 105.399 66.991 105.399 66.991 105.378C66.991 105.293 67.0124 105.188 67.0124 105.082C67.0124 104.806 66.9481 104.552 66.841 104.298L66.7553 104.086L66.0053 99.8064L65.3196 103.768C64.9981 103.62 64.6767 103.514 64.3124 103.471C64.3338 103.493 64.3338 103.514 64.3767 103.535C64.9767 103.641 64.8481 106.819 63.9053 107.009H65.1053C65.2124 107.073 65.341 107.052 65.4696 107.031Z" fill="#585858"/>
</svg>
