<svg width="438" height="279" viewBox="0 0 438 279" fill="none" xmlns="http://www.w3.org/2000/svg">
<g style="mix-blend-mode:multiply" opacity="0.32">
<path d="M329.427 220.513C88.6076 159.648 74.915 172.193 71.0042 178.551C63.8938 190.172 71.8372 211.29 86.5049 230.498C73.5843 227.786 60.9989 227.562 50.4552 231.626C28.6465 240.046 0.682301 233.261 0.0118914 239.518C-0.699149 246.517 30.6476 258.442 48.2611 258.818C86.6268 259.651 128.852 270.773 150.356 274.268C196.757 286.223 249.15 271.586 272.818 267.157C315.165 259.163 332.058 248.68 375.959 248.548C411.166 248.437 437.078 254.887 437.576 252.611C438.541 248.183 341.626 223.601 329.427 220.513Z" fill="#8DAFCD"/>
</g>
<path d="M151.068 27.2823C151.068 27.2823 117.111 -31.4598 71.1875 68.4719C35.4323 146.331 58.5411 232.946 141.276 256.715C224.01 280.484 353.206 232.489 312.647 198.653C226.611 126.899 161.317 63.2915 151.068 27.2823Z" fill="#F68C48"/>
<g style="mix-blend-mode:multiply" opacity="0.35">
<g style="mix-blend-mode:multiply" opacity="0.35">
<path d="M111.636 80.2749C109.381 87.4463 105.49 107.538 106.557 130.871C107.461 151.684 105.541 162.563 138.686 177.698C150.032 182.888 157.884 199.354 175.254 209.187C183.126 213.626 212.837 229.695 251.142 223.204C276.536 218.908 295.389 206.464 308.096 194.874C224.315 124.644 161.134 62.6513 151.068 27.2821C151.068 27.2821 138.655 5.81883 118.705 10.8977C124.992 17.738 129.088 26.3024 130.468 35.4895C132.662 51.0613 119.061 56.7293 111.636 80.2749Z" fill="#F68C48"/>
</g>
</g>
<g style="mix-blend-mode:multiply" opacity="0.13">
<g style="mix-blend-mode:multiply" opacity="0.13">
<path d="M273.692 233.068C234.564 254.673 169.23 267.858 120.544 231.697C75.4737 198.227 71.4614 142.156 69.9581 125.04C67.6889 98.8322 71.6787 72.4599 81.5988 48.0957C78.2061 54.0075 74.7424 60.7624 71.2075 68.4112C35.4523 146.27 58.5611 232.885 141.296 256.654C222.72 280.017 349.184 233.911 314.454 200.197C302.843 213.401 289.056 224.519 273.692 233.068Z" fill="#F68C48"/>
</g>
</g>
<path d="M212.034 239.599H208.53C178.29 238.919 135.831 228.873 105.297 184.849C79.5168 147.672 82.9501 105.71 90.3957 77.0656C95.3274 58.1759 102.906 40.0785 112.905 23.311C113.001 23.1645 113.15 23.0612 113.321 23.0233C113.492 22.9853 113.671 23.0157 113.819 23.1078C113.892 23.1551 113.955 23.2163 114.004 23.2879C114.053 23.3594 114.087 23.44 114.105 23.5249C114.123 23.6098 114.124 23.6974 114.108 23.7827C114.092 23.868 114.06 23.9493 114.012 24.022C104.081 40.6818 96.5577 58.6632 91.6654 77.4313C84.3011 105.802 80.8881 147.347 106.384 184.087C136.583 227.634 178.595 237.578 208.52 238.259C228.366 238.66 248.129 235.587 266.917 229.178C267.077 229.125 267.252 229.136 267.404 229.208C267.557 229.281 267.676 229.409 267.737 229.566C267.798 229.723 267.797 229.898 267.733 230.055C267.669 230.211 267.548 230.337 267.394 230.407C249.569 236.484 230.867 239.589 212.034 239.599Z" fill="#F6C3A2"/>
<path d="M373.858 232.214C372.192 230.386 369.206 222.524 374.66 220.919C380.115 219.314 383.183 217.232 390.73 211.086C398.277 204.941 400.217 210.213 389.562 220.228C378.906 230.244 376.285 234.805 373.858 232.214Z" fill="url(#paint0_linear_2822_14046)"/>
<path d="M366.717 220.737L371.207 224.719C371.661 225.125 372.236 225.37 372.843 225.418C373.45 225.466 374.057 225.313 374.569 224.983C374.811 224.825 375.013 224.612 375.159 224.363C375.305 224.114 375.392 223.834 375.411 223.545C375.431 223.257 375.384 222.968 375.273 222.701C375.162 222.434 374.99 222.196 374.772 222.006L368.21 216.298L366.717 220.737Z" fill="url(#paint1_linear_2822_14046)"/>
<path d="M191.222 170.527C180.962 179.517 202.395 208.974 236.566 199.426C278.009 187.856 330.708 193.057 366.239 221.986C368.271 220.148 373.401 217.273 371.074 214.876C338.976 182.371 309.254 163.782 284.632 158.785C247.404 151.268 220.425 144.95 191.222 170.527Z" fill="#303030"/>
<g style="mix-blend-mode:multiply" opacity="0.24">
<g style="mix-blend-mode:multiply" opacity="0.24">
<path d="M311.449 182.868C317.452 186.373 318.742 179.262 321.84 174.59C308.523 166.463 296.029 161.141 284.632 158.825C247.404 151.267 220.425 144.949 191.181 170.526C180.922 179.516 202.355 208.973 236.525 199.425C249.362 195.906 262.588 194.005 275.897 193.767C286.897 186.931 295.846 171.075 311.449 182.868Z" fill="#552D63"/>
</g>
</g>
<path d="M185.168 201.224L183.066 202.026C183.066 202.026 169.444 189.166 167.037 185.916C164.081 181.914 197.419 171.695 208.247 158.388C219.623 144.381 210.634 175.027 210.634 175.027L185.168 201.224Z" fill="#303030"/>
<path d="M172.815 75.0952C172.815 75.0952 184.903 76.7509 198.158 100.256C208.123 117.92 229.759 132.568 229.759 132.568L231.984 146.474L214.025 149.622L207.605 145.397L190.083 108.108L172.815 75.0952Z" fill="url(#paint2_linear_2822_14046)"/>
<path d="M149.382 73.5921C149.382 73.5921 119.579 77.2692 118.909 111.551C118.32 143.193 129.737 155.453 157.752 181.833C160.566 184.494 165.137 184.494 165.472 184.88C167.29 186.912 169.139 189.075 170.998 191.31C196.067 167.256 224.336 159.1 224.336 159.1C224.336 159.1 198.2 105.02 186.752 87.0917C174.898 68.5945 157.031 71.7535 149.382 73.5921Z" fill="#4DA6DD"/>
<g style="mix-blend-mode:multiply" opacity="0.2">
<g style="mix-blend-mode:multiply" opacity="0.2">
<path d="M198.85 153.462C186.275 160.197 168.448 159.435 161.886 151.105C156.95 144.828 156.157 142.492 150.144 132.649C145.309 124.726 142.952 123.507 132.388 116.782C127.464 113.64 123.089 109.711 119.437 105.152C119.146 107.273 118.979 109.41 118.94 111.551C118.35 143.193 129.768 155.453 157.783 181.833C160.596 184.494 165.167 184.494 165.503 184.88C167.321 186.911 169.17 189.075 171.028 191.31C196.098 167.256 224.367 159.1 224.367 159.1C224.367 159.1 220.029 150.598 214.28 138.632C210.115 145.61 206.926 149.145 198.85 153.462Z" fill="#4DA6DD"/>
</g>
</g>
<path d="M154.024 83.2514C146.914 83.2514 139.712 77.9897 139.366 77.7357C139.33 77.7115 139.3 77.6801 139.276 77.6434C139.253 77.6068 139.237 77.5657 139.231 77.5227C139.224 77.4798 139.226 77.436 139.237 77.394C139.249 77.3519 139.268 77.3127 139.295 77.2786C139.32 77.2437 139.352 77.2142 139.389 77.1917C139.426 77.1692 139.466 77.1542 139.509 77.1476C139.551 77.141 139.595 77.1428 139.637 77.1531C139.678 77.1634 139.718 77.1819 139.752 77.2075C139.844 77.2786 149.29 84.1554 156.919 82.2864C157.814 82.1342 158.663 81.7809 159.402 81.2531C160.141 80.7252 160.751 80.0366 161.185 79.2391C162.587 76.3848 161.002 72.6975 160.982 72.6569C160.965 72.6175 160.956 72.5753 160.956 72.5325C160.956 72.4898 160.964 72.4474 160.98 72.4077C160.996 72.3681 161.02 72.332 161.05 72.3016C161.08 72.2711 161.115 72.2469 161.155 72.2303C161.234 72.1954 161.324 72.1929 161.406 72.2232C161.487 72.2535 161.554 72.3143 161.591 72.3928C161.663 72.5553 163.318 76.3949 161.784 79.5032C161.308 80.3901 160.636 81.1571 159.819 81.7466C159.003 82.336 158.063 82.7325 157.071 82.906C156.074 83.1476 155.05 83.2636 154.024 83.2514Z" fill="#2489C8"/>
<path d="M166.843 183.884C166.797 183.886 166.752 183.878 166.709 183.86C166.667 183.843 166.63 183.816 166.599 183.783C166.538 183.72 166.504 183.636 166.504 183.549C166.504 183.462 166.538 183.378 166.599 183.315C166.873 183.072 193.557 159.181 217.651 153.299C217.693 153.289 217.736 153.286 217.778 153.292C217.82 153.298 217.861 153.312 217.898 153.334C217.935 153.356 217.967 153.385 217.993 153.419C218.018 153.453 218.037 153.492 218.048 153.533C218.058 153.575 218.06 153.619 218.054 153.662C218.047 153.704 218.032 153.746 218.009 153.782C217.986 153.819 217.957 153.851 217.921 153.877C217.886 153.902 217.846 153.92 217.804 153.929C193.872 159.79 167.31 183.559 167.015 183.803C166.968 183.848 166.907 183.876 166.843 183.884Z" fill="#2489C8"/>
<path d="M145.897 60.6406C145.897 60.6406 148.498 71.1539 147.929 73.2971C147.36 75.4404 150.489 77.7869 155.883 78.0205C161.276 78.2541 155.293 67.233 155.293 67.233L145.897 60.6406Z" fill="url(#paint3_linear_2822_14046)"/>
<path d="M164.222 50.4114C167.584 44.8653 163.318 36.8813 156.339 39.6543C151.585 41.5335 148.569 40.2029 145.43 41.3608C139.823 43.3924 140.432 47.4555 141.722 51.5186C142.85 59.5533 142.799 62.6921 151.403 67.4256C154.684 55.9981 160.128 57.1764 164.222 50.4114Z" fill="#303030"/>
<path d="M146.934 64.5108C148.063 66.2163 149.615 67.6009 151.437 68.5299C153.26 69.459 155.291 69.901 157.335 69.8131C164.273 69.3865 162.302 53.449 160.555 52.545C158.524 51.5292 155.7 52.8497 151.088 52.1184C149.148 51.8035 147.36 49.5383 146.527 52.1184C145.593 55.0844 146.284 59.564 146.284 59.564C146.284 59.564 144.15 57.7153 143.064 59.6859C142.19 61.2806 143.673 63.3122 146.934 64.5108Z" fill="url(#paint4_linear_2822_14046)"/>
<path d="M146.436 48.7153C146.436 48.7153 146.101 58.223 148.468 61.1687C149.483 63.0174 148.153 63.058 146.974 61.6969C145.796 60.3358 144.537 55.9679 144.537 55.9679L146.436 48.7153Z" fill="url(#paint5_linear_2822_14046)"/>
<path d="M147.858 41.5947C147.833 41.5975 147.808 41.5951 147.784 41.5879C147.76 41.5806 147.738 41.5685 147.719 41.5523C147.7 41.5361 147.685 41.5162 147.674 41.4938C147.663 41.4714 147.656 41.4469 147.655 41.422C147.654 41.3966 147.657 41.3712 147.666 41.3473C147.674 41.3234 147.687 41.3013 147.704 41.2825C147.721 41.2636 147.742 41.2482 147.765 41.2373C147.788 41.2264 147.813 41.2201 147.838 41.2188C148.153 41.2188 154.197 40.7922 155.507 38.2731C155.531 38.2295 155.57 38.1967 155.618 38.1815C155.665 38.1664 155.716 38.1701 155.761 38.1918C155.784 38.2036 155.804 38.2198 155.821 38.2395C155.837 38.2593 155.85 38.2821 155.857 38.3067C155.865 38.3313 155.867 38.3572 155.865 38.3828C155.862 38.4085 155.855 38.4333 155.842 38.4559C154.43 41.1274 148.488 41.554 147.858 41.5947Z" fill="url(#paint6_linear_2822_14046)"/>
<path d="M148.204 72.7995L142.109 72.9011C141.511 72.8589 140.941 72.6349 140.474 72.259C140.008 71.8831 139.667 71.3735 139.499 70.7985L135.659 58.3654C135.473 57.7967 135.465 57.185 135.636 56.6116C135.807 56.0382 136.148 55.5304 136.614 55.1556L141.693 51.7832C141.981 51.5575 142.322 51.4071 142.683 51.3452C143.044 51.2834 143.415 51.3122 143.762 51.4289C144.109 51.5457 144.422 51.7469 144.673 52.0143C144.923 52.2818 145.103 52.6073 145.197 52.9615L150.418 69.8436C150.544 70.1881 150.582 70.5586 150.528 70.9214C150.475 71.2843 150.332 71.628 150.112 71.9216C149.892 72.2151 149.602 72.4491 149.269 72.6024C148.936 72.7557 148.57 72.8235 148.204 72.7995Z" fill="#D8DEE8"/>
<path d="M147.503 73.0637L141.408 73.1856C140.82 73.1494 140.257 72.9358 139.793 72.5732C139.329 72.2105 138.985 71.7158 138.808 71.1541L134.988 58.8124C134.808 58.2472 134.803 57.6403 134.976 57.0725C135.148 56.5046 135.489 56.0026 135.953 55.6331L141.032 52.2709C141.319 52.0426 141.659 51.8895 142.02 51.8257C142.382 51.7618 142.753 51.7891 143.101 51.9051C143.449 52.0211 143.763 52.2222 144.013 52.49C144.264 52.7579 144.444 53.0841 144.537 53.439L149.768 70.118C149.894 70.4662 149.93 70.8405 149.873 71.2064C149.816 71.5723 149.668 71.918 149.442 72.2116C149.217 72.5051 148.921 72.7371 148.582 72.886C148.243 73.0349 147.872 73.0961 147.503 73.0637Z" fill="url(#paint7_linear_2822_14046)"/>
<path d="M148.467 81.0474C148.496 79.575 148.234 78.1113 147.695 76.7405C147.136 75.2778 146.618 74.7903 146.557 72.9212C146.496 71.0522 145.277 66.2578 142.748 68.3706C139.924 70.7272 140.138 75.5419 141.854 77.5125C143.571 79.4831 143.825 79.1784 144.902 81.017C146.039 80.9458 147.278 81.0373 148.467 81.0474Z" fill="url(#paint8_linear_2822_14046)"/>
<path d="M182.273 161.628C182.138 161.648 182.011 161.705 181.907 161.793C181.803 161.881 181.726 161.997 181.684 162.126C181.684 162.126 181.785 163.518 181.775 163.558C181.765 163.71 181.805 163.862 181.889 163.988C181.974 164.115 182.098 164.21 182.242 164.259L207.637 172.487L254.982 153.949L232.482 155.666L182.273 161.628Z" fill="#D8DEE8"/>
<path d="M182.272 161.446C182.12 161.468 181.98 161.541 181.875 161.653C181.77 161.765 181.706 161.909 181.693 162.062C181.68 162.215 181.719 162.367 181.804 162.495C181.889 162.623 182.014 162.719 182.16 162.766L207.504 170.994L254.849 152.456L232.35 154.173L182.272 161.446Z" fill="#F7F7F7"/>
<path d="M206.366 170.68L210.145 121.283C210.174 120.898 210.333 120.534 210.594 120.25C210.856 119.966 211.206 119.779 211.587 119.718L268.288 110.851C268.539 110.811 268.795 110.828 269.039 110.9C269.282 110.972 269.507 111.097 269.696 111.266C269.886 111.435 270.035 111.644 270.134 111.878C270.233 112.112 270.279 112.364 270.268 112.618L268.135 158.653C268.118 159.04 267.97 159.409 267.716 159.701C267.461 159.993 267.115 160.189 266.734 160.258L207.819 171.167L206.366 170.68Z" fill="#D8DEE8"/>
<path d="M207.585 172.487L211.475 122.003C211.505 121.62 211.664 121.257 211.926 120.975C212.188 120.693 212.537 120.508 212.918 120.449L269.628 111.571C269.879 111.532 270.136 111.549 270.379 111.621C270.623 111.693 270.847 111.818 271.037 111.987C271.226 112.156 271.376 112.365 271.475 112.598C271.574 112.832 271.62 113.085 271.609 113.339L269.476 159.384C269.46 159.769 269.313 160.138 269.06 160.429C268.808 160.721 268.464 160.918 268.084 160.989L207.585 172.487Z" fill="url(#paint9_linear_2822_14046)"/>
<path d="M207.585 172.487L268.074 160.989C268.453 160.918 268.797 160.72 269.05 160.429C269.303 160.138 269.449 159.769 269.466 159.384L270.106 145.498C252.086 155.737 229.475 157.037 208.459 161.141L207.585 172.487Z" fill="url(#paint10_linear_2822_14046)"/>
<path d="M312.403 160.4C311.651 157.911 310.107 155.128 315.085 153.401C318.691 152.141 325.059 151.999 330.849 151.959C338.976 151.898 341.068 157.352 329.336 160.176C321.657 162.025 313.47 163.934 312.403 160.4Z" fill="url(#paint11_linear_2822_14046)"/>
<path d="M318.214 157.748C318.289 158.448 318.098 159.151 317.678 159.716C317.258 160.281 316.641 160.667 315.948 160.796C312.85 161.232 313.429 159.638 313.338 158.033C313.246 156.428 311.977 155.31 315.593 154.985C315.946 154.995 316.295 155.073 316.618 155.217C316.941 155.361 317.232 155.567 317.476 155.824C317.719 156.08 317.91 156.382 318.036 156.713C318.163 157.043 318.223 157.395 318.214 157.748Z" fill="url(#paint12_linear_2822_14046)"/>
<path d="M286.389 148.505L289.437 148.018C289.437 148.018 295.399 148.576 311.784 153.096C315.308 153.686 320.103 163.945 309.752 164.351C299.401 164.758 286.897 172.427 286.897 172.427L286.389 148.505Z" fill="#303030"/>
<path d="M179.387 196.267C179.387 196.267 180.88 209.594 211.892 208.375C242.903 207.156 298.232 175.007 297.857 158.135C297.481 141.263 276.921 147.977 255.6 157.759C237.601 165.987 209.799 170.751 204.101 171.634C196.777 172.772 177.62 189.868 179.387 196.267Z" fill="#303030"/>
<g style="mix-blend-mode:multiply" opacity="0.2">
<path style="mix-blend-mode:multiply" opacity="0.2" d="M219.917 179.577C234.25 178.115 237.47 167.825 255.317 164.849C266.877 162.919 270.96 166.332 276.851 162.39C281.504 159.272 283.881 153.838 285.028 147.936C277.116 148.606 266.45 152.781 255.571 157.759C238.14 165.753 211.365 170.476 204.62 171.553C204.417 171.553 199.897 169.968 199.897 169.968C199.897 169.968 196.534 171.888 194.127 173.412C203.523 178.45 214.676 180.106 219.917 179.577Z" fill="url(#paint13_linear_2822_14046)"/>
</g>
<path d="M188.905 34.129C190.683 32.9101 197.936 23.047 206.773 35.8355C207.789 36.5059 210.744 35.1956 210.501 34.0579C200.455 15.8959 184.365 30.5027 185.624 32.3819C186.884 34.2611 186.843 35.5816 188.905 34.129Z" fill="#D8DEE8"/>
<path d="M218.027 29.7613C220.232 29.7613 222.426 28.4307 221.989 26.4601C221.552 24.4895 203.106 -1.76825 177.295 23.4127C177.137 23.5639 177.011 23.7451 176.923 23.9457C176.836 24.1462 176.79 24.3622 176.787 24.5809C176.786 24.8013 176.829 25.0197 176.913 25.2237C176.996 25.4276 177.119 25.613 177.275 25.7693C178.29 26.7851 179.083 27.425 180.261 27.3946C203.786 5.37263 215.793 29.8121 218.027 29.7613Z" fill="#D8DEE8"/>
<path d="M229.546 23.5445C231.07 24.0016 234.341 23.1484 233.772 20.4972C200.993 -22.8559 164.384 15.7536 165.41 17.5515C165.875 18.2789 166.567 18.8325 167.379 19.1263C168.191 19.4202 169.077 19.4379 169.9 19.1767C202.638 -15.3799 228.033 23.0874 229.546 23.5445Z" fill="#D8DEE8"/>
<path d="M201.948 41.5235C201.853 42.4805 201.477 43.388 200.867 44.1313C200.257 44.8746 199.44 45.4204 198.52 45.6999C197.6 45.9793 196.618 45.9798 195.697 45.7013C194.777 45.4228 193.959 44.8778 193.349 44.1351C192.738 43.3924 192.361 42.4853 192.265 41.5284C192.169 40.5715 192.359 39.6077 192.811 38.7588C193.263 37.9098 193.956 37.2138 194.803 36.7585C195.65 36.3032 196.613 36.1092 197.57 36.2009C198.208 36.2619 198.827 36.4482 199.392 36.7489C199.957 37.0496 200.457 37.459 200.864 37.9535C201.271 38.4479 201.576 39.0178 201.762 39.6304C201.948 40.2431 202.011 40.8864 201.948 41.5235Z" fill="#D8DEE8"/>
<path d="M62.5332 53.9161C64.4687 53.9161 66.0376 52.3471 66.0376 50.4116C66.0376 48.4762 64.4687 46.9072 62.5332 46.9072C60.5978 46.9072 59.0288 48.4762 59.0288 50.4116C59.0288 52.3471 60.5978 53.9161 62.5332 53.9161Z" fill="#D8DEE8"/>
<path d="M41.3535 53.9161C43.289 53.9161 44.858 52.3471 44.858 50.4116C44.858 48.4762 43.289 46.9072 41.3535 46.9072C39.4181 46.9072 37.8491 48.4762 37.8491 50.4116C37.8491 52.3471 39.4181 53.9161 41.3535 53.9161Z" fill="#D8DEE8"/>
<path d="M20.1651 53.9161C22.1005 53.9161 23.6695 52.3471 23.6695 50.4116C23.6695 48.4762 22.1005 46.9072 20.1651 46.9072C18.2296 46.9072 16.6606 48.4762 16.6606 50.4116C16.6606 52.3471 18.2296 53.9161 20.1651 53.9161Z" fill="#D8DEE8"/>
<path d="M129.543 83.6784C114.033 87.0101 102.463 131.745 131.656 151.979C146.791 162.472 169.037 104.664 150.001 79.7778C149.178 80.1232 146.476 80.1638 142.454 79.8794C154.217 93.3587 141.743 128.636 136.857 124.573C131.382 120.013 147.736 79.7778 129.543 83.6784Z" fill="#2288C7"/>
<defs>
<linearGradient id="paint0_linear_2822_14046" x1="359.685" y1="237.444" x2="381.245" y2="212.943" gradientUnits="userSpaceOnUse">
<stop stop-color="#40447E"/>
<stop offset="1" stop-color="#3C3B6B"/>
</linearGradient>
<linearGradient id="paint1_linear_2822_14046" x1="364.929" y1="214.276" x2="374.599" y2="226.029" gradientUnits="userSpaceOnUse">
<stop stop-color="#F5928F"/>
<stop offset="1" stop-color="#F8B2B1"/>
</linearGradient>
<linearGradient id="paint2_linear_2822_14046" x1="261.556" y1="225.394" x2="206.352" y2="114.151" gradientUnits="userSpaceOnUse">
<stop stop-color="#4DA6DD"/>
<stop offset="1" stop-color="#2288C7"/>
</linearGradient>
<linearGradient id="paint3_linear_2822_14046" x1="151.322" y1="67.6393" x2="154.024" y2="78.183" gradientUnits="userSpaceOnUse">
<stop stop-color="#F5928F"/>
<stop offset="1" stop-color="#F8B2B1"/>
</linearGradient>
<linearGradient id="paint4_linear_2822_14046" x1="4273.01" y1="1334.63" x2="4306.07" y2="1022.74" gradientUnits="userSpaceOnUse">
<stop stop-color="#F5928F"/>
<stop offset="1" stop-color="#F8B2B1"/>
</linearGradient>
<linearGradient id="paint5_linear_2822_14046" x1="140.66" y1="74.1845" x2="153.326" y2="40.3356" gradientUnits="userSpaceOnUse">
<stop stop-color="#311944"/>
<stop offset="1" stop-color="#6B3976"/>
</linearGradient>
<linearGradient id="paint6_linear_2822_14046" x1="1963.18" y1="888.419" x2="1981.58" y2="763.357" gradientUnits="userSpaceOnUse">
<stop stop-color="#311944"/>
<stop offset="1" stop-color="#6B3976"/>
</linearGradient>
<linearGradient id="paint7_linear_2822_14046" x1="134.836" y1="62.4692" x2="149.849" y2="62.4692" gradientUnits="userSpaceOnUse">
<stop stop-color="#E3E7EF"/>
<stop offset="1" stop-color="#FAFBFD"/>
</linearGradient>
<linearGradient id="paint8_linear_2822_14046" x1="1768.49" y1="1144.77" x2="1730.01" y2="965.952" gradientUnits="userSpaceOnUse">
<stop stop-color="#F5928F"/>
<stop offset="1" stop-color="#F8B2B1"/>
</linearGradient>
<linearGradient id="paint9_linear_2822_14046" x1="207.585" y1="142.014" x2="271.599" y2="142.014" gradientUnits="userSpaceOnUse">
<stop stop-color="#E3E7EF"/>
<stop offset="1" stop-color="#E5E9F0"/>
</linearGradient>
<linearGradient id="paint10_linear_2822_14046" x1="207.585" y1="158.998" x2="270.106" y2="158.998" gradientUnits="userSpaceOnUse">
<stop stop-color="#CCCED6"/>
<stop offset="1" stop-color="#DBDDE6"/>
</linearGradient>
<linearGradient id="paint11_linear_2822_14046" x1="9840.92" y1="9840.44" x2="10443.7" y2="9594.13" gradientUnits="userSpaceOnUse">
<stop stop-color="#40447E"/>
<stop offset="1" stop-color="#3C3B6B"/>
</linearGradient>
<linearGradient id="paint12_linear_2822_14046" x1="2350.46" y1="1789.03" x2="4399.96" y2="3444.29" gradientUnits="userSpaceOnUse">
<stop stop-color="#F5928F"/>
<stop offset="1" stop-color="#F8B2B1"/>
</linearGradient>
<linearGradient id="paint13_linear_2822_14046" x1="22515" y1="11562.1" x2="30243.6" y2="6830.74" gradientUnits="userSpaceOnUse">
<stop stop-color="#311944"/>
<stop offset="1" stop-color="#6B3976"/>
</linearGradient>
</defs>
</svg>
