<svg width="402" height="427" viewBox="0 0 402 427" fill="none" xmlns="http://www.w3.org/2000/svg">
<g style="mix-blend-mode:multiply" opacity="0.3">
<path d="M3.22918 382.714C8.71806 391.841 40.6474 385.091 61.5933 376.925C95.3701 363.722 95.0374 348.91 123.284 337.839C164.127 321.835 202.241 338.139 204.408 330.245C205.834 325.047 190.38 314.241 173.563 309.87C154.014 304.787 144.039 311.361 97.2205 322.055C59.3813 330.691 55.7536 328.711 42.6133 335.868C18.3727 349.047 -2.21199 373.667 3.22918 382.714Z" fill="#8DAFCD"/>
</g>
<path d="M197.884 283.071C198.288 282.717 198.786 282.478 199.324 282.38C199.861 282.283 200.418 282.33 200.932 282.518C202.852 283.226 202.597 286.929 202.817 290.861C203.054 295.345 203.504 300.127 201.444 299.959C200.559 299.898 199.033 297.06 198.866 294.531C198.716 292.532 198.32 290.555 197.687 288.642C197.525 287.816 197.43 286.979 197.403 286.139C197.353 284.564 197.33 283.669 197.884 283.071Z" fill="#26264F"/>
<path d="M200.273 286.405C200.153 288.307 196.774 288.838 194.761 288.694C192.749 288.55 192.859 287.785 192.979 285.882C193.1 283.979 193.258 282.597 195.279 282.742C197.3 282.887 200.393 284.502 200.273 286.405Z" fill="url(#paint0_linear_2822_14095)"/>
<path d="M47.8677 337.059L42.8342 352.25C43.0547 352.718 43.3734 353.137 43.77 353.481C44.1666 353.824 44.6323 354.085 45.137 354.246C45.7305 354.34 46.3364 354.311 46.9137 354.159C47.4909 354.007 48.0258 353.737 48.4822 353.366C50.0052 346.131 52.1331 341.658 54.1363 338.732C55.5428 336.687 56.8721 335.44 56.8247 334.65C56.7318 333.318 52.2218 335.089 47.8677 337.059Z" fill="url(#paint1_linear_2822_14095)"/>
<path d="M43.0195 201.299L40.5278 201.484C38.1956 201.223 35.8469 201.149 33.5062 201.265C30.9216 201.529 29.3804 202.68 29.2204 205.216C29.0605 207.752 32.2698 208.321 35.0526 208.818C36.7922 209.124 39.1568 207.885 41.0061 206.73C42.4444 206.071 43.9708 205.604 45.5434 205.344L43.0195 201.299Z" fill="url(#paint2_linear_2822_14095)"/>
<path d="M80.9855 93.761C77.3428 95.4556 76.3202 101.008 77.0476 104.465C77.5752 106.925 78.5122 109.292 79.8221 111.474C80.4318 113.016 80.9506 114.457 81.3641 115.747C81.6666 116.697 81.873 117.486 82.0899 118.251C82.416 119.738 82.6163 121.247 82.6887 122.762C82.6942 122.814 82.7197 122.862 82.7602 122.896C82.8007 122.931 82.8531 122.949 82.9068 122.948C82.9628 122.952 83.0178 122.935 83.0599 122.899C83.1019 122.864 83.1274 122.814 83.1308 122.76C83.0681 121.225 82.869 119.695 82.5357 118.189C82.3572 117.376 82.1487 116.621 81.8116 115.66C81.5894 114.98 81.3434 114.256 81.0639 113.504C82.4067 115.696 83.2787 118.122 83.6275 120.634C84.9832 130.094 95.601 133.559 102.063 132.017C107.788 130.651 112.145 126.336 113.174 121.941C116.362 108.128 89.0347 90.0355 80.9855 93.761Z" fill="#141414"/>
<path d="M94.5895 199.135C83.3034 215.535 75.0919 240.524 64.704 268.751C55.387 294.099 48.1568 317.615 43.5913 335.522C45.0291 336.843 46.617 338.002 48.324 338.977C56.8063 344.181 52.072 341.308 54.5645 342.727C55.1672 337.998 64.2099 330.631 66.5241 316.163C68.464 304.23 82.4939 291.297 93.1931 271.985C100.693 258.597 104.357 251.927 110.183 247.552C113.77 244.877 122.026 239.27 123.976 229.976C124.056 229.587 124.108 229.193 124.131 228.796C124.92 215.693 100.405 202.17 94.5895 199.135Z" fill="#303030"/>
<path d="M94.5116 199.019C88.3339 208.019 83.078 219.553 77.8912 232.791C87.7575 238.787 95.9027 248.238 91.2282 258.733C86.7236 269.488 70.7179 273.978 67.0158 286.634C63.2819 300.205 64.5233 307.618 60.7982 321.19C58.9809 327.546 52.3135 334.753 51.6494 341.13C52.4157 341.647 54.0658 342.51 54.4833 342.788C55.0871 338.053 65.6435 325.288 67.7535 316.989C70.7316 305.242 82.4383 291.289 93.1475 271.948C100.61 258.545 104.277 251.864 110.107 247.481C113.697 244.8 121.96 239.182 123.912 229.876C123.993 229.487 124.045 229.092 124.067 228.695C124.859 215.576 100.331 202.054 94.5116 199.019Z" fill="#141414"/>
<path d="M101.537 223.537C101.314 223.975 101.171 224.447 101.114 224.933C100.587 229.787 109.479 236.719 127.666 269.073C130.832 274.784 136.374 284.781 145.983 288.318C146.999 288.686 148.042 288.979 149.103 289.193C150.96 289.559 152.858 289.677 154.742 289.544C157.204 289.379 166.734 287.467 193.487 291.688C193.736 291.239 198.604 285.93 193.179 278.404C191.671 276.309 189.368 275.492 187.592 274.848C179.205 271.797 164.437 269.507 161.039 269.562C158.682 269.598 157.194 269.009 155.771 269.188C147.845 241.801 154.022 218.966 142.492 217.628C140.237 217.323 104.332 216.977 101.537 223.537Z" fill="#303030"/>
<path d="M76.572 148.494C70.5628 150.037 78.1422 170.96 65.0719 185.641C58.4788 193.058 54.201 197.309 41.3379 199.201C42.6488 204.359 41.6049 201.275 42.9158 206.433C47.116 206.908 66.6964 206.968 80.6843 196.949C84.2442 194.393 91.716 189.034 93.2477 175.59C95.1886 158.476 82.2482 147.037 76.572 148.494Z" fill="url(#paint3_linear_2822_14095)"/>
<path d="M83.8393 128.783C80.6717 131.956 79.2431 134.999 77.4305 138.95C74.5441 145.22 72.9034 148.826 72.8015 153.376C72.5988 162.178 78.209 168.991 80.9273 171.814C85.9924 191.732 87.1564 196.373 87.1615 196.433L87.1535 196.56C86.6369 199.894 85.8062 203.172 84.6715 206.354C80.8534 217.029 76.3729 218.756 77.2326 222.763C78.7491 229.792 94.536 233.759 106.764 233.388C113.241 233.191 113.922 231.922 119.43 231.391C142.603 229.164 151.932 249.516 167.248 245.559C178.129 242.753 179.029 230.873 193.03 229.559C197.927 229.061 203.238 229.987 203.798 228.25C204.358 226.514 200.021 223.464 196.313 221.761C188.308 218.057 180.611 219.527 177.23 219.793C162.088 220.992 147.766 204.88 139.175 195.208C114.875 167.879 117.845 132.461 118.618 125.12C116.628 123.906 109.345 119.811 92.5647 122.907C89.2831 124.301 86.3204 126.296 83.8393 128.783Z" fill="#4DA6DD"/>
<g style="mix-blend-mode:multiply" opacity="0.24">
<path d="M203.405 228.273C203.963 226.571 199.628 223.489 195.922 221.787C187.919 218.085 180.225 219.556 176.845 219.823C161.708 221.023 147.39 204.918 138.801 195.259C126.603 181.533 121.241 165.774 119.101 152.557C116.147 166.904 109.806 181.203 115.262 194.471C119.242 206.655 137.255 207.021 143.013 221.109C145.498 226.769 153.122 226.407 159.683 227.787C164.402 228.126 165.832 235.546 172.507 235.107C175.404 234.397 177.58 229.989 179.469 230.125C181.869 230.297 184.461 230.483 187.123 230.836C188.886 230.152 190.745 229.713 192.643 229.532C197.534 229.11 202.845 230.009 203.405 228.273Z" fill="#288CCA"/>
</g>
<path d="M125.853 224.507C124.485 225.424 121.417 227.218 117.833 227.024C116.836 226.99 115.851 226.782 114.926 226.408C113.476 225.789 112.208 224.825 111.243 223.608C114.04 222.458 116.922 221.503 119.864 220.751L122.631 220.235L125.853 224.507Z" fill="url(#paint4_linear_2822_14095)"/>
<path d="M181.882 201.064L93.6977 228.29C92.5951 228.626 91.3936 228.526 90.3551 228.013C89.3166 227.499 88.5252 226.614 88.1535 225.549L71.6462 177.056C71.2831 175.989 71.3705 174.833 71.8894 173.839C72.4083 172.845 73.3166 172.094 74.4164 171.75L162.601 144.524C163.703 144.191 164.902 144.292 165.938 144.805C166.975 145.318 167.765 146.202 168.136 147.264L184.644 195.757C185.007 196.823 184.921 197.979 184.404 198.973C183.887 199.967 182.981 200.718 181.882 201.064Z" fill="#E36514"/>
<path d="M183.441 201.671L95.2561 228.897C94.1534 229.233 92.9519 229.133 91.9134 228.619C90.8749 228.106 90.0836 227.221 89.7118 226.156L73.2046 177.663C72.8415 176.596 72.9289 175.439 73.4478 174.446C73.9667 173.452 74.875 172.701 75.9748 172.357L164.159 145.131C165.262 144.795 166.464 144.895 167.502 145.408C168.541 145.921 169.332 146.807 169.704 147.871L186.212 196.348C186.58 197.417 186.496 198.578 185.976 199.576C185.457 200.574 184.545 201.327 183.441 201.671Z" fill="url(#paint5_linear_2822_14095)"/>
<path d="M123.188 177.994L86.4908 189.703C86.4053 189.728 86.3127 189.719 86.2331 189.679C86.1534 189.639 86.093 189.57 86.0649 189.487L84.9591 186.107C84.9442 186.067 84.9376 186.025 84.9397 185.982C84.9418 185.94 84.9525 185.899 84.9713 185.86C84.99 185.822 85.0164 185.788 85.0489 185.76C85.0815 185.732 85.1195 185.71 85.1608 185.696L121.872 174.039C121.912 174.026 121.955 174.022 121.998 174.025C122.04 174.029 122.082 174.041 122.12 174.06C122.158 174.079 122.192 174.105 122.219 174.137C122.247 174.169 122.268 174.205 122.281 174.245L123.433 177.594C123.446 177.636 123.451 177.68 123.445 177.724C123.44 177.768 123.426 177.81 123.403 177.847C123.38 177.885 123.348 177.918 123.311 177.943C123.274 177.968 123.232 177.985 123.188 177.994Z" fill="#F6BA94"/>
<path d="M120.759 170.419L84.0798 182.129C83.9953 182.155 83.9036 182.147 83.824 182.109C83.7444 182.07 83.6832 182.003 83.6533 181.922L82.4868 178.529C82.4723 178.489 82.4663 178.447 82.469 178.405C82.4718 178.363 82.4833 178.322 82.5029 178.284C82.5225 178.247 82.5498 178.213 82.5831 178.187C82.6164 178.16 82.6551 178.139 82.6968 178.127L119.399 166.461C119.441 166.449 119.484 166.445 119.527 166.449C119.57 166.453 119.611 166.466 119.649 166.486C119.687 166.506 119.721 166.533 119.748 166.565C119.775 166.598 119.796 166.635 119.808 166.675L120.96 170.016C120.975 170.056 120.981 170.097 120.979 170.139C120.977 170.181 120.966 170.222 120.948 170.259C120.929 170.297 120.902 170.33 120.87 170.357C120.838 170.385 120.8 170.406 120.759 170.419Z" fill="#F6BA94"/>
<path d="M93.8813 192.015L94.3536 193.418L92.399 193.991L94.4312 200.032L93.004 200.45L90.9719 194.409L89.0276 194.978L88.5554 193.574L93.8813 192.015ZM104.499 196.02C104.019 196.979 103.254 197.612 102.206 197.918C101.159 198.225 100.144 198.114 99.1627 197.583C98.1859 197.044 97.5151 196.231 97.1501 195.146C96.7852 194.062 96.8395 193.041 97.3129 192.084C97.7909 191.119 98.5539 190.483 99.6018 190.176C100.65 189.869 101.666 189.984 102.649 190.522C103.63 191.052 104.304 191.86 104.669 192.945C105.033 194.029 104.977 195.055 104.499 196.02ZM99.8295 196.29C100.43 196.612 101.062 196.676 101.723 196.483C102.385 196.289 102.864 195.899 103.159 195.314C103.453 194.722 103.48 194.072 103.241 193.363C103.003 192.654 102.582 192.134 101.979 191.805C101.376 191.475 100.743 191.407 100.081 191.601C99.4194 191.795 98.9419 192.188 98.6488 192.78C98.3557 193.372 98.3284 194.022 98.5669 194.732C98.8055 195.441 99.2263 195.96 99.8295 196.29ZM111.964 190.656C112.725 190.846 113.233 191.32 113.488 192.079C113.701 192.71 113.658 193.291 113.359 193.823C113.061 194.354 112.594 194.713 111.96 194.898L108.889 195.798L106.384 188.353L109.239 187.517C109.859 187.335 110.446 187.381 111 187.655C111.559 187.92 111.941 188.357 112.146 188.967C112.354 189.584 112.293 190.147 111.964 190.656ZM109.7 188.889L108.273 189.307L108.824 190.945L110.251 190.527C110.472 190.462 110.628 190.331 110.72 190.132C110.82 189.932 110.83 189.715 110.751 189.481C110.672 189.247 110.534 189.073 110.337 188.959C110.14 188.846 109.928 188.822 109.7 188.889ZM111.499 193.526C111.74 193.456 111.912 193.316 112.016 193.106C112.117 192.889 112.125 192.654 112.039 192.398C111.956 192.15 111.807 191.968 111.594 191.851C111.378 191.727 111.15 191.701 110.908 191.771L109.264 192.253L109.854 194.008L111.499 193.526ZM121.769 192.026L120.884 190.813L117.998 191.658L118.015 193.125L116.474 193.576L116.503 185.389L118.272 184.871L123.32 191.571L121.769 192.026ZM117.992 190.153L119.977 189.571L117.961 186.82L117.992 190.153ZM126.183 182.555C126.879 182.351 127.546 182.42 128.184 182.763C128.822 183.106 129.259 183.628 129.495 184.33C129.731 185.032 129.693 185.694 129.379 186.315C129.065 186.937 128.561 187.35 127.864 187.553L126.592 187.926L127.415 190.372L125.988 190.79L123.483 183.345L126.183 182.555ZM127.403 186.181C127.706 186.093 127.922 185.913 128.05 185.641C128.176 185.363 128.186 185.064 128.078 184.745C127.969 184.419 127.778 184.179 127.506 184.025C127.235 183.87 126.948 183.838 126.644 183.927L125.372 184.299L126.131 186.554L127.403 186.181Z" fill="white"/>
<path d="M107.865 131.678C117.21 124.063 144.028 135.394 152.981 157.726C160.688 176.934 162.443 187.699 152.295 205.313C144.418 218.989 129.404 224.17 125.091 225.662C124.453 224.403 124.657 224.956 121.33 220.265C130.274 217.73 139.479 203.099 140.989 193.809C143.012 181.471 136.95 169.037 130.868 164.181C125.19 159.654 106.817 163.038 101.38 158.767C94.1647 153.052 100.697 137.527 107.865 131.678Z" fill="url(#paint6_linear_2822_14095)"/>
<path d="M94.6006 105.942C93.3888 110.12 92.6824 115.265 95.4932 118.139C97.9896 120.666 101.784 120.036 101.971 121.278C102.346 123.737 87.743 128.116 86.7856 126.315C86.3105 125.427 90.9023 123.805 91.0103 120.699C91.0921 119.408 90.5056 118.461 87.3419 113.608L86.1626 113.915L94.6006 105.942Z" fill="url(#paint7_linear_2822_14095)"/>
<path d="M157.513 114.4C154.994 106.585 146 102.143 144.296 101.37C133.696 96.543 129.141 101.731 116.589 97.0052C116.038 96.8053 115.523 96.5909 115.025 96.3862C118.288 97.5263 121.695 98.2226 125.147 98.4548L125.936 98.5102L126.173 98.5269C127.896 98.5837 129.62 98.5346 131.335 98.3801C132.555 98.3045 133.704 98.2325 134.576 98.2343C136.384 98.2132 138.188 98.4485 139.931 98.9328L140.686 99.1216C140.708 99.1296 140.731 99.1332 140.755 99.1324C140.778 99.1315 140.801 99.1261 140.822 99.1165C140.843 99.1069 140.862 99.0933 140.878 99.0765C140.893 99.0597 140.905 99.0401 140.912 99.0187C140.919 98.9978 140.92 98.9758 140.917 98.9541C140.914 98.9324 140.906 98.9116 140.894 98.893C140.882 98.8745 140.866 98.8586 140.847 98.8465C140.828 98.8344 140.806 98.8264 140.784 98.8229L140.029 98.6426C138.252 98.1353 136.408 97.8914 134.561 97.9192C133.68 97.9168 132.521 97.9967 131.292 98.0716C129.534 98.2278 127.766 98.271 126 98.2007L125.21 98.1453C122.343 97.9439 118.833 97.5956 111.998 94.9431C111.144 94.5182 110.405 94.0928 109.639 93.6656L110.421 93.9751C112.406 94.8448 114.467 95.5378 116.579 96.0455C117.363 96.203 118.157 96.3098 118.955 96.3651L119.586 96.4094C119.718 96.4187 119.82 96.3325 119.818 96.2305C119.817 96.2029 119.811 96.1756 119.799 96.1502C119.788 96.1249 119.771 96.102 119.75 96.0831C119.729 96.0642 119.704 96.0495 119.677 96.04C119.65 96.0305 119.621 96.0264 119.593 96.028C118.612 95.9924 117.635 95.8755 116.673 95.6787C114.603 95.1806 112.582 94.5018 110.635 93.6507C109.854 93.3327 109.037 93.0123 108.254 92.7197C107.928 92.5949 107.6 92.4786 107.272 92.3707C104.056 90.6482 100.59 89.4088 96.9966 88.6957C92.7816 87.7971 84.8755 87.3269 82.7533 88.994C80.4083 90.8408 89.8424 93.6165 92.4147 107.283C93.6479 114.772 97.6067 121.622 103.579 126.602C105.602 128.323 122.194 142.023 139.841 137.203C151.52 133.991 160.454 123.475 157.513 114.4Z" fill="#303030"/>
<g style="mix-blend-mode:multiply" opacity="0.2">
<g style="mix-blend-mode:multiply" opacity="0.2">
<path d="M157.334 114.586C154.867 106.801 145.923 102.352 144.228 101.577C143.189 101.094 142.116 100.682 141.019 100.344C142.176 101.167 143.196 102.156 144.04 103.278C144.845 104.351 146.782 106.968 146.091 109.841C145.45 112.514 143.101 113.077 140.668 115.864C136.585 120.54 139.063 123.713 136.433 126.317C131.793 130.918 117.136 127.899 108.035 123.818C102.889 121.524 98.2528 118.281 94.391 114.275C96.3406 118.992 99.4375 123.198 103.419 126.538C105.427 128.257 121.895 141.944 139.52 137.205C151.246 134.061 160.216 123.627 157.334 114.586Z" fill="#303030"/>
</g>
</g>
<path d="M92.5497 110.201C92.5497 110.201 92.4786 115.242 87.3475 115.63C81.0273 116.068 78.8828 100.022 80.3389 98.968C82.0338 97.7777 83.7958 100.284 87.8982 99.0884C89.6119 98.5815 90.9328 96.3071 92.0277 98.5858C93.2712 101.174 92.8363 105.95 92.8363 105.95C92.8363 105.95 94.2375 104.645 94.5983 106.078C95.0632 107.961 93.7077 109.244 92.5497 110.201Z" fill="url(#paint8_linear_2822_14095)"/>
<path d="M80.0217 90.5699C77.6203 92.9473 76.65 97.4078 78.7413 99.5212C81.7547 102.551 89.2099 98.8532 92.86 102.566C94.4528 104.185 94.6393 106.544 95.368 106.469C96.0967 106.393 96.1383 104.756 96.3298 103.401C97.403 95.9141 99.5109 94.969 98.6092 92.89C96.7053 88.6482 84.9138 85.6601 80.0217 90.5699Z" fill="#303030"/>
<path d="M34.5389 347.182C35.1005 346.517 38.4888 347.111 40.158 348.153C42.9549 349.885 44.4683 352.698 45.1879 353.156C46.2372 353.705 47.4589 353.852 48.6056 353.566C48.6056 353.566 49.598 355.842 47.5235 356.757C45.4489 357.672 31.0223 351.272 34.5389 347.182Z" fill="#26264F"/>
<path d="M271.366 90.6448C340.522 94.8399 397.361 85.4302 398.32 69.6275C399.775 42.4984 343.995 37.6134 274.839 33.4182C205.683 29.2231 148.844 38.6329 147.885 54.4355C146.163 86.5459 202.21 86.4497 271.366 90.6448Z" fill="#DDE7F0"/>
<path d="M253.83 48.5178L259.633 48.8254L258.685 70.8151L252.891 70.5081L253.403 58.6355L247.456 67.1815L246.884 67.1403L241.751 58.051L241.225 69.8799L235.369 69.5685L236.317 47.5788L242.163 47.8896L247.555 57.6356L253.83 48.5178Z" fill="white"/>
<path d="M182.11 45.1699L174.983 44.7916L166.494 66.3933L172.846 66.7326L173.928 63.5935L181.521 64.0054L182.368 67.2413L188.667 67.5769L182.11 45.1699ZM175.66 58.8415L178.238 51.4696L180.232 59.0865L175.66 58.8415Z" fill="white"/>
<path d="M200.215 45.9789L190.926 45.4778L190.294 60.0967L196.304 60.4204L196.699 51.2431L200.012 51.423C200.735 51.4325 201.449 51.5921 202.106 51.8909C202.764 52.1897 203.348 52.6207 203.82 53.1545C204.806 54.3124 205.287 55.7902 205.161 57.2709C205.165 58.0085 205.019 58.7377 204.731 59.4167C204.442 60.0958 204.016 60.7115 203.478 61.2284C202.958 61.7063 202.337 62.0713 201.657 62.2995C200.976 62.5277 200.252 62.614 199.53 62.5526L198.958 62.5113L196.252 62.3668L190.215 62.0412L189.978 67.4827L199.293 67.9857C200.767 68.0989 202.245 67.9137 203.632 67.4419C205.018 66.9701 206.283 66.2223 207.345 65.2464C208.438 64.2671 209.312 63.0829 209.915 61.7643C210.518 60.4457 210.837 59.0198 210.854 57.5717C210.954 56.128 210.754 54.6756 210.265 53.2994C209.777 51.9232 209.01 50.6509 208.009 49.5569C207.031 48.4749 205.833 47.598 204.491 46.9819C203.149 46.3659 201.693 46.0243 200.215 45.9789Z" fill="white"/>
<path d="M222.947 47.0308L213.623 46.5272L213.394 51.9696L219.404 52.2933L221.749 52.4201L222.708 52.4895C223.432 52.499 224.148 52.6586 224.806 52.9574C225.465 53.2563 226.051 53.6875 226.525 54.2216C227.504 55.3824 227.981 56.8585 227.856 58.3375C227.866 59.0758 227.721 59.8063 227.432 60.486C227.143 61.1656 226.715 61.7808 226.174 62.2952C225.654 62.774 225.034 63.1396 224.353 63.3679C223.673 63.5962 222.947 63.6819 222.226 63.6194L218.921 63.4402L219.317 54.2372L213.307 53.9135L212.683 68.5334L221.998 69.0364C223.471 69.1483 224.947 68.9624 226.333 68.4905C227.718 68.0186 228.981 67.2712 230.042 66.2964C231.127 65.3228 231.996 64.1463 232.597 62.8366C233.198 61.5269 233.518 60.1106 233.539 58.6716C233.641 57.2272 233.443 55.7736 232.956 54.396C232.469 53.0183 231.703 51.7444 230.703 50.6487C229.736 49.5611 228.546 48.6774 227.211 48.0543C225.875 47.4313 224.423 47.0826 222.947 47.0308Z" fill="white"/>
<path d="M340.019 57.83L345.675 58.1281L344.961 74.7286L350.829 75.0419L351.49 58.4461L357.145 58.7526L357.375 53.301L340.204 52.3837L340.019 57.83Z" fill="white"/>
<path d="M374.239 66.8872C373.878 66.0554 373.282 65.3354 372.52 64.8096C371.839 64.3196 371.117 63.8851 370.363 63.5106C369.502 63.1094 368.616 62.7605 367.711 62.4658C366.639 62.1557 365.606 61.729 364.631 61.1939C364.401 61.0652 364.21 60.88 364.078 60.6574C363.946 60.4349 363.877 60.1832 363.879 59.9283C363.882 59.7248 363.938 59.5261 364.042 59.3503C364.146 59.1745 364.295 59.0273 364.474 58.9221C364.955 58.6463 365.519 58.5341 366.079 58.6031C366.869 58.6362 367.631 58.9117 368.253 59.3894C368.876 59.8671 369.327 60.5221 369.54 61.2589L374.559 58.7557C373.904 57.1565 372.753 55.7858 371.266 54.8326C369.79 53.8219 368.041 53.2558 366.243 53.207C364.175 53.0289 362.123 53.5911 360.477 54.7861C359.713 55.354 359.094 56.0817 358.664 56.9158C358.234 57.7498 358.006 58.6689 357.995 59.6052C357.911 60.4233 358.014 61.2517 358.297 62.0323C358.579 62.813 359.034 63.5272 359.63 64.1249C361.029 65.3749 362.692 66.3164 364.501 66.8826C365.967 67.3639 366.92 67.6887 367.332 67.8891C368.33 68.3451 368.826 68.9013 368.803 69.5479C368.741 70.5329 367.827 70.9872 366.063 70.8852C365.08 70.8815 364.121 70.5698 363.331 69.9972C362.54 69.4246 361.96 68.622 361.678 67.7106L356.588 70.2257C357.123 71.9162 358.238 73.3875 359.75 74.3952C361.52 75.5342 363.586 76.1604 365.7 76.1987C367.956 76.4306 370.215 75.9004 372.089 74.6988C372.899 74.139 373.558 73.4008 374.012 72.5443C374.466 71.6878 374.703 70.7372 374.703 69.7698C374.765 68.7908 374.607 67.8075 374.239 66.8872Z" fill="white"/>
<path d="M275.552 49.5001L268.417 49.1211L259.927 70.74L266.278 71.0793L267.421 67.953L275.015 68.3565L275.852 71.6088L282.142 71.9437L275.552 49.5001ZM269.093 63.1712L271.724 55.803L273.718 63.4199L269.093 63.1712Z" fill="white"/>
<path d="M329.816 65.4964L337.693 65.9192L337.917 60.7074L330.04 60.2931L330.172 57.2274L338.862 57.6917L339.088 52.4374L324.533 51.6953L323.576 73.7767L338.315 74.5662L338.544 69.2779L329.712 68.8118L329.816 65.4964Z" fill="white"/>
<path d="M322.871 51.7247L316.337 51.38L309.714 60.2749L310.157 51.0353L304.302 50.7226L303.352 72.7507L309.206 73.0633L309.633 63.2346L315.775 73.4191L322.308 73.7723L315.22 62.0451L322.871 51.7247Z" fill="white"/>
<path d="M297.315 64.4023C298.506 63.8377 299.521 62.983 300.26 61.9216C301.005 60.8641 301.421 59.6204 301.46 58.3345C301.532 57.3078 301.375 56.275 301 55.3055C300.624 54.3359 300.04 53.4521 299.285 52.7131C297.764 51.1957 295.694 50.3079 293.521 50.2419L293.151 50.2152L292.27 50.1515L290.244 50.0049L286.311 49.7971L284.382 49.6576L283.427 71.7515L289.291 72.0648L289.599 64.9609L291.678 65.1112L295.355 72.4523L301.634 72.7871L297.315 64.4023ZM294.841 59.8675C294.603 60.0835 294.318 60.2456 294.006 60.3424C293.694 60.4391 293.363 60.4682 293.036 60.4274L289.808 60.2536L289.899 58.828L290.05 55.31L292.085 55.4572L292.966 55.5209L293.257 55.5419C293.584 55.5514 293.906 55.6273 294.202 55.7648C294.498 55.9023 294.762 56.0982 294.976 56.3397C295.199 56.5936 295.367 56.8876 295.47 57.2042C295.574 57.5207 295.609 57.8533 295.576 58.1817C295.571 58.4999 295.5 58.8129 295.366 59.102C295.232 59.3911 295.038 59.6504 294.797 59.8643L294.841 59.8675Z" fill="white"/>
<path d="M138.433 59.8348C138.02 66.3795 135.273 69.6403 125.198 68.9205C115.124 68.2008 109.671 65.2631 110.084 58.7268C110.497 52.1905 116.686 46.2622 126.76 46.9819C136.835 47.7017 138.847 53.2815 138.433 59.8348Z" fill="#DDE7F0"/>
<path d="M99.4349 69.9548C99.2134 73.4612 98.0145 77.331 92.6306 76.9427C87.2467 76.5544 83.8617 73.6216 84.0833 70.1152C84.3048 66.6088 87.0081 61.5883 92.4008 61.9773C97.7934 62.3663 99.6559 66.4569 99.4349 69.9548Z" fill="#DDE7F0"/>
<defs>
<linearGradient id="paint0_linear_2822_14095" x1="192.999" y1="285.578" x2="200.296" y2="286.038" gradientUnits="userSpaceOnUse">
<stop stop-color="#F5928F"/>
<stop offset="1" stop-color="#F8B2B1"/>
</linearGradient>
<linearGradient id="paint1_linear_2822_14095" x1="830.879" y1="7625.85" x2="339.914" y2="8353.03" gradientUnits="userSpaceOnUse">
<stop stop-color="#F5928F"/>
<stop offset="1" stop-color="#F8B2B1"/>
</linearGradient>
<linearGradient id="paint2_linear_2822_14095" x1="1207.31" y1="1979.97" x2="866.43" y2="2158.62" gradientUnits="userSpaceOnUse">
<stop stop-color="#F5928F"/>
<stop offset="1" stop-color="#F8B2B1"/>
</linearGradient>
<linearGradient id="paint3_linear_2822_14095" x1="44.7101" y1="169.137" x2="77.4816" y2="186.543" gradientUnits="userSpaceOnUse">
<stop stop-color="#4DA6DD"/>
<stop offset="1" stop-color="#2288C7"/>
</linearGradient>
<linearGradient id="paint4_linear_2822_14095" x1="2512.46" y1="1999.59" x2="2327.29" y2="2118.98" gradientUnits="userSpaceOnUse">
<stop stop-color="#F5928F"/>
<stop offset="1" stop-color="#F8B2B1"/>
</linearGradient>
<linearGradient id="paint5_linear_2822_14095" x1="72.5277" y1="182.932" x2="186.921" y2="190.156" gradientUnits="userSpaceOnUse">
<stop stop-color="#F68C48"/>
<stop offset="1" stop-color="#F67420"/>
</linearGradient>
<linearGradient id="paint6_linear_2822_14095" x1="8346.25" y1="15356.5" x2="13185.1" y2="19544.2" gradientUnits="userSpaceOnUse">
<stop stop-color="#4DA6DD"/>
<stop offset="1" stop-color="#2288C7"/>
</linearGradient>
<linearGradient id="paint7_linear_2822_14095" x1="1842.73" y1="2422.09" x2="2024.25" y2="2831.7" gradientUnits="userSpaceOnUse">
<stop stop-color="#F5928F"/>
<stop offset="1" stop-color="#F8B2B1"/>
</linearGradient>
<linearGradient id="paint8_linear_2822_14095" x1="1708.77" y1="2169.87" x2="1638.44" y2="1867.91" gradientUnits="userSpaceOnUse">
<stop stop-color="#F5928F"/>
<stop offset="1" stop-color="#F8B2B1"/>
</linearGradient>
</defs>
</svg>
