<svg width="423" height="1382" viewBox="0 0 423 1382" fill="none" xmlns="http://www.w3.org/2000/svg">
<path opacity="0.82" d="M157.57 1114.77L0 1381.22H422.682L272.624 1120.28L157.57 1114.77Z" fill="url(#paint0_linear_2822_14022)"/>
<path d="M213.488 1072.89C213.066 1072.89 212.661 1072.61 212.362 1072.12C212.063 1071.63 211.895 1070.97 211.895 1070.28V2.67077C211.895 1.97798 212.063 1.31356 212.362 0.823686C212.661 0.333808 213.066 0.0585938 213.488 0.0585938C213.911 0.0585938 214.316 0.333808 214.615 0.823686C214.914 1.31356 215.082 1.97798 215.082 2.67077V1070.28C215.082 1070.97 214.914 1071.63 214.615 1072.12C214.316 1072.61 213.911 1072.89 213.488 1072.89Z" fill="#303030"/>
<path d="M213.22 1079.37C213.026 1079.37 212.841 1079.29 212.704 1079.15C212.567 1079.01 212.49 1078.83 212.49 1078.63V1067.61C212.49 1067.41 212.567 1067.22 212.704 1067.08C212.841 1066.94 213.026 1066.87 213.22 1066.87C213.413 1066.87 213.599 1066.94 213.736 1067.08C213.872 1067.22 213.949 1067.41 213.949 1067.61V1078.63C213.949 1078.83 213.872 1079.01 213.736 1079.15C213.599 1079.29 213.413 1079.37 213.22 1079.37Z" fill="#303030"/>
<path d="M276.096 1127.02V1107.44C276.071 1100.11 273.203 1093.09 268.118 1087.91C263.033 1082.73 256.144 1079.81 248.954 1079.79H177.485C170.295 1079.81 163.406 1082.73 158.321 1087.91C153.236 1093.09 150.368 1100.11 150.343 1107.44V1127.02H276.096Z" fill="url(#paint1_linear_2822_14022)"/>
<path d="M213.314 1139.04C248.085 1139.04 276.272 1133.35 276.272 1126.34C276.272 1119.33 248.085 1113.64 213.314 1113.64C178.544 1113.64 150.356 1119.33 150.356 1126.34C150.356 1133.35 178.544 1139.04 213.314 1139.04Z" fill="url(#paint2_linear_2822_14022)"/>
<path d="M213.315 1109.89C186.659 1109.89 163.394 1106.04 158.004 1100.72C157.962 1100.68 157.929 1100.63 157.906 1100.58C157.884 1100.52 157.872 1100.46 157.872 1100.4C157.872 1100.35 157.884 1100.29 157.906 1100.23C157.929 1100.18 157.962 1100.13 158.004 1100.09C158.043 1100.05 158.09 1100.01 158.142 1099.99C158.195 1099.97 158.251 1099.95 158.308 1099.95C158.365 1099.95 158.421 1099.97 158.473 1099.99C158.526 1100.01 158.573 1100.05 158.612 1100.09C163.854 1105.25 186.862 1109 213.315 1109C237.89 1109 259.925 1105.71 266.883 1100.98C266.931 1100.95 266.985 1100.93 267.041 1100.92C267.098 1100.91 267.156 1100.91 267.212 1100.92C267.269 1100.93 267.322 1100.95 267.37 1100.98C267.418 1101.02 267.459 1101.06 267.491 1101.11C267.523 1101.16 267.545 1101.21 267.556 1101.27C267.568 1101.33 267.567 1101.39 267.556 1101.44C267.545 1101.5 267.523 1101.55 267.491 1101.6C267.459 1101.65 267.417 1101.69 267.369 1101.73C260.169 1106.58 238.444 1109.89 213.315 1109.89Z" fill="white"/>
<path d="M238.039 1080.78C237.993 1077.91 236.846 1075.18 234.845 1073.17C232.844 1071.16 230.149 1070.03 227.339 1070.02H199.102C196.269 1070.04 193.558 1071.2 191.554 1073.25C189.55 1075.29 188.413 1078.05 188.389 1080.94C188.389 1083.7 199.521 1085.97 213.248 1085.97C226.974 1085.97 238.093 1083.72 238.093 1080.97C238.081 1080.9 238.062 1080.84 238.039 1080.78Z" fill="url(#paint3_linear_2822_14022)"/>
<defs>
<linearGradient id="paint0_linear_2822_14022" x1="211.341" y1="1114.77" x2="211.341" y2="1306.1" gradientUnits="userSpaceOnUse">
<stop stop-color="#FFD18B" stop-opacity="0.36"/>
<stop offset="1" stop-color="#FFC793" stop-opacity="0"/>
</linearGradient>
<linearGradient id="paint1_linear_2822_14022" x1="161.529" y1="1066.78" x2="254.083" y2="1142.58" gradientUnits="userSpaceOnUse">
<stop stop-color="#4DA6DD"/>
<stop offset="1" stop-color="#2288C7"/>
</linearGradient>
<linearGradient id="paint2_linear_2822_14022" x1="154.541" y1="1126.21" x2="276.422" y2="1124.26" gradientUnits="userSpaceOnUse">
<stop stop-color="#45A1D9"/>
<stop offset="1" stop-color="#258AC8"/>
</linearGradient>
<linearGradient id="paint3_linear_2822_14022" x1="7119.16" y1="4847.78" x2="8947.78" y2="4847.78" gradientUnits="userSpaceOnUse">
<stop stop-color="#4DA6DD"/>
<stop offset="1" stop-color="#2288C7"/>
</linearGradient>
</defs>
</svg>
