<svg width="94" height="36" viewBox="0 0 94 36" fill="none" xmlns="http://www.w3.org/2000/svg">
<path d="M90.0233 30C91.6443 30 93.0493 31.2857 93.0493 33C93.0493 34.6071 91.7524 36 90.0233 36C88.4022 36 86.9973 34.7143 86.9973 33C87.1054 31.2857 88.4022 30 90.0233 30Z" fill="white"/>
<path d="M90.0233 15C91.6443 15 93.0493 16.2857 93.0493 18C93.0493 19.6071 91.7524 21 90.0233 21C88.4022 21 86.9973 19.7143 86.9973 18C87.1054 16.2857 88.4022 15 90.0233 15Z" fill="white"/>
<path d="M68.3009 30C69.922 30 71.3269 31.2857 71.3269 33C71.3269 34.6071 70.03 36 68.3009 36C66.6798 36 65.2749 34.7143 65.2749 33C65.383 31.2857 66.6798 30 68.3009 30Z" fill="white"/>
<path d="M68.3009 15C69.922 15 71.3269 16.2857 71.3269 18C71.3269 19.6071 70.03 21 68.3009 21C66.6798 21 65.2749 19.7143 65.2749 18C65.383 16.2857 66.6798 15 68.3009 15Z" fill="white"/>
<path d="M3.026 15C4.64707 15 6.05199 16.2857 6.05199 18C6.05199 19.6071 4.75514 21 3.026 21C1.40493 21 0 19.7143 0 18C0.108071 16.2857 1.40493 15 3.026 15Z" fill="white"/>
<path d="M3.026 0C4.64707 0 6.05199 1.28571 6.05199 3C6.05199 4.60714 4.75514 6 3.026 6C1.40493 6 0 4.71429 0 3C0.108071 1.28571 1.40493 0 3.026 0Z" fill="white"/>
<path d="M46.5787 30C48.1998 30 49.6047 31.2857 49.6047 33C49.6047 34.6071 48.3079 36 46.5787 36C44.8496 36 43.5527 34.7143 43.5527 33C43.5527 31.2857 44.9577 30 46.5787 30Z" fill="white"/>
<path d="M24.8563 30C26.4774 30 27.8823 31.2857 27.8823 33C27.8823 34.6071 26.5855 36 24.8563 36C23.2352 36 21.8303 34.7143 21.8303 33C21.8303 31.2857 23.1272 30 24.8563 30Z" fill="white"/>
<path d="M3.02599 30C4.64706 30 6.05198 31.2857 6.05198 33C6.05198 34.6071 4.75513 36 3.02599 36C1.40493 36 0 34.7143 0 33C0.108071 31.2857 1.40493 30 3.02599 30Z" fill="white"/>
</svg>
