<svg width="349" height="456" viewBox="0 0 349 456" fill="none" xmlns="http://www.w3.org/2000/svg">
<path d="M240.995 240.025L79.1834 231.574C74.6895 231.342 71.8298 227.657 72.8231 223.356L99.8504 105.674C100.407 103.566 101.693 101.723 103.479 100.473C105.265 99.2218 107.436 98.6438 109.607 98.8411L268.214 115.503C272.075 115.903 274.494 119.436 273.629 123.393L249.702 233.104C248.829 237.11 244.936 240.234 240.995 240.025Z" fill="#D8DEE8"/>
<path d="M243.013 240.554L81.4018 232.079C76.9159 231.839 74.0562 228.21 75.0415 223.972L101.933 108.045C102.502 105.957 103.792 104.138 105.572 102.908C107.353 101.679 109.511 101.118 111.665 101.324L270.072 117.882C270.971 117.966 271.841 118.244 272.621 118.699C273.401 119.153 274.072 119.772 274.589 120.513C275.105 121.253 275.453 122.097 275.61 122.986C275.767 123.875 275.727 124.788 275.495 125.66L251.704 233.801C251.237 235.746 250.122 237.474 248.543 238.702C246.963 239.929 245.013 240.582 243.013 240.554Z" fill="url(#paint0_linear_2822_14137)"/>
<path d="M259.234 199.853L83.4608 187.549L82.6758 190.921L258.537 202.993L259.234 199.853Z" fill="white"/>
<path d="M209.875 111.602L190.609 197.378L193.894 197.602L213.111 111.946L209.875 111.602Z" fill="white"/>
<path d="M164.591 213.19L101.036 209.265C100.969 209.265 100.903 209.249 100.842 209.219C100.782 209.19 100.729 209.146 100.688 209.093C100.647 209.04 100.619 208.978 100.606 208.912C100.593 208.846 100.595 208.777 100.612 208.712L101.917 203.049C101.955 202.904 102.041 202.776 102.163 202.688C102.284 202.601 102.433 202.558 102.582 202.568L166.073 206.67C166.138 206.671 166.201 206.687 166.259 206.717C166.316 206.746 166.366 206.789 166.405 206.84C166.443 206.892 166.469 206.952 166.481 207.015C166.493 207.079 166.491 207.144 166.474 207.206L165.224 212.734C165.186 212.87 165.103 212.99 164.988 213.073C164.873 213.156 164.733 213.197 164.591 213.19Z" fill="url(#paint1_linear_2822_14137)"/>
<path d="M178.521 226.584L98.0963 222.026C98.029 222.026 97.9627 222.01 97.9024 221.981C97.8421 221.951 97.7894 221.907 97.7484 221.854C97.7074 221.801 97.6792 221.739 97.6659 221.673C97.6526 221.607 97.6546 221.539 97.6717 221.474L98.9774 215.794C99.0185 215.651 99.1064 215.526 99.2269 215.439C99.3474 215.352 99.4937 215.308 99.6423 215.313L179.987 220.08C180.051 220.083 180.114 220.1 180.17 220.13C180.227 220.16 180.276 220.202 180.315 220.253C180.353 220.305 180.379 220.364 180.392 220.427C180.405 220.489 180.403 220.554 180.388 220.616L179.146 226.112C179.111 226.25 179.031 226.372 178.917 226.458C178.803 226.544 178.664 226.588 178.521 226.584Z" fill="#D8DEE8"/>
<path d="M262.015 146.151L215.442 141.849L219.551 123.489L265.988 128.135L262.015 146.151Z" fill="#D8DEE8"/>
<path d="M252.401 189.688L205.508 186.219L213.687 149.675L260.316 153.833L252.401 189.688Z" fill="#D8DEE8"/>
<g style="mix-blend-mode:multiply" opacity="0.47">
<path d="M86.5531 161.011C84.3342 163.005 92.3687 180.468 106.86 194.174C121.535 208.056 132.589 208.376 144.076 224.878C149.635 232.888 147.625 233.609 151.95 239.345C168.861 261.774 213.439 268.607 231.382 251.28C233.265 249.462 237.462 241.436 245.849 225.391C249.484 218.349 252.679 211.088 255.414 203.65C259.106 193.637 261.141 187.998 259.13 186.388C255.029 183.103 240.819 200.983 231.382 196.881C225.422 194.278 228.45 184.513 220.56 177.592C214.152 171.985 205.476 172.273 203.217 172.345C183.528 172.97 181.317 194.663 162.861 198.74C147.521 202.136 131.284 191.066 107.532 174.885C94.8599 166.249 88.1792 159.545 86.5531 161.011Z" fill="#D8DEE8"/>
</g>
<path d="M136.843 137.259C136.945 137.159 137.068 137.082 137.203 137.033C137.337 136.984 137.481 136.965 137.623 136.976C137.766 136.988 137.905 137.03 138.03 137.099C138.155 137.169 138.264 137.264 138.349 137.379L157.446 167.33L105.594 163.846L136.843 137.259ZM160.818 132.173C160.918 132.073 161.039 131.997 161.171 131.949C161.303 131.901 161.445 131.883 161.585 131.895C161.725 131.907 161.861 131.95 161.983 132.02C162.106 132.09 162.211 132.186 162.292 132.301L185.37 169.149L122.657 165.015L160.818 132.173ZM119.813 122.76C120.547 122.809 121.261 123.017 121.906 123.37C122.551 123.723 123.112 124.213 123.549 124.804C123.985 125.396 124.288 126.076 124.436 126.796C124.583 127.517 124.572 128.261 124.403 128.976C124.061 130.526 123.178 131.902 121.912 132.86C120.647 133.817 119.082 134.292 117.498 134.199C116.76 134.155 116.042 133.95 115.392 133.598C114.742 133.247 114.177 132.757 113.737 132.164C113.296 131.571 112.991 130.889 112.842 130.165C112.693 129.441 112.705 128.694 112.876 127.975C113.225 126.427 114.116 125.054 115.388 124.104C116.66 123.153 118.229 122.688 119.813 122.792V122.76Z" fill="url(#paint2_linear_2822_14137)"/>
<path d="M88.9159 168.284L85.5515 164.919C84.7923 163.766 84.323 162.446 84.1835 161.072C84.044 159.698 84.2385 158.311 84.7505 157.029C86.4326 152.407 88.7557 153.664 88.7557 153.664L88.1148 156.925C88.1148 156.925 87.6903 159.032 89.7169 161.659C90.7429 163.389 91.4535 165.288 91.8157 167.266L88.9159 168.284Z" fill="url(#paint3_linear_2822_14137)"/>
<path d="M259.234 183.872L263.288 180.195L264.89 174.332C264.89 174.332 269.248 176.046 266.868 181.581C265.354 183.431 261.63 186.195 260.044 188.903C258.457 191.61 259.234 183.872 259.234 183.872Z" fill="url(#paint4_linear_2822_14137)"/>
<path d="M212.774 243.718C212.774 243.718 228.939 236.373 240.009 225.358C250.423 215.001 260.692 191.042 261.958 188.759C263.224 186.476 259.002 183.191 259.002 183.191C259.002 183.191 233.104 214.56 201.103 205.172C206.173 216.587 212.774 243.718 212.774 243.718Z" fill="#4DA6DD"/>
<path opacity="0.3" d="M255.87 430.298C253.855 427.699 251.31 425.558 248.404 424.018C247.558 423.558 246.838 422.896 246.309 422.091C245.78 421.286 245.457 420.363 245.37 419.403C245.283 418.444 245.434 417.478 245.809 416.59C246.185 415.703 246.774 414.922 247.523 414.317L247.82 414.061C252.306 410.272 248.941 402.966 243.134 403.856L164.15 415.919C152.135 417.754 139.927 419.636 128.768 424.507C120.149 428.263 110.344 434.824 105.466 443.491C105.067 444.194 104.818 444.972 104.734 445.776C104.649 446.579 104.732 447.392 104.975 448.162C105.219 448.932 105.618 449.644 106.149 450.254C106.68 450.863 107.331 451.356 108.061 451.702C117.009 455.892 127.879 456.028 137.476 455.427C149.764 454.626 161.803 455.972 174.107 455.876C201.44 455.658 228.449 449.937 253.523 439.054C254.32 438.704 255.028 438.179 255.595 437.519C256.162 436.859 256.573 436.08 256.799 435.239C257.024 434.399 257.058 433.518 256.897 432.663C256.736 431.808 256.385 431 255.87 430.298Z" fill="#8DAFCD"/>
<path d="M218.453 420.245C218.453 420.245 221.137 427.014 220.432 430.01C222.024 429.994 223.612 429.852 225.182 429.585C224.606 428.084 224.143 426.542 223.796 424.971C223.595 423.179 223.502 421.376 223.516 419.572L218.453 420.245Z" fill="url(#paint5_linear_2822_14137)"/>
<path d="M170.847 438.605C171.142 438.955 171.318 439.39 171.351 439.846C171.359 440.121 171.307 440.394 171.199 440.647C170.743 441.857 170.022 442.017 169.245 443.299C168.772 444.1 168.86 444.316 168.444 444.669C167.898 445.046 167.238 445.221 166.577 445.165C165.132 445.18 163.687 445.1 162.251 444.925C163.221 443.675 164.246 442.418 165.335 441.136C165.816 440.583 166.297 440.031 166.769 439.534L169.605 438.573L170.847 438.605Z" fill="#26264F"/>
<path d="M168.484 424.835C168.484 424.835 166.882 433.294 168.925 435.665C170.687 438.068 168.076 436.346 168.076 436.346L164.968 439.062L163.101 442.266C163.101 442.266 164.815 433.983 164.359 430.699C163.902 427.414 163.67 425.195 163.67 425.195L168.484 424.835Z" fill="url(#paint6_linear_2822_14137)"/>
<path d="M181.133 205.068C169.333 203.081 152.439 209.073 132.91 198.724C113.685 188.558 99.394 175.029 92.7774 165.416L87.106 168.22C91.9923 176.647 98.5769 200.39 113.821 212.958C133.046 228.795 153.184 237.478 163.406 250.407C168.22 245.657 186.892 206.053 181.133 205.068Z" fill="#4DA6DD"/>
<path d="M160.001 286.254C160.001 286.254 153.488 292.077 153.488 316.068C153.488 340.06 156.572 392.168 156.572 392.168L161.507 429.465C161.507 429.465 166.625 429.649 170.054 428.615C173.138 414.565 178.16 390.798 175.765 370.94C174.732 349.352 184.329 322.277 184.329 322.277C184.329 322.277 192.555 349.688 198.379 363.402C204.203 377.116 215.297 420.052 216.33 423.136C223.147 423.753 226.055 421.951 226.055 421.951C226.055 421.951 221.681 375.738 217.572 358.26C213.463 340.781 213.799 298.63 206.95 286.638C191.53 280.422 160.001 286.254 160.001 286.254Z" fill="url(#paint7_linear_2822_14137)"/>
<path d="M160.001 286.254C160.001 286.254 153.488 292.077 153.488 316.068C153.488 340.06 156.572 392.168 156.572 392.168L161.507 429.465C161.507 429.465 166.625 429.649 170.054 428.615C173.138 414.565 178.16 390.798 175.765 370.94C174.732 349.352 184.329 322.277 184.329 322.277C184.329 322.277 192.555 349.688 198.379 363.402C204.203 377.116 215.297 420.052 216.33 423.136C223.147 423.753 226.055 421.951 226.055 421.951C226.055 421.951 221.681 375.738 217.572 358.26C213.463 340.781 213.799 298.63 206.95 286.638C191.53 280.422 160.001 286.254 160.001 286.254Z" fill="#303030"/>
<path style="mix-blend-mode:multiply" opacity="0.25" d="M193.854 330.208C195.888 343.401 199.95 350.514 210.099 359.646C218.222 365.742 212.134 378.935 215.178 389.084C216.187 392.136 219.239 395.18 220.248 398.224C224.029 405.778 220.496 415.046 222.211 423.057C223.561 422.932 224.877 422.554 226.088 421.943C226.088 421.943 221.714 375.731 217.605 358.252C213.495 340.773 213.832 298.622 206.983 286.631C191.563 280.455 160.034 286.286 160.034 286.286C160.034 286.286 153.521 292.11 153.521 316.101C153.521 318.048 153.521 320.178 153.577 322.453C160.338 328.437 174.164 329.767 182.687 323.134C183.16 322.773 183.707 322.521 184.289 322.397L184.329 322.269V322.389C188.246 321.644 192.94 326.683 193.854 330.208Z" fill="url(#paint8_linear_2822_14137)"/>
<path d="M219.727 432.565C219.727 432.565 219.054 432.565 219.11 433.43C219.166 434.295 218.806 437.267 222.21 437.435C225.615 437.604 226.143 437.195 226.255 437.195C226.01 436.229 225.713 435.277 225.366 434.343L224.293 432.941L221.361 432.637L219.727 432.565Z" fill="#26264F"/>
<path d="M227.273 435.569C227.106 434.613 226.812 433.684 226.4 432.806C225.791 431.452 226.288 430.947 225.711 429.714C225.531 429.252 225.258 428.832 224.91 428.48C224.253 427.883 223.394 427.557 222.507 427.567C222.112 427.56 221.721 427.651 221.369 427.831C220.934 428.084 220.581 428.457 220.352 428.904C220 429.489 220.08 429.706 219.551 431.308C219.458 431.568 219.385 431.836 219.335 432.109C219.289 432.352 219.259 432.598 219.247 432.846C220.136 432.846 223.572 432.99 224.301 433.519C224.65 433.793 224.93 434.146 225.119 434.547C225.308 434.949 225.401 435.39 225.391 435.834C225.391 436.731 225.831 437.147 226.28 437.123C226.598 437.017 226.871 436.805 227.051 436.522C227.232 436.239 227.31 435.903 227.273 435.569Z" fill="#444B8C"/>
<path d="M168.051 434.479C168.852 434.479 169.381 435.096 169.806 436.57C170.23 438.044 172.265 439.341 169.894 439.029C167.523 438.717 165.784 442.089 164.935 443.331C164.086 444.572 161.811 445.686 161.867 444.468C161.923 443.251 162.925 442.682 163.213 441.44C163.501 440.199 166.297 434.447 168.051 434.479Z" fill="#444B8C"/>
<path d="M192.131 208.192C184.809 208 166.185 206.173 157.477 213.999C148.57 222.01 157.589 231.622 155.987 244.792C154.898 253.731 155.29 259.002 153.4 273.629C152.935 277.123 152.245 280.582 151.333 283.987C148.85 293.511 144.524 312.248 142.193 316.934C149.651 320.37 168.86 326.546 191.746 323.47C200.31 322.326 208.644 319.859 216.45 316.157C210.515 299.992 211.644 277.851 213.823 269.88C218.165 254.14 219.142 247.956 231.446 225.326C234.826 219.086 226.792 222.579 221.649 217.099C213.727 208.688 199.516 208.392 192.131 208.192Z" fill="#4DA6DD"/>
<path style="mix-blend-mode:multiply" opacity="0.25" d="M170.39 249.405C170.767 246.498 171.368 241.179 168.452 235.619C167.163 233.167 165.408 230.991 163.285 229.211C156.797 223.852 148.426 224.204 138.861 223.604C131.868 223.155 121.11 210.995 108.758 207.911C129.962 227.328 144.933 233.232 156.14 243.053C156.14 243.053 156.084 243.942 155.987 244.783C154.898 253.723 155.291 258.994 153.4 273.621C152.936 277.114 152.245 280.574 151.333 283.978C148.85 293.503 144.525 312.239 142.193 316.926C149.651 320.362 168.86 326.538 191.746 323.462C200.31 322.318 208.644 319.851 216.45 316.149C214.643 311.002 213.423 305.668 212.814 300.248C201.316 300.288 189.94 297.894 179.434 293.223C172.337 290.018 168.796 288.376 166.681 284.804C162.612 277.963 167.547 271.554 170.39 249.405Z" fill="url(#paint9_linear_2822_14137)"/>
<path d="M186.548 191.586C187.213 186.46 191.267 183.167 192.156 182.471C195.857 179.523 196.61 179.266 197.883 178.986L199.621 178.722H199.814C201.422 179.035 202.978 179.575 204.436 180.324C206.206 181.565 204.9 190.385 199.533 201.351C199.317 202.28 199.109 203.21 198.901 204.139C202.906 204.267 205.822 204.411 207.023 205.421C207.103 206.878 201.864 211.14 192.716 211.14C184.546 211.14 180.444 205.172 180.565 203.258C183.127 202.841 185.73 202.734 188.319 202.937C189.488 202.937 189.672 201.039 190.345 200.086C189.737 199.389 186.06 195.367 186.548 191.586Z" fill="url(#paint10_linear_2822_14137)"/>
<path d="M197.859 175.373C195.993 177.199 195.536 180.371 196.089 182.654C196.417 184.024 196.842 184.168 196.786 185.057C196.61 187.573 192.036 188.662 192.284 189.928C192.468 190.833 194.855 190.505 195.264 191.642C195.672 192.78 193.093 193.957 191.972 197.089C191.795 197.578 190.73 200.534 192.1 202.28C193.373 203.882 196.225 203.522 199.445 203.081C201.798 202.782 204.099 202.165 206.286 201.247C208.633 200.213 211.157 199.1 213.247 196.56C215.386 193.914 216.508 190.59 216.411 187.188C216.091 180.467 210.476 174.732 204.7 173.819C203.787 173.707 200.174 173.138 197.859 175.373Z" fill="#303030"/>
<path d="M193.909 189.656C195.255 188.855 196.313 190.585 195.648 192.099C194.983 193.613 192.876 194.574 191.578 193.701C190.281 192.828 192.091 190.745 193.909 189.656Z" fill="url(#paint11_linear_2822_14137)"/>
<path d="M176.438 204.579L180.564 203.305C180.564 203.305 181.645 208.912 194.903 209.593C199.288 209.598 203.55 208.147 207.022 205.468L210.227 206.926C210.227 206.926 203.658 215.241 193.853 215.049C190.274 215.047 186.762 214.072 183.694 212.228C180.627 210.384 178.118 207.74 176.438 204.579Z" fill="#0F8FDD"/>
<path d="M53.7582 148.682L0 143.588L0.528691 138.028L54.0226 145.903L53.7582 148.682Z" fill="#D8DEE8"/>
<path d="M71.0207 81.2023L27.0112 49.9054L30.2475 45.3555L72.6388 78.9273L71.0207 81.2023Z" fill="#D8DEE8"/>
<path d="M131.692 53.4779L112.347 3.06003L117.561 1.06543L134.303 52.4766L131.692 53.4779Z" fill="#D8DEE8"/>
<path d="M192.155 53.2856L200.895 0L206.406 0.905182L194.911 53.7422L192.155 53.2856Z" fill="#D8DEE8"/>
<path d="M252.818 71.7898L284.107 27.7803L288.657 31.0165L255.093 73.4079L252.818 71.7898Z" fill="#D8DEE8"/>
<path d="M297.228 123.746L346.332 101.276L348.655 106.355L298.389 126.285L297.228 123.746Z" fill="#D8DEE8"/>
<path d="M294.664 189.103L348.182 196.312L347.437 201.847L294.288 191.866L294.664 189.103Z" fill="#D8DEE8"/>
<defs>
<linearGradient id="paint0_linear_2822_14137" x1="23.5823" y1="170.919" x2="280.117" y2="170.919" gradientUnits="userSpaceOnUse">
<stop stop-color="#E3E7EF"/>
<stop offset="1" stop-color="#FAFBFD"/>
</linearGradient>
<linearGradient id="paint1_linear_2822_14137" x1="100.596" y1="207.879" x2="166.49" y2="207.879" gradientUnits="userSpaceOnUse">
<stop stop-color="#F68C48"/>
<stop offset="1" stop-color="#F67420"/>
</linearGradient>
<linearGradient id="paint2_linear_2822_14137" x1="10621.7" y1="8577.08" x2="18566.6" y2="8577.08" gradientUnits="userSpaceOnUse">
<stop stop-color="#F68C48"/>
<stop offset="1" stop-color="#F67420"/>
</linearGradient>
<linearGradient id="paint3_linear_2822_14137" x1="93.8664" y1="167.05" x2="79.1191" y2="149.996" gradientUnits="userSpaceOnUse">
<stop stop-color="#F5928F"/>
<stop offset="1" stop-color="#F8B2B1"/>
</linearGradient>
<linearGradient id="paint4_linear_2822_14137" x1="255.726" y1="193.909" x2="266.756" y2="176.55" gradientUnits="userSpaceOnUse">
<stop stop-color="#F5928F"/>
<stop offset="1" stop-color="#F8B2B1"/>
</linearGradient>
<linearGradient id="paint5_linear_2822_14137" x1="2100.56" y1="6064.02" x2="2021.68" y2="5859.26" gradientUnits="userSpaceOnUse">
<stop stop-color="#F5928F"/>
<stop offset="1" stop-color="#F8B2B1"/>
</linearGradient>
<linearGradient id="paint6_linear_2822_14137" x1="1494.32" y1="10054.6" x2="1572.7" y2="9673.14" gradientUnits="userSpaceOnUse">
<stop stop-color="#F5928F"/>
<stop offset="1" stop-color="#F8B2B1"/>
</linearGradient>
<linearGradient id="paint7_linear_2822_14137" x1="153.488" y1="356.609" x2="226.055" y2="356.609" gradientUnits="userSpaceOnUse">
<stop stop-color="#311944"/>
<stop offset="1" stop-color="#893976"/>
</linearGradient>
<linearGradient id="paint8_linear_2822_14137" x1="15713.3" y1="50745.9" x2="25961.1" y2="59714.2" gradientUnits="userSpaceOnUse">
<stop stop-color="#311944"/>
<stop offset="1" stop-color="#893976"/>
</linearGradient>
<linearGradient id="paint9_linear_2822_14137" x1="68.7776" y1="135.769" x2="196.072" y2="338.097" gradientUnits="userSpaceOnUse">
<stop stop-color="#FF9085"/>
<stop offset="1" stop-color="#FB6FBB"/>
</linearGradient>
<linearGradient id="paint10_linear_2822_14137" x1="6715.36" y1="8814.64" x2="6346.23" y2="7564.6" gradientUnits="userSpaceOnUse">
<stop stop-color="#F5928F"/>
<stop offset="1" stop-color="#F8B2B1"/>
</linearGradient>
<linearGradient id="paint11_linear_2822_14137" x1="1361.06" y1="1315.75" x2="1325.25" y2="1279.46" gradientUnits="userSpaceOnUse">
<stop stop-color="#F5928F"/>
<stop offset="1" stop-color="#F8B2B1"/>
</linearGradient>
</defs>
</svg>
