<svg width="54" height="12" viewBox="0 0 54 12" fill="none" xmlns="http://www.w3.org/2000/svg">
<path fill-rule="evenodd" clip-rule="evenodd" d="M0.75 1.78055H5.56771V11.3685H7.35607V1.78055H12.1008V0.0405273H0.75V1.78055Z" fill="white" fill-opacity="0.7"/>
<path fill-rule="evenodd" clip-rule="evenodd" d="M48.3793 8.1016V0.0761719H46.5908V8.13711C46.5908 9.91264 48.0873 11.4041 49.9487 11.4041H53.197V9.66407H49.9487C49.0728 9.66407 48.3793 8.95385 48.3793 8.1016Z" fill="white" fill-opacity="0.7"/>
<path fill-rule="evenodd" clip-rule="evenodd" d="M41.8467 8.1016V0.0761719H40.0583V8.13711C40.0583 9.91264 41.5548 11.4041 43.4162 11.4041H45.2411V9.66407H43.4162C42.5402 9.66407 41.8467 8.95385 41.8467 8.1016Z" fill="white" fill-opacity="0.7"/>
<path fill-rule="evenodd" clip-rule="evenodd" d="M24.2543 0.182619C23.7798 -0.0304455 23.1959 0.00506528 22.7944 0.360173L21.1156 1.70958C20.0207 2.56184 18.4512 2.56184 17.3928 1.70958L15.7139 0.360173C15.3125 0.040576 14.765 -0.0304455 14.254 0.182619C13.7796 0.395683 13.4875 0.857323 13.4875 1.38998V11.404H15.276V2.17122L16.3344 2.98797C17.1738 3.66267 18.2322 4.01778 19.3271 4.01778C20.4221 4.01778 21.4805 3.66267 22.3199 2.98797L23.3784 2.17122V11.3685H25.1667V1.38998C25.0208 0.821812 24.7653 0.395683 24.2543 0.182619Z" fill="white" fill-opacity="0.7"/>
<path fill-rule="evenodd" clip-rule="evenodd" d="M32.5031 0.0405273C31.6637 0.0405273 31.0067 0.502167 30.6417 1.24789L26.116 11.404H28.0504L29.7292 7.67533H35.2769L36.9559 11.404H38.8903L34.3645 1.24789C33.9995 0.466656 33.3061 0.0405273 32.5031 0.0405273ZM30.4957 5.86429L32.2841 1.88708C32.3206 1.74504 32.4301 1.74504 32.5031 1.74504C32.6126 1.74504 32.6856 1.78055 32.7221 1.88708L34.5105 5.86429H30.4957Z" fill="white" fill-opacity="0.7"/>
</svg>
