<svg width="1440" height="135" viewBox="0 0 1440 135" fill="none" xmlns="http://www.w3.org/2000/svg">
<path d="M0 135H671.775H1191.98H1440V50.4287C1334.47 53.16 1279.05 24.6551 1197.82 2.90392C1128.15 -15.7683 1091.85 61.8009 1029.45 59.5662C925.95 55.8913 854.175 27.585 779.625 27.585C709.5 27.585 559.575 58.275 489.525 58.275C421.95 58.275 322.65 18.5965 255.075 17.5537C137.775 15.7659 106.95 57.2321 0.075 59.2185L0 135Z" fill="#F5FAFF"/>
<path d="M1440 130.739H768.225H248.025H0V35.57C0 35.57 112.275 22.5967 187.725 24.9167C262.8 27.1894 343.65 64.9255 406.2 65.7304C480.75 66.7247 588.6 37.3692 663.225 37.3692C733.35 37.3692 877.275 70.4178 947.4 70.4178C1014.97 70.4178 1122.15 27.3788 1189.65 26.3845C1306.88 24.6326 1333.12 56.545 1440 58.4389V130.739Z" fill="#DBEDFC"/>
<path d="M1440 135H768.225H248.025H0V49.7742C0 49.7742 112.275 36.801 187.725 39.121C262.875 41.3463 335.4 68.5712 397.875 69.3761C472.425 70.3704 575.025 54.9293 661.125 44.8027C747.225 34.6762 881.325 73.7676 937.5 76.0876C993.675 78.4076 1100.02 70.5658 1189.57 44.8027C1279.12 19.0396 1333.12 60.8062 1440 62.7001V135Z" fill="url(#paint0_linear_2822_12212)"/>
<defs>
<linearGradient id="paint0_linear_2822_12212" x1="720" y1="20.9039" x2="720" y2="154.389" gradientUnits="userSpaceOnUse">
<stop stop-color="#46A4E0"/>
<stop offset="1" stop-color="#4197D3"/>
</linearGradient>
</defs>
</svg>
